<svg preserveAspectRatio="none" width="100%" height="100%" overflow="visible" style="display: block;" viewBox="0 0 16 8" fill="none" xmlns="http://www.w3.org/2000/svg">
<path id="Vector" d="M8 0C3.65377 0 0.309572 3.67188 0.309572 3.67188L0 4L0.309572 4.32812C0.309572 4.32812 3.35845 7.66211 7.41344 7.96875C7.60692 7.99219 7.80041 8 8 8C8.19959 8 8.39308 7.99219 8.58656 7.96875C12.6415 7.66211 15.6904 4.32812 15.6904 4.32812L16 4L15.6904 3.67188C15.6904 3.67188 12.3462 0 8 0ZM8 1C9.14868 1 10.2077 1.30078 11.1283 1.70312C11.4603 2.23047 11.6497 2.83789 11.6497 3.5C11.6497 5.30664 10.2363 6.79102 8.40733 6.98438C8.39715 6.98633 8.38493 6.98242 8.37475 6.98438C8.25051 6.99023 8.12627 7 8 7C7.86151 7 7.72709 6.99219 7.59267 6.98438C5.76375 6.79102 4.35031 5.30664 4.35031 3.5C4.35031 2.84766 4.53361 2.24023 4.8554 1.71875H4.8391C5.76782 1.30859 6.8391 1 8 1ZM8 2C7.13646 2 6.43585 2.67188 6.43585 3.5C6.43585 4.32812 7.13646 5 8 5C8.86354 5 9.56416 4.32812 9.56416 3.5C9.56416 2.67188 8.86354 2 8 2ZM3.43788 2.46875C3.35642 2.80469 3.30754 3.14258 3.30754 3.5C3.30754 4.37695 3.56823 5.19727 4.02444 5.89062C2.71079 5.16211 1.79837 4.29297 1.49898 4C1.74949 3.75391 2.44807 3.10156 3.43788 2.46875ZM12.5621 2.46875C13.5519 3.10156 14.2505 3.75391 14.501 4C14.2016 4.29297 13.2892 5.16211 11.9756 5.89062C12.4318 5.19727 12.6925 4.37695 12.6925 3.5C12.6925 3.14258 12.6436 2.80078 12.5621 2.46875Z" fill="var(--fill-0, white)"/>
</svg>
