<svg preserveAspectRatio="none" width="100%" height="100%" overflow="visible" style="display: block;" viewBox="0 0 12 12" fill="none" xmlns="http://www.w3.org/2000/svg">
<g id="Icon">
<path id="Vector" d="M9 1H3C2.44772 1 2 1.44772 2 2V10C2 10.5523 2.44772 11 3 11H9C9.55228 11 10 10.5523 10 10V2C10 1.44772 9.55228 1 9 1Z" stroke="var(--stroke-0, white)" stroke-opacity="0.6" stroke-linecap="round" stroke-linejoin="round"/>
<path id="Vector_2" d="M4.5 11V9H7.5V11" stroke="var(--stroke-0, white)" stroke-opacity="0.6" stroke-linecap="round" stroke-linejoin="round"/>
<path id="Vector_3" d="M4 3H4.005" stroke="var(--stroke-0, white)" stroke-opacity="0.6" stroke-linecap="round" stroke-linejoin="round"/>
<path id="Vector_4" d="M8 3H8.005" stroke="var(--stroke-0, white)" stroke-opacity="0.6" stroke-linecap="round" stroke-linejoin="round"/>
<path id="Vector_5" d="M6 3H6.005" stroke="var(--stroke-0, white)" stroke-opacity="0.6" stroke-linecap="round" stroke-linejoin="round"/>
<path id="Vector_6" d="M6 5H6.005" stroke="var(--stroke-0, white)" stroke-opacity="0.6" stroke-linecap="round" stroke-linejoin="round"/>
<path id="Vector_7" d="M6 7H6.005" stroke="var(--stroke-0, white)" stroke-opacity="0.6" stroke-linecap="round" stroke-linejoin="round"/>
<path id="Vector_8" d="M8 5H8.005" stroke="var(--stroke-0, white)" stroke-opacity="0.6" stroke-linecap="round" stroke-linejoin="round"/>
<path id="Vector_9" d="M8 7H8.005" stroke="var(--stroke-0, white)" stroke-opacity="0.6" stroke-linecap="round" stroke-linejoin="round"/>
<path id="Vector_10" d="M4 5H4.005" stroke="var(--stroke-0, white)" stroke-opacity="0.6" stroke-linecap="round" stroke-linejoin="round"/>
<path id="Vector_11" d="M4 7H4.005" stroke="var(--stroke-0, white)" stroke-opacity="0.6" stroke-linecap="round" stroke-linejoin="round"/>
</g>
</svg>
