<svg preserveAspectRatio="none" width="100%" height="100%" overflow="visible" style="display: block;" viewBox="0 0 120 120" fill="none" xmlns="http://www.w3.org/2000/svg">
<g id="Gauge">
<g id="Ellipse 6">
<mask id="path-1-inside-1_42_1113" fill="white">
<path d="M20.7407 99.2594C18.9916 101.008 16.1414 101.019 14.5276 99.1441C7.79497 91.3232 3.17601 81.8762 1.15291 71.7054C-1.1622 60.0666 0.0259972 48.0026 4.56726 37.039C9.10851 26.0755 16.7989 16.7047 26.6658 10.1119C36.5328 3.51897 48.1331 2.84012e-05 60 2.85427e-05C71.8669 2.86843e-05 83.4673 3.51897 93.3342 10.1119C103.201 16.7047 110.892 26.0755 115.433 37.039C119.974 48.0026 121.162 60.0666 118.847 71.7054C116.824 81.8762 112.205 91.3232 105.472 99.1441C103.859 101.019 101.008 101.008 99.2594 99.2594V99.2594C97.5102 97.5103 97.5275 94.686 99.1166 92.7904C104.609 86.2381 108.384 78.3904 110.061 69.9579C112.031 60.0567 111.02 49.7938 107.157 40.467C103.294 31.1403 96.7514 23.1686 88.3575 17.56C79.9637 11.9514 70.0952 8.95784 60 8.95784C49.9048 8.95784 40.0364 11.9514 31.6425 17.56C23.2487 23.1686 16.7065 31.1403 12.8432 40.467C8.97993 49.7938 7.96912 60.0567 9.9386 69.9579C11.6159 78.3904 15.3908 86.2381 20.8835 92.7903C22.4726 94.686 22.4898 97.5103 20.7407 99.2594V99.2594Z"/>
</mask>
<path d="M20.7407 99.2594C18.9916 101.008 16.1414 101.019 14.5276 99.1441C7.79497 91.3232 3.17601 81.8762 1.15291 71.7054C-1.1622 60.0666 0.0259972 48.0026 4.56726 37.039C9.10851 26.0755 16.7989 16.7047 26.6658 10.1119C36.5328 3.51897 48.1331 2.84012e-05 60 2.85427e-05C71.8669 2.86843e-05 83.4673 3.51897 93.3342 10.1119C103.201 16.7047 110.892 26.0755 115.433 37.039C119.974 48.0026 121.162 60.0666 118.847 71.7054C116.824 81.8762 112.205 91.3232 105.472 99.1441C103.859 101.019 101.008 101.008 99.2594 99.2594V99.2594C97.5102 97.5103 97.5275 94.686 99.1166 92.7904C104.609 86.2381 108.384 78.3904 110.061 69.9579C112.031 60.0567 111.02 49.7938 107.157 40.467C103.294 31.1403 96.7514 23.1686 88.3575 17.56C79.9637 11.9514 70.0952 8.95784 60 8.95784C49.9048 8.95784 40.0364 11.9514 31.6425 17.56C23.2487 23.1686 16.7065 31.1403 12.8432 40.467C8.97993 49.7938 7.96912 60.0567 9.9386 69.9579C11.6159 78.3904 15.3908 86.2381 20.8835 92.7903C22.4726 94.686 22.4898 97.5103 20.7407 99.2594V99.2594Z" fill="var(--fill-0, white)" fill-opacity="0.1"/>
<path d="M20.7407 99.2594C18.9916 101.008 16.1414 101.019 14.5276 99.1441C7.79497 91.3232 3.17601 81.8762 1.15291 71.7054C-1.1622 60.0666 0.0259972 48.0026 4.56726 37.039C9.10851 26.0755 16.7989 16.7047 26.6658 10.1119C36.5328 3.51897 48.1331 2.84012e-05 60 2.85427e-05C71.8669 2.86843e-05 83.4673 3.51897 93.3342 10.1119C103.201 16.7047 110.892 26.0755 115.433 37.039C119.974 48.0026 121.162 60.0666 118.847 71.7054C116.824 81.8762 112.205 91.3232 105.472 99.1441C103.859 101.019 101.008 101.008 99.2594 99.2594V99.2594C97.5102 97.5103 97.5275 94.686 99.1166 92.7904C104.609 86.2381 108.384 78.3904 110.061 69.9579C112.031 60.0567 111.02 49.7938 107.157 40.467C103.294 31.1403 96.7514 23.1686 88.3575 17.56C79.9637 11.9514 70.0952 8.95784 60 8.95784C49.9048 8.95784 40.0364 11.9514 31.6425 17.56C23.2487 23.1686 16.7065 31.1403 12.8432 40.467C8.97993 49.7938 7.96912 60.0567 9.9386 69.9579C11.6159 78.3904 15.3908 86.2381 20.8835 92.7903C22.4726 94.686 22.4898 97.5103 20.7407 99.2594V99.2594Z" fill="url(#paint0_linear_42_1113)" fill-opacity="0.2"/>
<path d="M20.7407 99.2594C18.9916 101.008 16.1414 101.019 14.5276 99.1441C7.79497 91.3232 3.17601 81.8762 1.15291 71.7054C-1.1622 60.0666 0.0259972 48.0026 4.56726 37.039C9.10851 26.0755 16.7989 16.7047 26.6658 10.1119C36.5328 3.51897 48.1331 2.84012e-05 60 2.85427e-05C71.8669 2.86843e-05 83.4673 3.51897 93.3342 10.1119C103.201 16.7047 110.892 26.0755 115.433 37.039C119.974 48.0026 121.162 60.0666 118.847 71.7054C116.824 81.8762 112.205 91.3232 105.472 99.1441C103.859 101.019 101.008 101.008 99.2594 99.2594V99.2594C97.5102 97.5103 97.5275 94.686 99.1166 92.7904C104.609 86.2381 108.384 78.3904 110.061 69.9579C112.031 60.0567 111.02 49.7938 107.157 40.467C103.294 31.1403 96.7514 23.1686 88.3575 17.56C79.9637 11.9514 70.0952 8.95784 60 8.95784C49.9048 8.95784 40.0364 11.9514 31.6425 17.56C23.2487 23.1686 16.7065 31.1403 12.8432 40.467C8.97993 49.7938 7.96912 60.0567 9.9386 69.9579C11.6159 78.3904 15.3908 86.2381 20.8835 92.7903C22.4726 94.686 22.4898 97.5103 20.7407 99.2594V99.2594Z" stroke="var(--stroke-0, white)" stroke-opacity="0.2" stroke-width="1.67832" mask="url(#path-1-inside-1_42_1113)"/>
<path d="M20.7407 99.2594C18.9916 101.008 16.1414 101.019 14.5276 99.1441C7.79497 91.3232 3.17601 81.8762 1.15291 71.7054C-1.1622 60.0666 0.0259972 48.0026 4.56726 37.039C9.10851 26.0755 16.7989 16.7047 26.6658 10.1119C36.5328 3.51897 48.1331 2.84012e-05 60 2.85427e-05C71.8669 2.86843e-05 83.4673 3.51897 93.3342 10.1119C103.201 16.7047 110.892 26.0755 115.433 37.039C119.974 48.0026 121.162 60.0666 118.847 71.7054C116.824 81.8762 112.205 91.3232 105.472 99.1441C103.859 101.019 101.008 101.008 99.2594 99.2594V99.2594C97.5102 97.5103 97.5275 94.686 99.1166 92.7904C104.609 86.2381 108.384 78.3904 110.061 69.9579C112.031 60.0567 111.02 49.7938 107.157 40.467C103.294 31.1403 96.7514 23.1686 88.3575 17.56C79.9637 11.9514 70.0952 8.95784 60 8.95784C49.9048 8.95784 40.0364 11.9514 31.6425 17.56C23.2487 23.1686 16.7065 31.1403 12.8432 40.467C8.97993 49.7938 7.96912 60.0567 9.9386 69.9579C11.6159 78.3904 15.3908 86.2381 20.8835 92.7903C22.4726 94.686 22.4898 97.5103 20.7407 99.2594V99.2594Z" stroke="var(--stroke-1, #39E6C9)" stroke-opacity="0.2" style="mix-blend-mode:soft-light" stroke-width="1.67832" mask="url(#path-1-inside-1_42_1113)"/>
</g>
<g id="Ellipse 7">
<path d="M20.7407 99.2594C18.9916 101.008 16.1413 101.019 14.5275 99.1441C8.27059 91.8756 3.83227 83.1948 1.61327 73.8198C-0.950448 62.9884 -0.450716 51.6574 3.05658 41.0938C6.56388 30.5302 12.9405 21.1504 21.4734 14.0033C30.0062 6.85623 40.359 2.22356 51.374 0.623338C62.389 -0.976884 73.632 0.518431 83.8458 4.94208C94.0597 9.36573 102.842 16.5433 109.21 25.6723C115.578 34.8012 119.281 45.5216 119.906 56.6347C120.446 66.2536 118.661 75.8385 114.731 84.5868C113.717 86.8432 110.982 87.6444 108.808 86.4653V86.4653C106.633 85.2862 105.846 82.5739 106.83 80.3044C109.985 73.0282 111.409 65.0963 110.962 57.1371C110.431 47.6832 107.28 38.5633 101.863 30.7973C96.4455 23.0313 88.9747 16.9253 80.2857 13.1621C71.5968 9.39884 62.0323 8.12678 52.6618 9.48809C43.2913 10.8494 34.4842 14.7904 27.2253 20.8705C19.9663 26.9506 14.5417 34.93 11.5581 43.9165C8.57439 52.903 8.14926 62.5423 10.3302 71.7566C12.1664 79.514 15.7887 86.7127 20.8835 92.7904C22.4727 94.6861 22.4898 97.5103 20.7407 99.2594V99.2594Z" fill="var(--fill-0, #39E6C9)"/>
<path d="M20.7407 99.2594C18.9916 101.008 16.1413 101.019 14.5275 99.1441C8.27059 91.8756 3.83227 83.1948 1.61327 73.8198C-0.950448 62.9884 -0.450716 51.6574 3.05658 41.0938C6.56388 30.5302 12.9405 21.1504 21.4734 14.0033C30.0062 6.85623 40.359 2.22356 51.374 0.623338C62.389 -0.976884 73.632 0.518431 83.8458 4.94208C94.0597 9.36573 102.842 16.5433 109.21 25.6723C115.578 34.8012 119.281 45.5216 119.906 56.6347C120.446 66.2536 118.661 75.8385 114.731 84.5868C113.717 86.8432 110.982 87.6444 108.808 86.4653V86.4653C106.633 85.2862 105.846 82.5739 106.83 80.3044C109.985 73.0282 111.409 65.0963 110.962 57.1371C110.431 47.6832 107.28 38.5633 101.863 30.7973C96.4455 23.0313 88.9747 16.9253 80.2857 13.1621C71.5968 9.39884 62.0323 8.12678 52.6618 9.48809C43.2913 10.8494 34.4842 14.7904 27.2253 20.8705C19.9663 26.9506 14.5417 34.93 11.5581 43.9165C8.57439 52.903 8.14926 62.5423 10.3302 71.7566C12.1664 79.514 15.7887 86.7127 20.8835 92.7904C22.4727 94.6861 22.4898 97.5103 20.7407 99.2594V99.2594Z" fill="url(#paint1_linear_42_1113)"/>
</g>
</g>
<defs>
<linearGradient id="paint0_linear_42_1113" x1="120" y1="60" x2="2.70255e-05" y2="60" gradientUnits="userSpaceOnUse">
<stop stop-color="#39E6C9" stop-opacity="0.1"/>
<stop offset="1" stop-color="#39E6C9" stop-opacity="0.5"/>
</linearGradient>
<linearGradient id="paint1_linear_42_1113" x1="13" y1="105" x2="157.5" y2="33.5" gradientUnits="userSpaceOnUse">
<stop stop-color="#FBBF24"/>
<stop offset="0.306083" stop-color="#39E6C9"/>
<stop offset="1" stop-color="#39E6C9" stop-opacity="0"/>
</linearGradient>
</defs>
</svg>
