<svg preserveAspectRatio="none" width="100%" height="100%" overflow="visible" style="display: block;" viewBox="0 0 18 16" fill="none" xmlns="http://www.w3.org/2000/svg">
<g id="Icon">
<path id="Vector" d="M10.3333 2.6653V9.69197C10.8417 9.98548 11.239 10.4385 11.4637 10.9809C11.6883 11.5232 11.7277 12.1245 11.5758 12.6916C11.4239 13.2586 11.0891 13.7596 10.6234 14.117C10.1576 14.4743 9.58702 14.668 9 14.668C8.41298 14.668 7.84235 14.4743 7.37664 14.117C6.91092 13.7596 6.57613 13.2586 6.4242 12.6916C6.27226 12.1245 6.31168 11.5232 6.53632 10.9809C6.76097 10.4385 7.15829 9.98548 7.66667 9.69197V2.6653C7.66667 2.31168 7.80714 1.97254 8.05719 1.72249C8.30724 1.47244 8.64638 1.33197 9 1.33197C9.35362 1.33197 9.69276 1.47244 9.94281 1.72249C10.1929 1.97254 10.3333 2.31168 10.3333 2.6653Z" stroke="var(--stroke-0, #39E6C9)" stroke-width="1.33333" stroke-linecap="round" stroke-linejoin="round"/>
</g>
</svg>
