<svg preserveAspectRatio="none" width="100%" height="100%" overflow="visible" style="display: block;" viewBox="0 0 765.71 27.5071" fill="none" xmlns="http://www.w3.org/2000/svg">
<g id="blue">
<path id="Line 3" d="M765.324 14.4643L753.961 19.0317C752.636 19.5642 751.13 19.3728 749.98 18.5256L740.78 11.7454C739.326 10.6743 737.345 10.6743 735.891 11.7454L727.057 18.256C725.716 19.2442 723.912 19.3277 722.485 18.4676L713.07 12.7907C711.983 12.1354 710.655 12.0175 709.47 12.4713L700.417 15.9369C699.84 16.1577 699.221 16.246 698.605 16.1952L678.305 14.5214C677.847 14.4836 677.386 14.5228 676.94 14.6374L657.682 19.5916C656.929 19.7855 656.136 19.762 655.395 19.5238L640.992 14.8923C640.129 14.6148 639.199 14.6297 638.345 14.9347L634.601 16.2724L628.557 19.152C627.567 19.6234 626.43 19.6811 625.398 19.3123L612.982 14.8757C612.23 14.6072 611.417 14.5628 610.641 14.7477L604.711 16.1602C604.398 16.2347 604.077 16.2724 603.756 16.2724H588.727C588.388 16.2724 588.049 16.3144 587.72 16.3975L574.374 19.7633C574.045 19.8464 573.707 19.8884 573.367 19.8884H560.384H545.64C545.35 19.8884 545.061 19.9191 544.777 19.98L532.553 22.6005L523.665 24.1883C522.862 24.3319 522.034 24.2335 521.286 23.9057L504.165 16.3979C503.974 16.3143 503.778 16.2453 503.577 16.1915L487.439 11.8669C487.155 11.7907 486.863 11.7452 486.569 11.7312L450.537 10.0146C449.582 9.96911 448.641 10.2573 447.875 10.8299L428.697 25.1645C427.172 26.3038 425.066 26.2509 423.601 25.0364L396.181 2.30777C394.588 0.987474 392.263 1.05314 390.748 2.46123L381.744 10.8258C381.096 11.4275 380.272 11.8049 379.394 11.9023L356.289 14.4643L333.518 19.8884L318.042 24.2538C317.678 24.3565 317.302 24.4085 316.924 24.4085H263.518L188.458 27.1206H157.253L137.012 24.4085H128.579H126.777C125.765 24.4085 124.788 24.0357 124.033 23.3612L121.317 20.9358C120.562 20.2613 119.585 19.8884 118.573 19.8884H115.928H109.782C109.383 19.8884 108.987 19.9461 108.606 20.0598L95.8586 23.8553C94.6818 24.2057 93.4099 24.0129 92.3898 23.3295L87.5033 20.0558C87.337 19.9444 87.1628 19.8452 86.9821 19.7591L80.2618 16.5575C79.8653 16.3686 79.4411 16.2444 79.0053 16.1894L65.8317 14.5281C65.4958 14.4857 65.1663 14.4021 64.8509 14.2792L48.0654 7.7364C47.2261 7.40928 46.3028 7.3662 45.4368 7.61375L34.6762 10.6896C34.308 10.7948 33.9284 10.8482 33.5454 10.8482C31.1331 10.8482 26.9307 10.8482 25.6875 10.8482C24.3381 10.8482 16.1293 14.4643 12.1935 16.2724L6.51419 18.4861C4.49061 19.2749 2.20225 18.3573 1.28414 16.389L0.386342 14.4643" stroke="var(--stroke-0, #2B66F6)" stroke-width="0.7725" stroke-linecap="round" stroke-linejoin="round"/>
</g>
</svg>
