<svg preserveAspectRatio="none" width="100%" height="100%" overflow="visible" style="display: block;" viewBox="0 0 765.71 41.4324" fill="none" xmlns="http://www.w3.org/2000/svg">
<g id="green">
<path id="Line 3" d="M765.324 22.0715L754.735 28.4528C753.047 29.4698 750.876 29.1496 749.554 27.6888L741.39 18.6697C739.755 16.8627 736.917 16.8627 735.281 18.6697L727.605 27.1509C726.079 28.8371 723.475 28.9676 721.787 27.4425L713.567 20.0116C712.244 18.8153 710.301 18.6066 708.753 19.4947L700.733 24.098C699.959 24.5421 699.062 24.723 698.176 24.6136L678.638 22.1982C677.965 22.1151 677.282 22.1992 676.65 22.4431L658.193 29.5615C657.131 29.9711 655.947 29.9231 654.922 29.4287L641.549 22.9816C640.363 22.4097 638.975 22.4393 637.814 23.061L634.601 24.7822L629.094 28.7155C627.818 29.6267 626.136 29.7349 624.754 28.9946L613.441 22.9343C612.415 22.3849 611.205 22.2947 610.11 22.686L604.912 24.5422C604.467 24.701 603.998 24.7822 603.526 24.7822H588.969C588.471 24.7822 587.977 24.8724 587.511 25.0485L574.583 29.9372C574.117 30.1133 573.623 30.2035 573.125 30.2035H560.384H545.85C545.422 30.2035 544.996 30.2702 544.589 30.4012L532.553 34.2695L524.218 36.5021C523.082 36.8062 521.871 36.6108 520.889 35.965L504.223 25.0088C503.994 24.8581 503.75 24.7307 503.496 24.6284L487.61 18.2461C487.213 18.0867 486.794 17.99 486.368 17.9596L450.166 15.3739C449.441 15.3221 448.743 15.0798 448.143 14.6714L428.18 1.09916C427.497 0.634636 426.69 0.38625 425.864 0.38625H395.511C394.184 0.38625 392.938 1.02541 392.164 2.10334L381.739 16.6233C381.103 17.5085 380.143 18.1059 379.068 18.2846L356.652 22.0112C356.41 22.0513 356.173 22.113 355.942 22.1954L333.518 30.2035L318.263 36.6548C317.755 36.8695 317.21 36.9802 316.658 36.9802H263.518L188.458 41.0462H157.663C157.391 41.0462 157.119 41.0192 156.852 40.9655L137.414 37.0609C137.147 37.0072 136.875 36.9802 136.603 36.9802H128.579H127.271C125.971 36.9802 124.747 36.3668 123.969 35.3252L121.381 31.8585C120.603 30.817 119.379 30.2035 118.08 30.2035H115.928H110.059C109.48 30.2035 108.908 30.3255 108.38 30.5614L96.595 35.822C95.033 36.5193 93.2027 36.1789 91.9959 34.9667L87.4974 30.4484C87.3351 30.2855 87.1595 30.1363 86.9723 30.0027L80.4012 25.3093C79.915 24.9621 79.3591 24.7247 78.772 24.6137L66.025 22.2037C65.5623 22.1163 65.1181 21.9501 64.7116 21.7126L48.5646 12.2766C47.4369 11.6176 46.0636 11.5324 44.863 12.0469L34.8984 16.3171C34.3856 16.5369 33.8349 16.6502 33.2769 16.6502C30.833 16.6502 26.8858 16.6502 25.6875 16.6502C24.3381 16.6502 16.1293 22.0715 12.1935 24.7822L7.3899 27.5894C5.10174 28.9265 2.16453 27.7868 1.37719 25.2562L0.386353 22.0715" stroke="var(--stroke-0, #00DF80)" stroke-width="0.7725" stroke-linecap="round" stroke-linejoin="round"/>
</g>
</svg>
