<svg preserveAspectRatio="none" width="100%" height="100%" overflow="visible" style="display: block;" viewBox="0 0 765.71 9.66704" fill="none" xmlns="http://www.w3.org/2000/svg">
<g id="purple">
<path id="Line 3" d="M765.323 5.04896L752.605 6.75841C752.093 6.82725 751.572 6.79911 751.07 6.67547L739.321 3.78048C738.674 3.62094 737.997 3.62094 737.35 3.78048L725.737 6.64189C725.148 6.78722 724.533 6.80033 723.937 6.68028L712.012 4.27615C711.572 4.18741 711.121 4.17122 710.675 4.22824L699.858 5.61291C699.647 5.63993 699.434 5.65056 699.221 5.64469L677.613 5.04896L656.926 6.82842C656.662 6.85115 656.396 6.84832 656.132 6.81997L640.126 5.09895C639.817 5.06573 639.505 5.06756 639.197 5.10443L634.601 5.6535L627.578 6.77229C627.201 6.8322 626.819 6.83967 626.441 6.79449L612.237 5.0976C611.966 5.06525 611.693 5.05986 611.421 5.08151L604.24 5.6535H588.216L573.878 6.86259H560.384H545.204L532.553 7.7694L522.856 8.34865C522.575 8.36547 522.292 8.35332 522.013 8.31239L503.879 5.6535L487.011 4.14214L449.6 3.5462C449.241 3.54049 448.883 3.58164 448.535 3.66862L427.151 9.01287C426.461 9.18541 425.738 9.1762 425.052 8.98614L394.564 0.535925C393.802 0.32484 392.996 0.337257 392.241 0.571694L381.269 3.9798C380.922 4.08755 380.563 4.14896 380.2 4.16242L356.289 5.04896L333.518 6.86259L317.494 8.37395H263.518L188.458 9.28076H157.253L137.012 8.37395H128.579H125.807C125.408 8.37395 125.011 8.3159 124.628 8.20163L120.722 7.03491C120.339 6.92064 119.942 6.86259 119.543 6.86259H115.928H109.181L94.6612 8.30816C94.2235 8.35174 93.7817 8.32494 93.3524 8.2288L87.2535 6.86259L79.6631 5.6535L65.3258 5.04896L47.233 2.69091C46.9264 2.65095 46.6163 2.64563 46.3085 2.67504L34.1211 3.83987C31.8721 3.83987 27.0368 3.83987 25.6874 3.83987C24.338 3.83987 16.1292 5.04896 12.1935 5.6535L4.52813 6.65253C3.49248 6.78751 2.44421 6.52412 1.59536 5.91565L0.386279 5.04896" stroke="var(--stroke-0, #95A4FC)" stroke-width="0.7725" stroke-linecap="round" stroke-linejoin="round"/>
</g>
</svg>
