<svg preserveAspectRatio="none" width="100%" height="100%" overflow="visible" style="display: block;" viewBox="0 0 767.396 63.1849" fill="none" xmlns="http://www.w3.org/2000/svg">
<g id="red">
<path id="Line 3" d="M767.01 13.9224L757.765 25.3685C755.826 27.7691 752.034 27.2647 750.79 24.4408L743.793 8.5581C742.348 5.27949 737.696 5.27949 736.252 8.55811L729.928 22.9121C728.545 26.0511 724.156 26.2244 722.53 23.2044L715.898 10.8867C714.522 8.33117 711.005 7.96159 709.128 10.1752L702.891 17.5298C701.873 18.7302 700.26 19.2457 698.734 18.8583L681.275 14.4241C680.03 14.1079 678.709 14.3905 677.702 15.1882L661.078 28.3608C659.444 29.6554 657.101 29.5257 655.62 28.0588L644.404 16.9493C642.738 15.2991 640.032 15.3703 638.455 17.1058L636.288 19.4914L631.639 26.3132C630.139 28.5142 626.976 28.735 625.185 26.7637L616.012 16.6683C614.593 15.1075 612.226 14.8696 610.525 16.1172L607.014 18.6932C606.307 19.2118 605.454 19.4914 604.577 19.4914H591.315C590.399 19.4914 589.51 19.7962 588.787 20.3578L576.68 29.7629C575.957 30.3245 575.068 30.6293 574.153 30.6293H562.071H548.128C547.321 30.6293 546.531 30.8664 545.858 31.3112L534.24 38.9828L524.119 44.5517L500.107 57.2318C499.811 57.3882 499.497 57.5079 499.172 57.5882L478.585 62.6783C478.024 62.8169 477.44 62.8361 476.872 62.7345L447.373 57.4672L405.591 49.4098C405.334 49.3602 405.072 49.3352 404.811 49.3352H364.505C364.09 49.3352 363.678 49.3979 363.281 49.5212L339.658 56.8688C338.445 57.2464 337.124 57.0424 336.081 56.3162L320.241 45.2903C319.551 44.8095 318.729 44.5517 317.888 44.5517H265.205L190.145 52.9052H159.757C159.217 52.9052 158.683 52.7993 158.185 52.5936L139.454 44.8633C138.956 44.6576 138.421 44.5517 137.882 44.5517H130.265H129.778C128.045 44.5517 126.498 43.4676 125.906 41.8391L122.818 33.3419C122.226 31.7134 120.678 30.6293 118.945 30.6293H117.615H110.868H91.1182C89.7555 30.6293 88.481 29.9555 87.7136 28.8295L82.0702 20.5485C81.601 19.86 80.934 19.3299 80.1573 19.0282L67.0125 13.9224C44.6043 5.92423 21.3149 31.188 0.386319 19.4914" stroke="var(--stroke-0, #F24D85)" stroke-width="0.7725" stroke-linecap="round" stroke-linejoin="round"/>
</g>
</svg>
