<svg preserveAspectRatio="none" width="100%" height="100%" overflow="visible" style="display: block;" viewBox="0 0 765.71 5.28305" fill="none" xmlns="http://www.w3.org/2000/svg">
<g id="yellow">
<path id="Line 3" d="M765.324 2.7711L752.222 3.65559C751.961 3.67323 751.699 3.66592 751.439 3.63375L738.842 2.07457C738.506 2.03297 738.166 2.03297 737.83 2.07457L725.302 3.62518C724.996 3.66302 724.687 3.66645 724.381 3.63541L711.687 2.34995C711.461 2.32709 711.234 2.32292 711.008 2.33748L699.541 3.07477L677.613 2.7711L656.529 3.68211L639.661 2.7711L634.601 3.07477L627.011 3.68211L611.83 2.7711L604.24 3.07477H588.216L573.878 3.68211H560.384H545.204L532.553 4.13762L522.433 4.44129L503.879 3.07477L487.011 2.3156L449.06 2.01193L426.639 4.82651C426.28 4.87161 425.917 4.86916 425.558 4.81924L393.999 0.425607C393.6 0.37 393.195 0.373335 392.796 0.435503L380.747 2.3156L356.289 2.7711L333.518 3.68211L317.494 4.44129H263.518L188.458 4.89679H157.253L137.012 4.44129H128.579H125.513C125.308 4.44129 125.104 4.42605 124.901 4.39569L120.449 3.72771C120.247 3.69736 120.042 3.68211 119.838 3.68211H115.928H109.181L94.3346 4.42458C94.1122 4.4357 93.8893 4.42878 93.6681 4.40389L87.2535 3.68211L79.6632 3.07477L65.3259 2.7711L46.7717 1.55642L34.1212 2.16376C31.8722 2.16376 27.0369 2.16376 25.6875 2.16376C24.3381 2.16376 16.1293 2.7711 12.1935 3.07477L3.77339 3.62601C3.20818 3.66302 2.64141 3.58308 2.10849 3.39119L0.386355 2.7711" stroke="var(--stroke-0, #FFCF5F)" stroke-width="0.7725" stroke-linecap="round" stroke-linejoin="round"/>
</g>
</svg>
