<svg preserveAspectRatio="none" width="100%" height="100%" overflow="visible" style="display: block;" viewBox="0 0 16 16" fill="none" xmlns="http://www.w3.org/2000/svg">
<g id="Icon" clip-path="url(#clip0_42_1132)">
<path id="Vector" d="M9.79893 4.20091C9.67677 4.32553 9.60835 4.49307 9.60835 4.66758C9.60835 4.84208 9.67677 5.00962 9.79893 5.13424L10.8656 6.20091C10.9902 6.32306 11.1578 6.39148 11.3323 6.39148C11.5068 6.39148 11.6743 6.32306 11.7989 6.20091L13.8696 4.13091C14.0829 3.91624 14.4449 3.98424 14.5249 4.27624C14.7263 5.00882 14.715 5.78362 14.4921 6.50997C14.2693 7.23632 13.8441 7.88418 13.2665 8.37773C12.6889 8.87129 11.9826 9.19013 11.2304 9.29695C10.4782 9.40377 9.71112 9.29415 9.01893 8.98091L3.74559 14.2542C3.48038 14.5194 3.1207 14.6683 2.74569 14.6682C2.37068 14.6682 2.01105 14.5191 1.74593 14.2539C1.4808 13.9887 1.33188 13.629 1.33195 13.254C1.33201 12.879 1.48104 12.5194 1.74626 12.2542L7.01959 6.98091C6.70635 6.28872 6.59673 5.52163 6.70355 4.76941C6.81037 4.01719 7.12921 3.31094 7.62277 2.73332C8.11632 2.15569 8.76418 1.73058 9.49053 1.50773C10.2169 1.28487 10.9917 1.27349 11.7243 1.47491C12.0163 1.55491 12.0843 1.91624 11.8703 2.13091L9.79893 4.20091Z" stroke="var(--stroke-0, #39E6C9)" stroke-width="1.33333" stroke-linecap="round" stroke-linejoin="round"/>
</g>
<defs>
<clipPath id="clip0_42_1132">
<rect width="16" height="16" fill="white"/>
</clipPath>
</defs>
</svg>
