<svg preserveAspectRatio="none" width="100%" height="100%" overflow="visible" style="display: block;" viewBox="0 0 17.2326 17.2326" fill="none" xmlns="http://www.w3.org/2000/svg">
<g id="Icon">
<path id="Vector" d="M15.6026 12.9244L9.85842 2.87208C9.73317 2.65107 9.55154 2.46724 9.33206 2.33935C9.11257 2.21146 8.86309 2.14407 8.60906 2.14407C8.35503 2.14407 8.10555 2.21146 7.88606 2.33935C7.66658 2.46724 7.48494 2.65107 7.35969 2.87208L1.61549 12.9244C1.48889 13.1437 1.42251 13.3925 1.42307 13.6457C1.42363 13.8989 1.49111 14.1474 1.61868 14.3661C1.74625 14.5848 1.92937 14.7659 2.14948 14.891C2.36959 15.0161 2.61887 15.0808 2.87204 15.0785H14.3604C14.6124 15.0782 14.8598 15.0117 15.078 14.8856C15.2961 14.7594 15.4771 14.5781 15.603 14.3598C15.7289 14.1416 15.7951 13.894 15.795 13.6421C15.795 13.3901 15.7286 13.1426 15.6026 12.9244Z" stroke="var(--stroke-0, #FE9A00)" stroke-width="1.43605" stroke-linecap="round" stroke-linejoin="round"/>
<path id="Vector_2" d="M8.61629 6.46222V9.33432" stroke="var(--stroke-0, #FE9A00)" stroke-width="1.43605" stroke-linecap="round" stroke-linejoin="round"/>
<path id="Vector_3" d="M8.61629 12.2064H8.62347" stroke="var(--stroke-0, #FE9A00)" stroke-width="1.43605" stroke-linecap="round" stroke-linejoin="round"/>
</g>
</svg>
