<svg preserveAspectRatio="none" width="100%" height="100%" overflow="visible" style="display: block;" viewBox="0 0 16 16" fill="none" xmlns="http://www.w3.org/2000/svg">
<g id="Icon">
<path id="Union" fill-rule="evenodd" clip-rule="evenodd" d="M8.00047 1C8.33429 1.00008 8.66207 1.08911 8.95145 1.25546L8.95238 1.25453L13.408 3.80075L13.4108 3.80168C13.7005 3.96909 13.9417 4.2103 14.1092 4.5C14.2765 4.78977 14.3652 5.11915 14.3655 5.45378V10.5471C14.3651 10.8816 14.2764 11.2104 14.1092 11.5C13.9417 11.7897 13.7006 12.0309 13.4108 12.1983L13.408 12.2002L8.95425 14.7436L8.95518 14.7445C8.66506 14.912 8.33545 14.9999 8.00047 15C7.66552 15 7.33587 14.9119 7.04575 14.7445L2.5929 12.2002L2.5901 12.1983C2.30042 12.031 2.05928 11.7896 1.89178 11.5C1.72449 11.2104 1.63493 10.8816 1.63446 10.5471V5.45378C1.6348 5.11899 1.72426 4.78986 1.89178 4.5C2.05934 4.21013 2.30016 3.9691 2.5901 3.80168L2.5929 3.80075L7.04855 1.25453C7.33819 1.0879 7.66628 1 8.00047 1ZM2.90896 10.5453L2.91456 10.6283C2.92551 10.7106 2.95201 10.7908 2.99381 10.8632C3.04911 10.9587 3.12885 11.0388 3.22409 11.0944L7.36368 13.4598V8.36734L2.90896 5.81087V10.5453ZM11.1872 6.9017C11.1704 6.9116 11.1544 6.92232 11.1369 6.93061L8.63725 8.36641V13.4598L12.7768 11.0944C12.8721 11.0387 12.9518 10.9588 13.0071 10.8632C13.0627 10.767 13.0917 10.6574 13.092 10.5462V5.809L11.1872 6.9017ZM3.55601 4.71444L7.99953 7.26438L9.58171 6.35535L5.13539 3.81193L3.55601 4.71444ZM8.00047 2.27357C7.88892 2.27357 7.77918 2.30273 7.68254 2.35842L7.67974 2.36028L6.41922 3.07912L10.8609 5.6216L12.4421 4.71444L8.32119 2.36028L8.31839 2.35842C8.22184 2.30274 8.11192 2.27366 8.00047 2.27357Z" fill="var(--fill-0, #39E6C9)"/>
</g>
</svg>
