<svg preserveAspectRatio="none" width="100%" height="100%" overflow="visible" style="display: block;" viewBox="0 0 20 21" fill="none" xmlns="http://www.w3.org/2000/svg">
<path id="Vector" d="M19.5689 16.7423L18.7291 16.2505C18.8722 15.8156 18.9688 15.3589 18.9688 14.875C18.9688 14.3911 18.8731 13.9344 18.7291 13.4995L19.5689 13.0078C19.981 12.7663 20.1224 12.2307 19.8844 11.8125C19.6465 11.3943 19.1197 11.2499 18.7067 11.4922L17.8677 11.984C17.2599 11.2893 16.4502 10.7809 15.5199 10.5893V9.62588C15.5199 9.14288 15.1336 8.75088 14.6577 8.75088C14.1817 8.75088 13.7955 9.14288 13.7955 9.62588V10.5893C12.8651 10.7818 12.0555 11.2901 11.4477 11.984L10.6087 11.4922C10.1949 11.2499 9.6689 11.3951 9.43093 11.8125C9.19296 12.2316 9.33436 12.7663 9.7465 13.0078L10.5863 13.4995C10.4432 13.9344 10.3466 14.3911 10.3466 14.875C10.3466 15.3589 10.4423 15.8156 10.5863 16.2505L9.7465 16.7423C9.33436 16.9838 9.19296 17.5193 9.43093 17.9375C9.67062 18.3592 10.2035 18.4966 10.6087 18.2577L11.4477 17.766C12.0555 18.4608 12.8651 18.9691 13.7955 19.1608V20.1241C13.7955 20.608 14.1817 20.9991 14.6577 20.9991C15.1336 20.9991 15.5199 20.608 15.5199 20.1241V19.1608C16.4502 18.9683 17.2599 18.4599 17.8677 17.766L18.7067 18.2577C19.1119 18.4966 19.6447 18.3592 19.8844 17.9375C20.1224 17.5184 19.981 16.9838 19.5689 16.7423ZM14.6577 17.5C13.2316 17.5 12.071 16.3223 12.071 14.875C12.071 13.4277 13.2316 12.25 14.6577 12.25C16.0838 12.25 17.2443 13.4277 17.2443 14.875C17.2443 16.3223 16.0838 17.5 14.6577 17.5ZM8.54802 19.1966C8.15398 19.2307 7.74616 19.25 7.32884 19.25C3.70236 19.25 1.72443 17.9699 1.72443 17.3127V15.2758C2.95396 16.051 4.75513 16.5515 6.87101 16.618H6.89774C7.36161 16.618 7.74443 16.2435 7.75909 15.7692C7.77375 15.2862 7.39955 14.8829 6.9236 14.868C3.70236 14.7683 1.72357 13.531 1.72357 12.6875V10.9008C2.95309 11.676 4.75426 12.1765 6.87014 12.243H6.89687C7.36075 12.243 7.74357 11.8685 7.75823 11.3943C7.77289 10.9113 7.39868 10.5079 6.92274 10.493C3.7015 10.3924 1.72271 9.15512 1.72271 8.31162V6.52575C3.04621 7.3605 5.02931 7.87412 7.32712 7.87412C9.62493 7.87412 11.608 7.35963 12.9315 6.52575V6.56163C12.9315 7.04463 13.3178 7.43662 13.7937 7.43662C14.2697 7.43662 14.656 7.04463 14.656 6.56163V3.93663C14.6577 1.69313 11.5071 0 7.32884 0C3.15054 0 0 1.69312 0 3.9375V17.3127C0 19.7339 3.68684 21 7.32884 21C7.78582 21 8.24624 20.9807 8.69632 20.9405C9.17054 20.8985 9.52232 20.475 9.48094 19.9938C9.43955 19.5116 9.02396 19.145 8.54716 19.1975L8.54802 19.1966ZM7.32884 1.75C10.7501 1.75 12.9333 3.045 12.9333 3.9375C12.9333 4.83 10.7501 6.125 7.32884 6.125C3.90757 6.125 1.72443 4.83 1.72443 3.9375C1.72443 3.045 3.90757 1.75 7.32884 1.75Z" fill="var(--fill-0, #2B66F6)"/>
</svg>
