<svg preserveAspectRatio="none" width="100%" height="100%" overflow="visible" style="display: block;" viewBox="0 0 18.8571 18.8571" fill="none" xmlns="http://www.w3.org/2000/svg">
<path id="Earthquake" d="M6.94356 0.00361785C7.11586 0.0175317 7.28211 0.0733577 7.42835 0.165517L7.4998 0.214358L7.56764 0.26953C7.69684 0.383937 7.79636 0.528001 7.85797 0.689201L7.88601 0.771507L7.88782 0.779647L11.9995 15.4102L13.3951 10.4484L13.4593 10.2494C13.6292 9.79092 13.9272 9.38928 14.3195 9.09256C14.7671 8.75395 15.313 8.5708 15.8742 8.57159H17.9997C18.4731 8.57159 18.8571 8.95565 18.8571 9.42902C18.857 9.90224 18.473 10.2855 17.9997 10.2855H15.8724C15.6851 10.2851 15.5026 10.3462 15.3533 10.4592C15.2039 10.5722 15.0954 10.7311 15.0448 10.9114V10.9123L13.0306 18.0775L13.0288 18.0856C12.9639 18.3082 12.828 18.5037 12.6426 18.6428C12.4573 18.7817 12.232 18.8571 12.0004 18.8571C11.7686 18.8571 11.5428 18.7818 11.3573 18.6428C11.1719 18.5037 11.036 18.3082 10.9711 18.0856L10.9693 18.0775L6.85673 3.446L5.46205 8.40789C5.31095 8.94675 4.98858 9.42219 4.54312 9.76096C4.0976 10.0997 3.55346 10.2839 2.99377 10.2855H0.857431C0.384173 10.2855 0.000192248 9.90224 0 9.42902C0 8.95565 0.384054 8.57159 0.857431 8.57159H2.98925C3.17577 8.57105 3.35722 8.50991 3.5057 8.39703C3.6542 8.28411 3.76194 8.12534 3.81231 7.9457L5.82655 0.779647L5.82836 0.771507C5.89328 0.548996 6.02913 0.353431 6.21456 0.214358L6.28602 0.165517C6.45658 0.0579901 6.65484 0 6.85764 0L6.94356 0.00361785Z" fill="var(--fill-0, #94A3B8)"/>
</svg>
