<svg preserveAspectRatio="none" width="100%" height="100%" overflow="visible" style="display: block;" viewBox="0 0 22 22" fill="none" xmlns="http://www.w3.org/2000/svg">
<g id="Button - Icon">
<path id="Vector" d="M20.4224 15.664H19.6073V13.5731C19.6073 13.1547 19.4411 12.7535 19.1453 12.4576C18.8494 12.1618 18.4482 11.9955 18.0298 11.9955H11.5259V7.83702H12.341C12.7594 7.83702 13.1606 7.67081 13.4565 7.37496C13.7523 7.0791 13.9186 6.67783 13.9186 6.25943V3.57753C13.9186 3.15913 13.7523 2.75786 13.4565 2.46201C13.1606 2.16615 12.7594 1.99994 12.341 1.99994H9.65907C9.24066 1.99994 8.8394 2.16615 8.54354 2.46201C8.24769 2.75786 8.08148 3.15913 8.08148 3.57753V6.25943C8.08148 6.67783 8.24769 7.0791 8.54354 7.37496C8.8394 7.67081 9.24066 7.83702 9.65907 7.83702H10.4742V11.9955H3.97028C3.55188 11.9955 3.15061 12.1618 2.85476 12.4576C2.5589 12.7535 2.39269 13.1547 2.39269 13.5731V15.664H1.5776C1.1592 15.664 0.757936 15.8302 0.46208 16.126C0.166225 16.4219 1.52588e-05 16.8232 1.52588e-05 17.2416V19.9235C1.52588e-05 20.3419 0.166225 20.7431 0.46208 21.039C0.757936 21.3348 1.1592 21.501 1.5776 21.501H4.25951C4.67791 21.501 5.07917 21.3348 5.37503 21.039C5.67088 20.7431 5.83709 20.3419 5.83709 19.9235V17.2416C5.83709 16.8232 5.67088 16.4219 5.37503 16.126C5.07917 15.8302 4.67791 15.664 4.25951 15.664H3.44442V13.5731C3.44442 13.4337 3.49982 13.2999 3.59844 13.2013C3.69706 13.1027 3.83081 13.0473 3.97028 13.0473H10.4742V15.664H9.65907C9.24066 15.664 8.8394 15.8302 8.54354 16.126C8.24769 16.4219 8.08148 16.8232 8.08148 17.2416V19.9235C8.08148 20.3419 8.24769 20.7431 8.54354 21.039C8.8394 21.3348 9.24066 21.501 9.65907 21.501H12.341C12.7594 21.501 13.1606 21.3348 13.4565 21.039C13.7523 20.7431 13.9186 20.3419 13.9186 19.9235V17.2416C13.9186 16.8232 13.7523 16.4219 13.4565 16.126C13.1606 15.8302 12.7594 15.664 12.341 15.664H11.5259V13.0473H18.0298C18.1692 13.0473 18.303 13.1027 18.4016 13.2013C18.5002 13.2999 18.5556 13.4337 18.5556 13.5731V15.664H17.7405C17.3221 15.664 16.9209 15.8302 16.625 16.126C16.3291 16.4219 16.1629 16.8232 16.1629 17.2416V19.9235C16.1629 20.3419 16.3291 20.7431 16.625 21.039C16.9209 21.3348 17.3221 21.501 17.7405 21.501H20.4224C20.8408 21.501 21.2421 21.3348 21.538 21.039C21.8338 20.7431 22 20.3419 22 19.9235V17.2416C22 16.8232 21.8338 16.4219 21.538 16.126C21.2421 15.8302 20.8408 15.664 20.4224 15.664ZM9.1332 6.25943V3.57753C9.1332 3.43806 9.18861 3.30431 9.28722 3.20569C9.38584 3.10707 9.5196 3.05167 9.65907 3.05167H12.341C12.4804 3.05167 12.6142 3.10707 12.7128 3.20569C12.8114 3.30431 12.8668 3.43806 12.8668 3.57753V6.25943C12.8668 6.3989 12.8114 6.53265 12.7128 6.63127C12.6142 6.72989 12.4804 6.78529 12.341 6.78529H9.65907C9.5196 6.78529 9.38584 6.72989 9.28722 6.63127C9.18861 6.53265 9.1332 6.3989 9.1332 6.25943ZM4.78537 17.2416V19.9235C4.78537 20.0629 4.72996 20.1967 4.63135 20.2953C4.53273 20.3939 4.39897 20.4493 4.25951 20.4493H1.5776C1.43814 20.4493 1.30438 20.3939 1.20576 20.2953C1.10714 20.1967 1.05174 20.0629 1.05174 19.9235V17.2416C1.05174 17.1021 1.10714 16.9683 1.20576 16.8697C1.30438 16.7711 1.43814 16.7157 1.5776 16.7157H4.25951C4.39897 16.7157 4.53273 16.7711 4.63135 16.8697C4.72996 16.9683 4.78537 17.1021 4.78537 17.2416ZM12.8668 17.2416V19.9235C12.8668 20.0629 12.8114 20.1967 12.7128 20.2953C12.6142 20.3939 12.4804 20.4493 12.341 20.4493H9.65907C9.5196 20.4493 9.38584 20.3939 9.28722 20.2953C9.18861 20.1967 9.1332 20.0629 9.1332 19.9235V17.2416C9.1332 17.1021 9.18861 16.9683 9.28722 16.8697C9.38584 16.7711 9.5196 16.7157 9.65907 16.7157H12.341C12.4804 16.7157 12.6142 16.7711 12.7128 16.8697C12.8114 16.9683 12.8668 17.1021 12.8668 17.2416ZM20.9483 19.9235C20.9483 20.0629 20.8929 20.1967 20.7943 20.2953C20.6957 20.3939 20.5619 20.4493 20.4224 20.4493H17.7405C17.6011 20.4493 17.4673 20.3939 17.3687 20.2953C17.2701 20.1967 17.2147 20.0629 17.2147 19.9235V17.2416C17.2147 17.1021 17.2701 16.9683 17.3687 16.8697C17.4673 16.7711 17.6011 16.7157 17.7405 16.7157H20.4224C20.5619 16.7157 20.6957 16.7711 20.7943 16.8697C20.8929 16.9683 20.9483 17.1021 20.9483 17.2416V19.9235Z" fill="var(--fill-0, #1E202C)"/>
</g>
</svg>
