<svg preserveAspectRatio="none" width="100%" height="100%" overflow="visible" style="display: block;" viewBox="0 0 19.854 23.5476" fill="none" xmlns="http://www.w3.org/2000/svg">
<path id="Vector" d="M3.66729 2.14069V0H7.08166V2.14069H10.749V4.40731H9.10501C9.86376 5.28877 10.3696 6.42208 10.3696 7.68131C10.3696 10.5775 8.09334 12.8442 5.31125 12.8442C2.40271 12.8442 0.252917 10.4516 0.252917 7.68131C0.252917 6.42208 0.758746 5.28877 1.39104 4.40731H0V2.14069H3.54083H3.66729ZM5.43772 4.53323C4.42605 4.53323 3.66729 5.91838 3.66729 7.68131C3.66729 9.31831 4.42605 10.7035 5.43772 10.7035C6.44938 10.7035 7.20813 9.31831 7.20813 7.68131C7.20813 5.91838 6.57584 4.53323 5.43772 4.53323ZM11.8871 12.4664V0.503692H15.0485V5.16284H16.6925V0.503692H19.854V17.8811C19.854 21.1551 16.6925 23.5476 13.6575 23.5476C10.2431 23.5476 7.33459 21.281 7.33459 17.8811C7.33459 15.2367 9.23147 13.096 11.7606 12.4664H11.8871ZM13.6575 14.4811C12.2665 14.4811 10.749 15.7404 10.749 18.007C10.749 20.2736 12.2665 21.4069 13.6575 21.4069C15.0486 21.4069 16.566 20.1477 16.566 18.007C16.566 15.7404 15.0486 14.4811 13.6575 14.4811ZM15.175 7.42946V12.3405C15.175 12.3405 16.3131 12.7182 16.819 12.9701V7.42946H15.175Z" fill="var(--fill-0, #009476)"/>
</svg>
