<svg preserveAspectRatio="none" width="100%" height="100%" overflow="visible" style="display: block;" viewBox="0 0 18.5072 18.5072" fill="none" xmlns="http://www.w3.org/2000/svg">
<path id="logout" d="M18.5072 9.25361C18.5072 9.67927 18.1617 10.0247 17.7361 10.0247H6.91244L9.41323 12.5255C9.71474 12.827 9.71474 13.3144 9.41323 13.6159C9.26286 13.7663 9.06545 13.8419 8.86804 13.8419C8.67063 13.8419 8.47322 13.7663 8.32285 13.6159L5.05093 10.344C4.44944 9.7425 4.44944 8.76471 5.05093 8.16322L8.32285 4.8913C8.62436 4.58979 9.11172 4.58979 9.41323 4.8913C9.71474 5.19282 9.71474 5.68017 9.41323 5.98169L6.91244 8.48247H17.7361C18.1617 8.48247 18.5072 8.82794 18.5072 9.25361ZM17.4384 11.6194C17.0405 11.4644 16.594 11.6611 16.4398 12.0574C15.2754 15.0387 12.4554 16.9649 9.25438 16.9649C5.00235 16.9649 1.54304 13.5056 1.54304 9.25361C1.54304 5.00157 5.00157 1.54227 9.25361 1.54227C12.4546 1.54227 15.2754 3.46856 16.439 6.44976C16.594 6.84613 17.039 7.04199 17.4377 6.88777C17.8348 6.73277 18.0307 6.28551 17.8757 5.88915C16.4791 2.31186 13.0946 0 9.25361 0C4.15101 0 0 4.15101 0 9.25361C0 14.3562 4.15101 18.5072 9.25361 18.5072C13.0946 18.5072 16.4791 16.1954 17.8764 12.6188C18.0314 12.2217 17.8356 11.7752 17.4384 11.6202V11.6194Z" fill="var(--fill-0, #C3C7CA)"/>
</svg>
