<svg preserveAspectRatio="none" width="100%" height="100%" overflow="visible" style="display: block;" viewBox="0 0 13.0062 18.6524" fill="none" xmlns="http://www.w3.org/2000/svg">
<path id="Vector" d="M9.77482 0.849981C7.75149 -0.283327 5.34878 -0.283327 3.32544 0.849981C0.163982 2.6129 -0.974143 6.64244 0.922733 9.91644C2.44023 12.309 4.59003 11.8053 5.09586 11.1757C5.85461 10.2942 5.60169 9.53867 5.09586 9.03498C4.33711 8.02759 4.21065 7.39798 4.21065 6.89429C4.21065 5.63506 5.22232 4.50175 6.61336 4.50175C7.24565 4.50175 8.0044 4.75359 8.38378 5.38321C9.01607 6.13875 9.01607 7.14613 9.01607 8.02759C8.76315 13.0645 6.73982 17.3459 6.61336 17.5977C6.61336 17.8496 6.36044 18.3533 6.73982 18.6051C7.1192 18.7311 7.49857 18.6051 7.87794 18.2274C8.76315 17.4718 10.66 15.2052 11.5452 12.9386C12.0511 11.6794 13.3157 8.53129 12.9363 5.38321C12.5569 2.99067 10.9129 1.4796 9.52191 0.724058L9.77482 0.849981Z" fill="var(--fill-0, #009476)"/>
</svg>
