<svg preserveAspectRatio="none" width="100%" height="100%" overflow="visible" style="display: block;" viewBox="0 0 18.5072 18.5072" fill="none" xmlns="http://www.w3.org/2000/svg">
<path id="user" d="M6.94049 9.25322C9.49228 9.25322 11.5675 7.17819 11.5675 4.62661C11.5675 2.07503 9.49228 0 6.94049 0C4.38871 0 2.3135 2.07503 2.3135 4.62661C2.3135 7.17819 4.38871 9.25322 6.94049 9.25322ZM6.94049 1.5422C8.64169 1.5422 10.0252 2.92556 10.0252 4.62661C10.0252 6.32766 8.64169 7.71102 6.94049 7.71102C5.2393 7.71102 3.85583 6.32766 3.85583 4.62661C3.85583 2.92556 5.2393 1.5422 6.94049 1.5422ZM8.29003 12.5073C7.85201 12.3947 7.39779 12.3376 6.94049 12.3376C3.96379 12.3376 1.54233 14.7589 1.54233 17.7353C1.54233 18.161 1.19685 18.5064 0.771166 18.5064C0.345482 18.5064 0 18.161 0 17.7353C0 13.9091 3.11397 10.7954 6.94049 10.7954C7.52812 10.7954 8.11189 10.8687 8.67562 11.0144C9.08819 11.1208 9.33573 11.5411 9.23008 11.9536C9.12443 12.3662 8.70569 12.6137 8.2908 12.508L8.29003 12.5073ZM17.8301 9.15992C16.9556 8.28549 15.4318 8.28549 14.5581 9.15992L9.38586 14.3317C8.80363 14.9139 8.48205 15.6888 8.48205 16.5131V17.7361C8.48205 18.1618 8.82754 18.5072 9.25322 18.5072H10.4763C11.3007 18.5072 12.0749 18.1857 12.6571 17.6035L17.8294 12.4317C18.2666 11.9945 18.5072 11.4138 18.5072 10.7954C18.5072 10.177 18.2666 9.59636 17.8301 9.15992ZM16.7389 11.3406L11.5659 16.5124C11.2752 16.8038 10.8881 16.9642 10.4755 16.9642H10.0236V16.5124C10.0236 16.1006 10.184 15.7135 10.4755 15.422L15.6485 10.2503C15.9392 9.95878 16.4474 9.95878 16.7389 10.2503C16.8847 10.3952 16.9649 10.5888 16.9649 10.7954C16.9649 11.0021 16.8847 11.1949 16.7389 11.3406Z" fill="var(--fill-0, #009178)"/>
</svg>
