<svg preserveAspectRatio="none" width="100%" height="100%" overflow="visible" style="display: block;" viewBox="0 0 21.3715 22.4143" fill="none" xmlns="http://www.w3.org/2000/svg">
<path id="Vector" d="M4.5525 2.39254V0H7.96688V2.39254H12.6458V4.65915H10.2431C11.3813 5.91838 12.0136 7.80723 12.0136 9.94792C12.0136 14.1034 9.61084 17.2515 6.32292 17.2515C2.90854 17.2515 0.505833 14.1034 0.505833 9.94792C0.505833 7.80723 1.13813 5.91838 2.27625 4.65915H0V2.39254H4.5525ZM6.19646 4.65915C4.80542 4.65915 3.79375 6.67392 3.79375 9.94792C3.79375 12.9701 4.80542 14.9848 6.19646 14.9848C7.58751 14.9848 8.59917 12.9701 8.59917 9.94792C8.59917 6.67392 7.58751 4.65915 6.19646 4.65915ZM18.21 9.06646V22.4143H14.9221V0H18.21V6.79984H21.3715V9.06646H18.21Z" fill="var(--fill-0, #009476)"/>
</svg>
