<svg preserveAspectRatio="none" width="100%" height="100%" overflow="visible" style="display: block;" viewBox="0 0 30.7111 5.53274" fill="none" xmlns="http://www.w3.org/2000/svg">
<path id="Vector" d="M30.3669 0.212496C30.3669 0.212496 29.7346 -0.165274 28.9759 0.086572C27.8377 0.338418 24.2969 0.968034 18.7327 1.21988C16.2036 1.21988 13.295 1.21988 10.5129 1.09396C8.23668 0.842111 3.81063 0.212495 2.79897 0.086572C2.29313 0.086572 1.02855 -0.0393506 0.522714 0.464342C-0.236036 1.09396 -0.109578 2.10134 0.522714 2.9828C0.522714 2.9828 1.53438 4.6198 4.06355 5.12349C7.60438 5.75311 13.1686 5.50126 14.939 5.37534C18.9856 4.99757 22.1471 4.36796 24.5498 3.73834C24.5498 3.73834 27.8377 2.85688 29.4817 1.8495C30.114 1.47173 30.9992 0.842111 30.6198 0.212496H30.3669Z" fill="var(--fill-0, #009476)"/>
</svg>
