<svg preserveAspectRatio="none" width="100%" height="100%" overflow="visible" style="display: block;" viewBox="0 0 18.5072 18.5072" fill="none" xmlns="http://www.w3.org/2000/svg">
<path id="setting" d="M9.91235 0C10.3919 0.000489936 10.8518 0.191255 11.1909 0.53036C11.53 0.869464 11.7207 1.32932 11.7212 1.80888V1.88846C11.7232 2.00323 11.7588 2.11513 11.8234 2.21004C11.8879 2.30486 11.9787 2.37892 12.0847 2.42292C12.1907 2.46692 12.3074 2.47904 12.4202 2.45778C12.533 2.43649 12.6373 2.38239 12.72 2.30274L12.7762 2.24695C13.1156 1.90828 13.5757 1.71782 14.0551 1.71782C14.5346 1.71786 14.9943 1.90832 15.3337 2.24695L16.266 3.17847C16.6043 3.51815 16.7943 3.97797 16.7943 4.4574C16.7943 4.9369 16.6044 5.39704 16.266 5.73674L16.2098 5.79294C16.1298 5.87278 16.0755 5.97455 16.0535 6.08539C16.0316 6.19635 16.0428 6.31162 16.0863 6.416C16.1277 6.52405 16.2009 6.61702 16.2959 6.68302C16.391 6.74904 16.5038 6.78496 16.6196 6.78598H16.6983C17.1779 6.78647 17.6377 6.97723 17.9769 7.31634C18.316 7.65544 18.5067 8.1153 18.5072 8.59486V9.91235C18.5067 10.3919 18.316 10.8518 17.9769 11.1909C17.6377 11.53 17.1779 11.7207 16.6983 11.7212H16.6196C16.5061 11.7217 16.3951 11.7559 16.3013 11.8197C16.2075 11.8834 16.1347 11.9737 16.0925 12.0789C16.0453 12.1845 16.0312 12.3019 16.0515 12.4157C16.0718 12.5295 16.1261 12.6348 16.2069 12.7176L16.2627 12.7737C16.6011 13.1134 16.7914 13.5732 16.7914 14.0527C16.7914 14.5322 16.6011 14.9923 16.2627 15.332L15.3308 16.2627C14.9914 16.6014 14.5314 16.7918 14.0519 16.7918C13.5724 16.7918 13.1124 16.6014 12.7729 16.2627L12.7167 16.2069C12.6341 16.1284 12.5306 16.0756 12.4185 16.0548C12.3064 16.0339 12.1904 16.046 12.0851 16.0896C11.9799 16.1332 11.8896 16.2063 11.825 16.3C11.7604 16.394 11.7243 16.5048 11.7212 16.6188V16.6983C11.7207 17.1779 11.53 17.6377 11.1909 17.9769C10.8518 18.316 10.3919 18.5067 9.91235 18.5072H8.59486C8.35692 18.5074 8.12112 18.4608 7.90125 18.3698C7.68135 18.2788 7.48133 18.1451 7.31306 17.9769C7.14486 17.8086 7.01149 17.6089 6.92052 17.3891C6.82953 17.1692 6.78255 16.9334 6.7827 16.6955V16.6159C6.78235 16.5026 6.7483 16.3918 6.68466 16.298C6.62106 16.2043 6.53093 16.1318 6.42584 16.0896C6.32027 16.0425 6.20288 16.0283 6.08909 16.0486C5.97525 16.069 5.86996 16.1229 5.7872 16.2037L5.731 16.2598C5.39166 16.5988 4.93168 16.7893 4.45207 16.7894C3.97237 16.7894 3.51211 16.5989 3.17272 16.2598L2.24121 15.3287C1.90287 14.9891 1.71292 14.5292 1.7129 14.0498C1.7129 13.5703 1.9028 13.1102 2.24121 12.7705L2.2974 12.7143C2.37737 12.6344 2.4317 12.5327 2.45368 12.4218C2.47565 12.3109 2.46444 12.1956 2.42087 12.0912C2.37947 11.9832 2.30631 11.8902 2.21127 11.8242C2.1162 11.7582 2.00338 11.7223 1.88764 11.7212H1.80888C1.32932 11.7207 0.869464 11.53 0.53036 11.1909C0.191255 10.8518 0.000489936 10.3919 0 9.91235V8.59486C0.000489936 8.1153 0.191255 7.65544 0.53036 7.31634C0.869464 6.97723 1.32932 6.78647 1.80888 6.78598H1.88764C2.00095 6.78559 2.11171 6.7515 2.20552 6.68795C2.29937 6.62432 2.37238 6.5339 2.41472 6.42871C2.46186 6.32314 2.47608 6.20578 2.45573 6.09196C2.43538 5.97811 2.38111 5.87319 2.30028 5.79048L2.24449 5.73428C1.90609 5.39458 1.71577 4.93443 1.71577 4.45494C1.71579 3.97546 1.9061 3.51569 2.24449 3.176L3.1797 2.24449C3.5191 1.90586 3.97879 1.71541 4.45822 1.71536C4.93771 1.71536 5.39772 1.90582 5.73715 2.24449L5.79048 2.30028C5.87313 2.37877 5.97661 2.43162 6.08868 2.45245C6.20078 2.47327 6.31679 2.46119 6.42215 2.41759C6.52733 2.374 6.61765 2.30095 6.6822 2.20717C6.74679 2.11324 6.78295 2.00241 6.78598 1.88846V1.80888C6.78647 1.32932 6.97723 0.869464 7.31634 0.53036C7.65544 0.191255 8.1153 0.000489936 8.59486 0H9.91235ZM8.59486 1.23381C8.44242 1.23398 8.29616 1.29461 8.18837 1.4024C8.08058 1.51019 8.01996 1.65645 8.01979 1.80888V1.88846C8.01644 2.24636 7.90791 2.59551 7.70765 2.89216C7.50738 3.18879 7.22413 3.41974 6.89344 3.55665C6.56271 3.69357 6.19887 3.73036 5.84749 3.66207C5.49616 3.59375 5.17254 3.42353 4.91721 3.17272L4.86183 3.11653C4.75403 3.00875 4.60779 2.94837 4.45535 2.94836C4.30291 2.94836 4.15668 3.00877 4.04886 3.11653L3.11735 4.04886C3.00968 4.15677 2.94918 4.30292 2.94918 4.45535C2.94919 4.60776 3.00969 4.75394 3.11735 4.86183L3.17272 4.91803C3.42368 5.17335 3.59416 5.49689 3.66248 5.84831C3.73078 6.19972 3.69407 6.56354 3.55706 6.89426C3.42005 7.22498 3.18854 7.5079 2.89175 7.70806C2.59492 7.90821 2.24563 8.01675 1.88764 8.01979H1.80888C1.65645 8.01996 1.51019 8.08058 1.4024 8.18837C1.29461 8.29616 1.23398 8.44242 1.23381 8.59486V9.91235C1.23398 10.0648 1.29461 10.211 1.4024 10.3188C1.51019 10.4266 1.65645 10.4873 1.80888 10.4874H1.88764C2.24581 10.4902 2.59552 10.5986 2.89257 10.7987C3.18953 10.9989 3.4212 11.2821 3.55829 11.6129C3.69535 11.9438 3.7317 12.3078 3.6633 12.6593C3.59487 13.0109 3.42473 13.3347 3.17354 13.59L3.11735 13.6458C3.00968 13.7538 2.94922 13.9002 2.94918 14.0527C2.94918 14.2052 3.00965 14.3516 3.11735 14.4596L4.04886 15.3907C4.15684 15.4981 4.30301 15.5584 4.45535 15.5584C4.60769 15.5584 4.75387 15.4982 4.86183 15.3907L4.91803 15.3345C5.17276 15.0821 5.49645 14.9106 5.84831 14.8415C6.20014 14.7723 6.56463 14.8085 6.89591 14.9456C7.22719 15.0828 7.51057 15.3149 7.71052 15.6126C7.91043 15.9102 8.01804 16.2602 8.01979 16.6188V16.6983C8.01996 16.8508 8.08058 16.997 8.18837 17.1048C8.29616 17.2126 8.44242 17.2732 8.59486 17.2734H9.91235C10.0648 17.2732 10.211 17.2126 10.3188 17.1048C10.4266 16.997 10.4873 16.8508 10.4874 16.6983V16.6188C10.4908 16.2609 10.5994 15.9121 10.7996 15.6155C10.9998 15.3188 11.2827 15.0875 11.6134 14.9506C11.944 14.8136 12.3076 14.777 12.6589 14.8451C13.0102 14.9133 13.3338 15.0831 13.5892 15.3337L13.6446 15.3899C13.7524 15.4977 13.899 15.5584 14.0515 15.5584C14.2039 15.5584 14.3502 15.4976 14.4579 15.3899L15.3899 14.4592C15.4976 14.3512 15.558 14.2048 15.558 14.0523C15.558 13.8997 15.4976 13.7534 15.3899 13.6454L15.3345 13.5892C15.0835 13.3339 14.9131 13.0103 14.8447 12.6589C14.7764 12.3075 14.8131 11.9437 14.9502 11.6129C15.0872 11.2822 15.3187 10.9993 15.6155 10.7992C15.9123 10.599 16.2616 10.4905 16.6196 10.4874H16.6983C16.8508 10.4873 16.997 10.4266 17.1048 10.3188C17.2126 10.211 17.2732 10.0648 17.2734 9.91235V8.59486C17.2732 8.44242 17.2126 8.29616 17.1048 8.18837C16.997 8.08058 16.8508 8.01996 16.6983 8.01979H16.6196C16.2615 8.01687 15.912 7.90858 15.615 7.70847C15.3182 7.50839 15.0868 7.22534 14.9497 6.89467C14.8126 6.5639 14.776 6.1998 14.8443 5.84831C14.9126 5.49692 15.0828 5.17334 15.3337 4.91803L15.3899 4.86183C15.4975 4.75394 15.558 4.60776 15.558 4.45535C15.558 4.30292 15.4975 4.15677 15.3899 4.04886L14.4583 3.11653C14.3505 3.00877 14.2043 2.94836 14.0519 2.94836C13.8994 2.94837 13.7532 3.00875 13.6454 3.11653L13.5892 3.17272C13.3339 3.42364 13.0103 3.59373 12.6589 3.66207C12.3076 3.73036 11.944 3.69396 11.6134 3.55706C11.2826 3.42011 10.9994 3.1889 10.7992 2.89216C10.599 2.59546 10.4906 2.24636 10.4874 1.88846V1.80888C10.4873 1.65645 10.4266 1.51019 10.3188 1.4024C10.211 1.29461 10.0648 1.23398 9.91235 1.23381H8.59486ZM9.25361 4.93526C10.3985 4.93656 11.4962 5.39191 12.3057 6.20147C13.1153 7.01104 13.5706 8.10871 13.572 9.25361C13.572 10.1077 13.3188 10.9426 12.8443 11.6527C12.3698 12.3629 11.6953 12.9166 10.9062 13.2434C10.1171 13.5702 9.24877 13.6557 8.4111 13.4891C7.57343 13.3225 6.80417 12.9109 6.20024 12.307C5.59632 11.703 5.18474 10.9338 5.01811 10.0961C4.85149 9.25844 4.93697 8.39007 5.26381 7.601C5.59065 6.81193 6.14433 6.13742 6.85448 5.66291C7.56461 5.18843 8.39954 4.93526 9.25361 4.93526ZM10.4341 6.40369C9.87049 6.17024 9.2502 6.10914 8.65188 6.22814C8.05353 6.34715 7.50407 6.64131 7.07269 7.07269C6.64131 7.50407 6.34715 8.05353 6.22814 8.65188C6.10914 9.2502 6.17024 9.87049 6.40369 10.4341C6.63715 10.9977 7.03264 11.4795 7.53988 11.8184C8.04713 12.1574 8.64356 12.3381 9.25361 12.3381C10.0714 12.3372 10.8554 12.012 11.4337 11.4337C12.012 10.8554 12.3372 10.0714 12.3381 9.25361C12.3381 8.64356 12.1574 8.04713 11.8184 7.53988C11.4795 7.03264 10.9977 6.63715 10.4341 6.40369Z" fill="var(--fill-0, #C3C7CA)"/>
</svg>
