<svg preserveAspectRatio="none" width="100%" height="100%" overflow="visible" style="display: block;" viewBox="0 0 20.2333 22.7921" fill="none" xmlns="http://www.w3.org/2000/svg">
<path id="Vector" d="M10.2431 0C13.9104 0 16.4396 3.02215 16.4396 6.67392C16.4396 8.81461 15.5544 10.8294 14.0369 11.9627H20.2333V14.2293H5.94354V19.5181C5.94354 19.5181 6.32292 20.5255 6.95522 20.5255H17.7042V22.7921H4.93188C3.54083 22.7921 2.52917 21.4069 2.52917 19.8958V14.3552H0V12.0886H6.19646C4.67896 10.8294 3.79375 8.94053 3.79375 6.79984C3.79375 3.274 6.32292 0.125923 9.99021 0.125923L10.2431 0ZM10.2431 2.26661C8.59917 2.26661 7.33459 4.28138 7.33459 6.67392C7.33459 9.3183 8.59917 11.0812 10.2431 11.0812C11.8871 11.0812 13.1517 9.19238 13.1517 6.67392C13.1517 4.15546 11.8871 2.26661 10.3696 2.26661H10.2431Z" fill="var(--fill-0, #009476)"/>
</svg>
