<svg preserveAspectRatio="none" width="100%" height="100%" overflow="visible" style="display: block;" viewBox="0 0 16 16" fill="none" xmlns="http://www.w3.org/2000/svg">
<g id="Icon">
<path id="Union" fill-rule="evenodd" clip-rule="evenodd" d="M8 2.0166C8.5259 2.01669 9.03047 2.22579 9.40234 2.59766C9.7742 2.96952 9.98331 3.47411 9.9834 4V4.68262H11.6807C11.8777 4.68291 12.0725 4.72806 12.25 4.81348C12.4276 4.8991 12.5849 5.02371 12.708 5.17773L12.707 5.17871L15.0273 8.07715C15.2142 8.3101 15.3158 8.5998 15.3164 8.89844V11.333C15.3164 11.6821 15.1775 12.0168 14.9307 12.2637C14.6838 12.5105 14.3491 12.6493 14 12.6494H13.2051C12.9358 13.4253 12.2005 13.9834 11.333 13.9834C10.466 13.9833 9.73051 13.4257 9.46094 12.6504H6.53809C6.26853 13.4257 5.53316 13.9834 4.66602 13.9834C3.79919 13.9831 3.06452 13.4255 2.79492 12.6504H2C1.65093 12.6503 1.3152 12.5115 1.06836 12.2646C0.821701 12.0179 0.6828 11.6829 0.682617 11.334V4C0.682703 3.47427 0.892018 2.96949 1.26367 2.59766C1.63547 2.22586 2.14024 2.01677 2.66602 2.0166H8ZM4.66602 11.3174C4.28903 11.3177 3.98357 11.623 3.9834 12C3.9836 12.377 4.28904 12.6832 4.66602 12.6836C5.04329 12.6836 5.34941 12.3772 5.34961 12C5.34943 11.6228 5.0433 11.3174 4.66602 11.3174ZM11.333 11.3174C10.9559 11.3176 10.6506 11.6229 10.6504 12C10.6506 12.3771 10.9559 12.6834 11.333 12.6836C11.7103 12.6836 12.0164 12.3772 12.0166 12C12.0164 11.6228 11.7103 11.3174 11.333 11.3174ZM2.66602 3.31738C2.48502 3.31756 2.31159 3.38958 2.18359 3.51758C2.05574 3.64562 1.98348 3.81905 1.9834 4V11.334C1.98357 11.3382 1.98532 11.3427 1.98828 11.3457C1.99129 11.3485 1.99584 11.3505 2 11.3506H2.79395C3.06309 10.5746 3.7986 10.0169 4.66602 10.0166C5.53331 10.0166 6.26864 10.574 6.53809 11.3496H8.68262V4C8.68253 3.8189 8.61048 3.64565 8.48242 3.51758C8.35435 3.3895 8.18111 3.31747 8 3.31738H2.66602ZM9.9834 10.5488C10.3375 10.2192 10.8112 10.0167 11.333 10.0166C12.2003 10.0166 12.9357 10.5739 13.2051 11.3496H14C14.0043 11.3495 14.0087 11.3478 14.0117 11.3447C14.0147 11.3416 14.0166 11.3373 14.0166 11.333V8.90039L14.0127 8.89062L14.0117 8.88965L11.6924 5.98926C11.6909 5.98751 11.6876 5.98536 11.6855 5.98438L11.6787 5.9834H9.9834V10.5488Z" fill="var(--fill-0, #39E6C9)"/>
</g>
</svg>
