<svg preserveAspectRatio="none" width="100%" height="100%" overflow="visible" style="display: block;" viewBox="0 0 84.4166 22.4667" fill="none" xmlns="http://www.w3.org/2000/svg">
<g id="Group">
<path id="Vector" d="M11.5989 17.4935C11.4013 18.8445 10.7381 20.0581 9.73797 20.9645C7.54315 22.9538 4.1825 22.9655 1.95881 21.0104L1.46001 20.5149C0.601749 19.5576 0.0987603 18.3627 3.89312e-06 17.0752V16.1993C0.0929019 14.9301 0.588358 13.7587 1.41942 12.8022L1.95881 12.2637C4.18125 10.3107 7.54524 10.3207 9.73755 12.3096C10.6423 13.1308 11.2716 14.1924 11.5311 15.4052H7.74443C7.20545 14.5811 6.21161 14.1732 5.23451 14.4367C4.35114 14.6746 3.63934 15.4545 3.5477 16.4293C3.42886 17.6881 4.39341 18.8103 5.6559 18.9151C6.66564 18.9743 7.55026 18.4216 7.93776 17.4927H11.5997L11.5989 17.4935Z" fill="var(--fill-0, #FDFFFE)"/>
<path id="Vector_2" d="M20.8949 17.6183L16.9606 17.6192L16.961 19.6231L21.313 19.6227V21.9193L13.1949 21.9184V11.1903L21.2711 11.189V13.4861L16.961 13.4856V15.323L20.8945 15.3226L20.8949 17.6183Z" fill="var(--fill-0, #FDFFFE)"/>
<path id="Vector_3" d="M31.1869 19.2052L31.1895 21.9197L23.1542 21.9185L23.1538 11.1895H26.9626L26.9613 19.2056L31.1869 19.2052Z" fill="var(--fill-0, #FDFFFE)"/>
<path id="Vector_4" d="M40.3512 19.2048L40.3537 21.9193L32.3603 21.9185L32.3599 11.1895H36.1269L36.1256 19.2061L40.3512 19.2048Z" fill="var(--fill-0, #FDFFFE)"/>
<path id="Vector_5" d="M73.1697 17.122C72.9986 18.9263 71.9507 20.5007 70.3602 21.3853C68.267 22.5497 65.5098 22.3451 63.6602 20.7938L62.9497 20.0824C62.2128 19.2186 61.8127 18.1527 61.7094 17.0259V16.1258C61.8516 14.2284 62.9359 12.5755 64.6181 11.6804C65.373 11.2788 66.1923 11.063 67.0535 11.0075L67.8046 11.0083C71.0544 11.1937 73.4806 13.8459 73.1697 17.1211V17.122ZM72.137 16.5617C72.137 13.9779 70.0375 11.8829 67.4473 11.8829C64.857 11.8829 62.7576 13.9775 62.7576 16.5617C62.7576 19.1459 64.857 21.2405 67.4473 21.2405C70.0375 21.2405 72.137 19.1459 72.137 16.5617Z" fill="var(--fill-0, #FDFFFE)"/>
<path id="Vector_6" d="M84.4167 21.9957L83.6053 21.9664L75.5884 12.7659L75.5867 22.0019L74.6247 22.0011V11.1506L75.4537 11.1556L83.4538 20.3583L83.4542 11.1506L84.4167 11.1502V21.9957Z" fill="var(--fill-0, #FDFFFE)"/>
<path id="Vector_7" d="M58.314 21.9539C58.26 22.0262 58.1353 21.9857 58.0478 21.9677L57.1511 21.9556L55.0123 18.6128C54.6905 18.1097 54.3558 17.6789 53.9206 17.2702C53.6419 17.061 53.3067 16.8836 52.9339 16.8807L50.9809 16.8673V22.0028L50.0189 21.9999V11.1461L53.4331 11.1507C54.0377 11.2354 54.5935 11.3214 55.1144 11.6153C56.0982 12.1213 56.5498 13.1846 56.4489 14.2601C56.3359 15.4637 55.5605 16.1713 54.4964 16.5976L54.9387 16.9608C55.2915 17.3658 55.5764 17.7657 55.8723 18.2133L58.314 21.9535V21.9539ZM55.0818 12.9024C54.8667 12.5997 54.5604 12.4085 54.2319 12.2432C53.8762 12.1376 53.5247 12.0002 53.1439 11.9973L50.9817 11.9823V16.034L52.9288 16.0152C53.4787 16.0098 53.9984 15.89 54.4784 15.6441C55.4747 15.0997 55.6923 13.7612 55.0818 12.9024Z" fill="var(--fill-0, #FDFFFE)"/>
<path id="Vector_8" d="M81.5803 3.4167L81.5703 6.34662H80.0655L80.0584 3.4764C80.0584 3.31108 79.9718 3.06226 79.8672 2.95789C79.7111 2.80216 79.4094 2.79799 79.2328 2.88316C79.0168 2.98753 78.9491 3.21339 78.893 3.43591L78.8921 6.34621H77.3857V1.54595L78.8469 1.5447L78.8595 2.01103C79.1482 1.60899 79.6069 1.40442 80.1061 1.41486C80.5785 1.42446 80.9991 1.63613 81.2514 2.04902L81.5895 1.73006C82.09 1.37269 82.7516 1.32635 83.3215 1.55346C83.7132 1.7096 83.9773 2.04401 84.1057 2.43937L84.2472 3.10526L84.2493 6.34662H82.7428L82.7403 3.44551C82.6813 3.26098 82.6687 3.04932 82.5214 2.93451C82.3725 2.81803 82.1105 2.79966 81.9293 2.87522C81.7586 2.9462 81.5803 3.18959 81.5795 3.41712L81.5803 3.4167Z" fill="var(--fill-0, #FDFFFE)"/>
<path id="Vector_9" d="M62.7806 3.65678C62.4325 3.96405 62.0044 4.08888 61.5558 4.17488L59.5597 4.17696V6.34748L57.9696 6.34706V0.000848115H61.5612C61.986 0.0764132 62.3601 0.214184 62.7095 0.447559L63.0367 0.789897C63.6581 1.58479 63.6088 2.96291 62.7806 3.65678ZM61.2805 2.79592C61.6738 2.70366 61.8927 2.43563 61.8788 2.07534C61.8671 1.76932 61.6274 1.437 61.2612 1.43408L59.5602 1.41947V2.79926L61.2805 2.7955V2.79592Z" fill="var(--fill-0, #FDFFFE)"/>
<path id="Vector_10" d="M68.3495 6.34454L66.8418 6.34746L66.8288 3.53402C66.8271 3.13031 66.5384 2.85602 66.181 2.83139C65.6952 2.79758 65.396 3.09441 65.3382 3.57577L65.3328 6.34705H63.828V0.00166998L65.3336 0L65.337 1.97763C66.0015 1.21697 67.2577 1.23701 67.8821 1.97763C68.1574 2.30452 68.3281 2.74122 68.3306 3.19669L68.3491 6.34412L68.3495 6.34454Z" fill="var(--fill-0, #FDFFFE)"/>
<path id="Vector_11" d="M44.6634 21.9944L43.7001 22.0015L43.701 11.9827L39.6842 11.9831L39.6854 11.1477H48.6781L48.6794 11.9831L44.6626 11.9827L44.6634 21.9944Z" fill="var(--fill-0, #FDFFFE)"/>
<path id="Vector_12" d="M68.7951 5.01401C68.7792 4.43871 69.0492 3.96528 69.5936 3.73775C70.0384 3.55197 70.5292 3.44384 71.0251 3.4142L71.703 3.37328L71.6574 3.08981C71.6047 2.76334 71.3097 2.57797 70.9845 2.636C70.6447 2.60428 70.379 2.80968 70.3384 3.17247L68.8608 3.1754C68.9169 2.4878 69.3128 1.91501 69.9572 1.64197C70.6631 1.34305 71.4766 1.33178 72.196 1.63445C72.7153 1.8528 73.1371 2.35462 73.1404 2.93826L73.1618 6.34704H71.698L71.6875 5.9617C70.9916 6.54242 69.7488 6.69982 69.1688 6.08569C68.878 5.77801 68.8056 5.40436 68.7951 5.01442V5.01401ZM71.2929 5.11504C71.603 4.96975 71.7641 4.69839 71.6854 4.31012C71.0532 4.22162 70.1045 4.53515 70.2865 5.00733C70.4175 5.34758 70.8682 5.31418 71.2929 5.11504Z" fill="var(--fill-0, #FDFFFE)"/>
<path id="Vector_13" d="M60.4389 11.1477H59.4346V22.0053H60.4389V11.1477Z" fill="var(--fill-0, #FDFFFE)"/>
<path id="Vector_14" d="M75.2942 6.34495L73.7878 6.34746V1.54595L75.2499 1.54553L75.2591 2.13752C75.6081 1.52799 76.232 1.34931 76.9651 1.43657L76.9697 2.92365L76.4689 2.87648C75.8855 2.82137 75.3834 3.21923 75.2951 3.8033L75.2942 6.34495Z" fill="var(--fill-0, #FDFFFE)"/>
</g>
</svg>
