<svg preserveAspectRatio="none" width="100%" height="100%" overflow="visible" style="display: block;" viewBox="0 0 23.0804 23.0804" fill="none" xmlns="http://www.w3.org/2000/svg">
<g id="Icon">
<path id="Vector" d="M9.30045 3.97722C9.35344 3.41977 9.61236 2.9021 10.0266 2.52535C10.4409 2.1486 10.9807 1.93983 11.5407 1.93983C12.1007 1.93983 12.6405 2.1486 13.0548 2.52535C13.469 2.9021 13.7279 3.41977 13.7809 3.97722C13.8128 4.33733 13.9309 4.68446 14.1253 4.98924C14.3198 5.29402 14.5848 5.54747 14.8979 5.72814C15.211 5.90881 15.5631 6.01138 15.9242 6.02717C16.2854 6.04295 16.6451 5.9715 16.9728 5.81885C17.4816 5.58783 18.0582 5.5544 18.5903 5.72507C19.1224 5.89573 19.572 6.25829 19.8516 6.74216C20.1311 7.22604 20.2206 7.79662 20.1027 8.34285C19.9847 8.88909 19.6678 9.37189 19.2135 9.69731C18.9176 9.90489 18.6762 10.1807 18.5094 10.5013C18.3427 10.8219 18.2557 11.178 18.2557 11.5394C18.2557 11.9008 18.3427 12.2569 18.5094 12.5775C18.6762 12.8982 18.9176 13.1739 19.2135 13.3815C19.6678 13.7069 19.9847 14.1897 20.1027 14.736C20.2206 15.2822 20.1311 15.8528 19.8516 16.3367C19.572 16.8205 19.1224 17.1831 18.5903 17.3538C18.0582 17.5244 17.4816 17.491 16.9728 17.26C16.6451 17.1073 16.2854 17.0359 15.9242 17.0517C15.5631 17.0675 15.211 17.17 14.8979 17.3507C14.5848 17.5314 14.3198 17.7848 14.1253 18.0896C13.9309 18.3944 13.8128 18.7415 13.7809 19.1016C13.7279 19.6591 13.469 20.1767 13.0548 20.5535C12.6405 20.9302 12.1007 21.139 11.5407 21.139C10.9807 21.139 10.4409 20.9302 10.0266 20.5535C9.61236 20.1767 9.35344 19.6591 9.30045 19.1016C9.26866 18.7414 9.15052 18.3941 8.95604 18.0892C8.76156 17.7843 8.49646 17.5308 8.1832 17.3501C7.86994 17.1694 7.51775 17.0669 7.15646 17.0512C6.79516 17.0355 6.43541 17.1071 6.10766 17.26C5.59883 17.491 5.02224 17.5244 4.49011 17.3538C3.95799 17.1831 3.5084 16.8205 3.22885 16.3367C2.9493 15.8528 2.85979 15.2822 2.97773 14.736C3.09568 14.1897 3.41264 13.7069 3.86694 13.3815C4.16278 13.1739 4.40426 12.8982 4.57098 12.5775C4.7377 12.2569 4.82473 11.9008 4.82473 11.5394C4.82473 11.178 4.7377 10.8219 4.57098 10.5013C4.40426 10.1807 4.16278 9.90489 3.86694 9.69731C3.41328 9.37173 3.09688 8.88911 2.97921 8.34325C2.86155 7.79738 2.95104 7.22727 3.23029 6.74371C3.50954 6.26015 3.9586 5.89768 4.4902 5.72676C5.0218 5.55583 5.59796 5.58865 6.1067 5.81885C6.4344 5.9715 6.79406 6.04295 7.15523 6.02717C7.51639 6.01138 7.86844 5.90881 8.18157 5.72814C8.4947 5.54747 8.75969 5.29402 8.95412 4.98924C9.14854 4.68446 9.26668 4.33733 9.29853 3.97722" stroke="var(--stroke-0, #99A1AF)" stroke-width="1.92337" stroke-linecap="round" stroke-linejoin="round"/>
<path id="Vector_2" d="M11.5402 14.4253C13.1336 14.4253 14.4252 13.1336 14.4252 11.5402C14.4252 9.94685 13.1336 8.65517 11.5402 8.65517C9.94681 8.65517 8.65513 9.94685 8.65513 11.5402C8.65513 13.1336 9.94681 14.4253 11.5402 14.4253Z" stroke="var(--stroke-0, #99A1AF)" stroke-width="1.92337" stroke-linecap="round" stroke-linejoin="round"/>
</g>
</svg>
