<svg preserveAspectRatio="none" width="100%" height="100%" overflow="visible" style="display: block;" viewBox="0 0 80 42" fill="none" xmlns="http://www.w3.org/2000/svg">
<g id="btn-cart">
<rect x="1" y="1" width="78" height="40" rx="20" fill="var(--fill-0, #1F1F1F)"/>
<rect x="1" y="1" width="78" height="40" rx="20" stroke="var(--stroke-0, #333333)" stroke-width="2"/>
<path id="Vector" d="M28.5526 11C27.9729 11 27.5 11.4492 27.5 12C27.5 12.5508 27.9729 13 28.5526 13H30.8882L33.6513 23.5C33.8857 24.3906 34.7245 25 35.6908 25H47.7632C48.713 25 49.5189 24.4023 49.7697 23.5312L52.5 14H34.8684L35.3947 16H49.7697L47.7632 23H35.6908L32.9276 12.5C32.6933 11.6094 31.8544 11 30.8882 11H28.5526ZM46.4474 25C44.7163 25 43.2895 26.3555 43.2895 28C43.2895 29.6445 44.7163 31 46.4474 31C48.1785 31 49.6053 29.6445 49.6053 28C49.6053 26.3555 48.1785 25 46.4474 25ZM36.9737 25C35.2426 25 33.8158 26.3555 33.8158 28C33.8158 29.6445 35.2426 31 36.9737 31C38.7048 31 40.1316 29.6445 40.1316 28C40.1316 26.3555 38.7048 25 36.9737 25ZM36.9737 27C37.5658 27 38.0263 27.4375 38.0263 28C38.0263 28.5625 37.5658 29 36.9737 29C36.3816 29 35.9211 28.5625 35.9211 28C35.9211 27.4375 36.3816 27 36.9737 27ZM46.4474 27C47.0395 27 47.5 27.4375 47.5 28C47.5 28.5625 47.0395 29 46.4474 29C45.8553 29 45.3947 28.5625 45.3947 28C45.3947 27.4375 45.8553 27 46.4474 27Z" fill="var(--fill-0, #31CBFF)"/>
</g>
</svg>
