<svg preserveAspectRatio="none" width="100%" height="100%" overflow="visible" style="display: block;" viewBox="0 0 25 24" fill="none" xmlns="http://www.w3.org/2000/svg">
<path id="Subtract" d="M18.5007 1.78835C19.9 1.34594 21.1018 1.19928 22.0453 1.30789C22.9807 1.41559 23.5883 1.76099 23.9577 2.23371C24.3272 2.70645 24.5405 3.41131 24.4814 4.42481C24.4218 5.44715 24.0853 6.70107 23.4458 8.11562C23.068 8.95137 22.5925 9.82343 22.0274 10.7136C22.0252 10.7107 22.0232 10.7077 22.021 10.7048L21.2154 11.9355C22.225 13.3317 23.3325 15.0762 23.9178 16.3783C24.5692 17.8276 24.9273 19.1478 24.99 20.2607C25.0524 21.3684 24.8217 22.2267 24.3434 22.8388C23.8632 23.4532 23.1141 23.8441 22.0858 23.9625C21.0529 24.0814 19.7795 23.9181 18.3383 23.4624C15.4579 22.5517 12.0291 20.5121 8.76174 17.536C8.48503 17.2841 8.07152 17.3217 7.83806 17.6203C7.60459 17.9191 7.63973 18.3657 7.91642 18.6178C8.95214 19.5611 10.0081 20.4175 11.0636 21.1801C9.69724 21.9657 8.38031 22.5573 7.16995 22.94C5.7707 23.3823 4.5691 23.5293 3.62555 23.4207C2.69017 23.313 2.08264 22.9673 1.71315 22.4946C1.34369 22.0219 1.13037 21.3172 1.18947 20.3038C1.24913 19.2814 1.58557 18.0273 2.22506 16.6127C3.50258 13.7869 5.89018 10.5416 9.11512 7.6042C12.3401 4.66679 15.7054 2.67215 18.5007 1.78835ZM0.811243 1.41239C2.73551 -1.04959 7.63078 -0.1846 12.8352 3.16505C12.876 3.13875 12.917 3.11281 12.9579 3.08681C11.5338 3.99355 10.0848 5.08674 8.66596 6.34997L8.35431 6.63084C6.29407 8.50736 4.54799 10.5208 3.19329 12.5C3.22431 12.4547 3.25559 12.4094 3.28702 12.364C0.204139 7.91513 -0.913322 3.61896 0.811243 1.41239Z" fill="url(#paint0_linear_82_26)"/>
<defs>
<linearGradient id="paint0_linear_82_26" x1="3.57143" y1="5.4" x2="21.545" y2="20.2591" gradientUnits="userSpaceOnUse">
<stop stop-color="#C9F6FF"/>
<stop offset="1" stop-color="#6388FF"/>
</linearGradient>
</defs>
</svg>
