<svg preserveAspectRatio="none" width="100%" height="100%" overflow="visible" style="display: block;" viewBox="0 0 24.8766 24.8797" fill="none" xmlns="http://www.w3.org/2000/svg">
<g id="Group">
<path id="Vector" d="M5.71867 24.8797C8.87654 24.8797 11.4365 22.3257 11.4365 19.1752C11.4365 16.0247 8.87654 13.4707 5.71867 13.4707C2.5608 13.4707 0.000840215 16.0247 0.000840215 19.1752C0.000840215 22.3257 2.5608 24.8797 5.71867 24.8797Z" fill="var(--fill-0, #00CD00)"/>
<path id="Vector_2" d="M24.8762 5.70412C24.8762 8.85447 22.3164 11.4082 19.1587 11.4082C16.001 11.4082 13.4413 8.85447 13.4413 5.70412C13.4413 2.55376 16.0015 0 19.1592 0C22.3169 0 24.8766 2.55376 24.8766 5.70412H24.8762ZM22.5997 5.70412C22.5997 3.80789 21.059 2.27071 19.1583 2.27071C17.2577 2.27071 15.7169 3.80789 15.7169 5.70412C15.7169 7.60034 17.2577 9.13752 19.1583 9.13752C21.059 9.13752 22.5997 7.60034 22.5997 5.70412Z" fill="var(--fill-0, #00CD00)"/>
<path id="Vector_3" d="M11.4348 5.70413C11.4348 8.85448 8.8751 11.4082 5.71741 11.4082C2.55972 11.4082 0 8.85448 0 5.70413C0 2.55377 2.55972 9.53674e-06 5.71741 9.53674e-06C8.8751 9.53674e-06 11.4348 2.55377 11.4348 5.70413ZM10.5033 5.70413C10.5033 3.06728 8.36082 0.929752 5.71783 0.929752C3.07484 0.929752 0.932327 3.06728 0.932327 5.70413C0.932327 8.34097 3.07484 10.4785 5.71783 10.4785C8.36082 10.4785 10.5033 8.34097 10.5033 5.70413Z" fill="var(--fill-0, #00CD00)"/>
</g>
</svg>
