<svg preserveAspectRatio="none" width="100%" height="100%" overflow="visible" style="display: block;" viewBox="0 0 23.0804 23.0804" fill="none" xmlns="http://www.w3.org/2000/svg">
<g id="Icon">
<g id="Union">
<path fill-rule="evenodd" clip-rule="evenodd" d="M6.07361 13.2544C9.07364 11.2647 13.9336 11.2645 16.9135 13.2544C18.2934 14.1744 19.0629 15.4352 19.0629 16.8052C19.0627 18.1749 18.3031 19.4446 16.9135 20.3745C15.4135 21.3745 13.4534 21.8745 11.4935 21.8745C9.53361 21.8745 7.56359 21.3744 6.07361 20.3745C4.68361 19.4545 3.92322 18.1947 3.92322 16.8247C3.92322 15.4547 4.68361 14.1844 6.07361 13.2544ZM16.0834 14.5151C13.5934 12.8552 9.3937 12.8552 6.90369 14.5151C5.94377 15.1551 5.42331 15.9746 5.42322 16.8345C5.42322 17.6845 5.95369 18.5043 6.90369 19.1343C9.3937 20.8042 13.5934 20.8042 16.0834 19.1343C17.0431 18.4944 17.5628 17.6748 17.5629 16.8149C17.5629 15.965 17.0332 15.1451 16.0834 14.5151Z" fill="var(--fill-0, #99A1AF)"/>
<path fill-rule="evenodd" clip-rule="evenodd" d="M11.3236 0.574707C14.1834 0.574907 16.5131 2.90526 16.5131 5.76514C16.5028 8.57494 14.3029 10.8548 11.5131 10.9448H11.4037C11.3537 10.9348 11.283 10.9348 11.223 10.9448C8.32328 10.8547 6.1334 8.57487 6.13318 5.76514C6.13318 2.90514 8.46361 0.574707 11.3236 0.574707ZM11.3236 2.07471C9.29361 2.07471 7.63318 3.73514 7.63318 5.76514C7.6334 7.76485 9.19325 9.3747 11.183 9.44482C11.233 9.43482 11.3733 9.43482 11.5033 9.44482C13.4631 9.35481 15.0028 7.74492 15.0131 5.76514C15.0131 3.73526 13.3534 2.07491 11.3236 2.07471Z" fill="var(--fill-0, #99A1AF)"/>
</g>
</g>
</svg>
