<svg preserveAspectRatio="none" width="100%" height="100%" overflow="visible" style="display: block;" viewBox="0 0 23.0804 23.0804" fill="none" xmlns="http://www.w3.org/2000/svg">
<g id="Icon">
<path id="Vector" d="M9.87446 20.1954C10.0433 20.4877 10.2861 20.7305 10.5785 20.8993C10.8708 21.0681 11.2025 21.157 11.5401 21.157C11.8777 21.157 12.2094 21.0681 12.5017 20.8993C12.7941 20.7305 13.0369 20.4877 13.2057 20.1954" stroke="var(--stroke-0, #99A1AF)" stroke-width="1.92337" stroke-linecap="round" stroke-linejoin="round"/>
<path id="Vector_2" d="M3.13699 14.739C3.01136 14.8767 2.92846 15.0479 2.89836 15.2319C2.86826 15.4158 2.89226 15.6046 2.96745 15.7751C3.04265 15.9457 3.16578 16.0907 3.32188 16.1926C3.47798 16.2944 3.66032 16.3487 3.84672 16.3489H19.2336C19.42 16.3489 19.6024 16.2948 19.7586 16.1932C19.9148 16.0915 20.0381 15.9466 20.1135 15.7762C20.1889 15.6058 20.2131 15.4171 20.1832 15.2331C20.1534 15.0491 20.0707 14.8778 19.9453 14.74C18.6662 13.4215 17.3103 12.0203 17.3103 7.69372C17.3103 6.1634 16.7024 4.69575 15.6203 3.61365C14.5382 2.53155 13.0705 1.92363 11.5402 1.92363C10.0099 1.92363 8.54221 2.53155 7.4601 3.61365C6.378 4.69575 5.77008 6.1634 5.77008 7.69372C5.77008 12.0203 4.41315 13.4215 3.13699 14.739Z" stroke="var(--stroke-0, #99A1AF)" stroke-width="1.92337" stroke-linecap="round" stroke-linejoin="round"/>
</g>
</svg>
