<svg preserveAspectRatio="none" width="100%" height="100%" overflow="visible" style="display: block;" viewBox="0 0 8.99989 8.99989" fill="none" xmlns="http://www.w3.org/2000/svg">
<path id="icon" fill-rule="evenodd" clip-rule="evenodd" d="M1.28022 0.21967C0.987324 -0.0732233 0.512563 -0.0732233 0.21967 0.21967C-0.0732233 0.512563 -0.0732233 0.987324 0.21967 1.28022L3.4394 4.49994L0.21967 7.71967C-0.0732232 8.01256 -0.0732233 8.48732 0.21967 8.78022C0.512563 9.07311 0.987324 9.07311 1.28022 8.78022L4.49994 5.56049L7.71967 8.78022C8.01256 9.07311 8.48732 9.07311 8.78022 8.78022C9.07311 8.48732 9.07311 8.01256 8.78022 7.71967L5.56049 4.49994L8.78022 1.28022C9.07311 0.987324 9.07311 0.512563 8.78022 0.21967C8.48732 -0.0732233 8.01256 -0.0732232 7.71967 0.21967L4.49994 3.4394L1.28022 0.21967Z" fill="var(--fill-0, white)"/>
</svg>
