<svg preserveAspectRatio="none" width="100%" height="100%" overflow="visible" style="display: block;" viewBox="0 0 1108 479" fill="none" xmlns="http://www.w3.org/2000/svg">
<g id="panel">
<mask id="path-1-inside-1_915_6813" fill="white">
<path d="M258.389 0C271.643 0.000212003 282.389 10.7453 282.389 24V56H1108V459C1108 470.046 1099.05 479 1088 479H20C8.95431 479 2.25505e-07 470.046 0 459V20C0 8.95431 8.95431 0 20 0H258.389Z"/>
</mask>
<path d="M258.389 0C271.643 0.000212003 282.389 10.7453 282.389 24V56H1108V459C1108 470.046 1099.05 479 1088 479H20C8.95431 479 2.25505e-07 470.046 0 459V20C0 8.95431 8.95431 0 20 0H258.389Z" fill="var(--fill-0, #1E1E1E)"/>
<path d="M258.389 0L258.389 -1H258.389V0ZM282.389 56H281.389V57H282.389V56ZM1108 56H1109V55H1108V56ZM1108 459H1109V459H1108ZM1088 479V480V480V479ZM20 479V480V480V479ZM0 459H-1V459H0ZM20 0V1V0ZM258.389 0L258.389 1C271.091 1.0002 281.389 11.2976 281.389 24H282.389H283.389C283.389 10.193 272.196 -0.999779 258.389 -1L258.389 0ZM282.389 24H281.389V56H282.389H283.389V24H282.389ZM282.389 56V57H1108V56V55H282.389V56ZM1108 56H1107V459H1108H1109V56H1108ZM1108 459H1107C1107 469.493 1098.49 478 1088 478V479V480C1099.6 480 1109 470.598 1109 459H1108ZM1088 479V478H20V479V480H1088V479ZM20 479V478C9.50659 478 1 469.493 1 459H0H-1C-1 470.598 8.40203 480 20 480V479ZM0 459H1V20H0H-1V459H0ZM0 20H1C1 9.50659 9.50659 1 20 1V0V-1C8.40202 -1 -1 8.40202 -1 20H0ZM20 0V1H258.389V0V-1H20V0Z" fill="var(--stroke-0, #3A3E41)" mask="url(#path-1-inside-1_915_6813)"/>
</g>
</svg>
