<svg preserveAspectRatio="none" width="100%" height="100%" overflow="visible" style="display: block;" viewBox="0 0 80 42" fill="none" xmlns="http://www.w3.org/2000/svg">
<g id="btn-home">
<rect x="1" y="1" width="78" height="40" rx="20" fill="var(--fill-0, #1F1F1F)"/>
<rect x="1" y="1" width="78" height="40" rx="20" stroke="var(--stroke-0, #333333)" stroke-width="2"/>
<path id="Vector" d="M40 9C38.9498 9 38.1 9.82572 38.1 10.8462C38.1 10.9255 38.1186 11.0012 38.1297 11.0769C34.8455 11.8918 32.4 14.7909 32.4 18.2308V26.5385C32.4 27.0613 31.9881 27.4615 31.45 27.4615H30.5V29.3077H37.3281C37.2205 29.5998 37.15 29.9063 37.15 30.2308C37.15 31.7488 38.4377 33 40 33C41.5623 33 42.85 31.7488 42.85 30.2308C42.85 29.9063 42.7795 29.5998 42.6719 29.3077H49.5V27.4615H48.55C48.0119 27.4615 47.6 27.0613 47.6 26.5385V18.4904C47.6 15.0216 45.2139 11.9279 41.8703 11.0769C41.8814 11.0012 41.9 10.9255 41.9 10.8462C41.9 9.82572 41.0502 9 40 9ZM39.5844 12.6923C39.7217 12.6815 39.859 12.6923 40 12.6923C40.0594 12.6923 40.1187 12.6923 40.1781 12.6923C43.2805 12.7825 45.7 15.4255 45.7 18.4904V26.5385C45.7 26.863 45.7705 27.1695 45.8781 27.4615H34.1219C34.2295 27.1695 34.3 26.863 34.3 26.5385V18.2308C34.3 15.2993 36.623 12.9014 39.5844 12.6923ZM40 29.3077C40.5344 29.3077 40.95 29.7115 40.95 30.2308C40.95 30.75 40.5344 31.1538 40 31.1538C39.4656 31.1538 39.05 30.75 39.05 30.2308C39.05 29.7115 39.4656 29.3077 40 29.3077Z" fill="var(--fill-0, #31CBFF)"/>
</g>
</svg>
