<svg preserveAspectRatio="none" width="100%" height="100%" overflow="visible" style="display: block;" viewBox="0 0 77 77" fill="none" xmlns="http://www.w3.org/2000/svg">
<g id="Gauge">
<g id="Ellipse 6">
<mask id="path-1-inside-1_42_1124" fill="white">
<path d="M13.3086 63.6914C12.1863 64.8138 10.3574 64.8204 9.32186 63.6175C5.00177 58.5991 2.03794 52.5373 0.739784 46.011C-0.745747 38.5427 0.0166815 30.8017 2.93066 23.7667C5.84463 16.7318 10.7793 10.7189 17.1106 6.48846C23.4419 2.25802 30.8854 3.81685e-05 38.5 3.82593e-05C46.1146 3.83501e-05 53.5582 2.25802 59.8895 6.48846C66.2208 10.7189 71.1554 16.7318 74.0694 23.7667C76.9834 30.8017 77.7458 38.5427 76.2603 46.011C74.9621 52.5373 71.9983 58.5991 67.6782 63.6175C66.6426 64.8204 64.8138 64.8138 63.6914 63.6915V63.6915C62.5691 62.5691 62.5801 60.7569 63.5998 59.5405C67.1243 55.3361 69.5465 50.3005 70.6228 44.8897C71.8865 38.5364 71.2379 31.951 68.759 25.9664C66.2801 19.9817 62.0821 14.8665 56.6961 11.2677C51.31 7.66884 44.9778 5.74797 38.5 5.74797C32.0223 5.74797 25.69 7.66884 20.3039 11.2677C14.9179 14.8665 10.72 19.9817 8.24105 25.9664C5.76212 31.951 5.11352 38.5364 6.37727 44.8897C7.45356 50.3005 9.87577 55.3361 13.4002 59.5405C14.4199 60.7569 14.431 62.5691 13.3086 63.6914V63.6914Z"/>
</mask>
<path d="M13.3086 63.6914C12.1863 64.8138 10.3574 64.8204 9.32186 63.6175C5.00177 58.5991 2.03794 52.5373 0.739784 46.011C-0.745747 38.5427 0.0166815 30.8017 2.93066 23.7667C5.84463 16.7318 10.7793 10.7189 17.1106 6.48846C23.4419 2.25802 30.8854 3.81685e-05 38.5 3.82593e-05C46.1146 3.83501e-05 53.5582 2.25802 59.8895 6.48846C66.2208 10.7189 71.1554 16.7318 74.0694 23.7667C76.9834 30.8017 77.7458 38.5427 76.2603 46.011C74.9621 52.5373 71.9983 58.5991 67.6782 63.6175C66.6426 64.8204 64.8138 64.8138 63.6914 63.6915V63.6915C62.5691 62.5691 62.5801 60.7569 63.5998 59.5405C67.1243 55.3361 69.5465 50.3005 70.6228 44.8897C71.8865 38.5364 71.2379 31.951 68.759 25.9664C66.2801 19.9817 62.0821 14.8665 56.6961 11.2677C51.31 7.66884 44.9778 5.74797 38.5 5.74797C32.0223 5.74797 25.69 7.66884 20.3039 11.2677C14.9179 14.8665 10.72 19.9817 8.24105 25.9664C5.76212 31.951 5.11352 38.5364 6.37727 44.8897C7.45356 50.3005 9.87577 55.3361 13.4002 59.5405C14.4199 60.7569 14.431 62.5691 13.3086 63.6914V63.6914Z" fill="var(--fill-0, white)" fill-opacity="0.1" stroke="var(--stroke-0, white)" stroke-opacity="0.2" stroke-width="1.62105" mask="url(#path-1-inside-1_42_1124)"/>
</g>
<path id="Ellipse 7" d="M13.3086 63.6914C12.1863 64.8138 10.3573 64.8204 9.32177 63.6175C3.46101 56.8097 0.144492 48.1377 0.00462256 39.0955C-0.150116 29.0921 3.59526 19.4212 10.4474 12.1315C17.2996 4.8417 26.7203 0.505547 36.7142 0.0414788C45.7477 -0.377996 54.6082 2.39599 61.7653 7.82461C63.0299 8.78381 63.1365 10.6096 62.0856 11.7992V11.7992C61.0348 12.9888 59.2253 13.0898 57.9482 12.1472C51.9208 7.69876 44.5217 5.43306 36.9808 5.78322C28.479 6.178 20.4647 9.86678 14.6356 16.0682C8.80643 22.2696 5.62023 30.4966 5.75186 39.0066C5.86862 46.5547 8.58748 53.7996 13.4001 59.5404C14.4198 60.7568 14.431 62.5691 13.3086 63.6914V63.6914Z" fill="var(--fill-0, #2B7FFF)"/>
</g>
</svg>
