<svg preserveAspectRatio="none" width="100%" height="100%" overflow="visible" style="display: block;" viewBox="0 0 77 77" fill="none" xmlns="http://www.w3.org/2000/svg">
<g id="Gauge">
<g id="Ellipse 6">
<mask id="path-1-inside-1_42_1120" fill="white">
<path d="M13.3086 63.6914C12.1863 64.8138 10.3574 64.8204 9.32186 63.6175C5.00177 58.599 2.03794 52.5372 0.739784 46.011C-0.745747 38.5427 0.0166815 30.8016 2.93066 23.7667C5.84463 16.7317 10.7793 10.7189 17.1106 6.48842C23.4419 2.25799 30.8854 -9.0803e-08 38.5 0C46.1146 9.0803e-08 53.5582 2.25799 59.8895 6.48842C66.2208 10.7189 71.1554 16.7317 74.0694 23.7667C76.9834 30.8016 77.7458 38.5427 76.2603 46.011C74.9621 52.5372 71.9983 58.599 67.6782 63.6175C66.6426 64.8204 64.8138 64.8138 63.6914 63.6914V63.6914C62.5691 62.5691 62.5801 60.7568 63.5998 59.5405C67.1243 55.3361 69.5465 50.3005 70.6228 44.8896C71.8865 38.5363 71.2379 31.951 68.759 25.9663C66.2801 19.9817 62.0821 14.8665 56.6961 11.2676C51.31 7.6688 44.9778 5.74793 38.5 5.74793C32.0223 5.74793 25.69 7.6688 20.3039 11.2676C14.9179 14.8665 10.72 19.9817 8.24105 25.9663C5.76212 31.951 5.11352 38.5363 6.37727 44.8896C7.45356 50.3005 9.87577 55.3361 13.4002 59.5405C14.4199 60.7568 14.431 62.5691 13.3086 63.6914V63.6914Z"/>
</mask>
<path d="M13.3086 63.6914C12.1863 64.8138 10.3574 64.8204 9.32186 63.6175C5.00177 58.599 2.03794 52.5372 0.739784 46.011C-0.745747 38.5427 0.0166815 30.8016 2.93066 23.7667C5.84463 16.7317 10.7793 10.7189 17.1106 6.48842C23.4419 2.25799 30.8854 -9.0803e-08 38.5 0C46.1146 9.0803e-08 53.5582 2.25799 59.8895 6.48842C66.2208 10.7189 71.1554 16.7317 74.0694 23.7667C76.9834 30.8016 77.7458 38.5427 76.2603 46.011C74.9621 52.5372 71.9983 58.599 67.6782 63.6175C66.6426 64.8204 64.8138 64.8138 63.6914 63.6914V63.6914C62.5691 62.5691 62.5801 60.7568 63.5998 59.5405C67.1243 55.3361 69.5465 50.3005 70.6228 44.8896C71.8865 38.5363 71.2379 31.951 68.759 25.9663C66.2801 19.9817 62.0821 14.8665 56.6961 11.2676C51.31 7.6688 44.9778 5.74793 38.5 5.74793C32.0223 5.74793 25.69 7.6688 20.3039 11.2676C14.9179 14.8665 10.72 19.9817 8.24105 25.9663C5.76212 31.951 5.11352 38.5363 6.37727 44.8896C7.45356 50.3005 9.87577 55.3361 13.4002 59.5405C14.4199 60.7568 14.431 62.5691 13.3086 63.6914V63.6914Z" fill="var(--fill-0, white)" fill-opacity="0.1" stroke="var(--stroke-0, white)" stroke-opacity="0.2" stroke-width="1.62105" mask="url(#path-1-inside-1_42_1120)"/>
</g>
<path id="Ellipse 7" d="M11.9734 65.0266C11.5885 65.4116 10.9634 65.4124 10.5884 65.0178V65.0178C10.2135 64.6231 10.2463 63.9989 10.6505 63.6342L13.5633 61.0053C13.9071 60.695 14.4366 60.723 14.7555 61.0588V61.0588C15.0745 61.3945 15.0753 61.9247 14.7479 62.2521L11.9734 65.0266Z" fill="var(--fill-0, #FB2C36)"/>
</g>
</svg>
