<svg preserveAspectRatio="none" width="100%" height="100%" overflow="visible" style="display: block;" viewBox="0 0 30 30" fill="none" xmlns="http://www.w3.org/2000/svg">
<g id="btn-logout">
<circle id="Ellipse 1095" cx="15" cy="15" r="14.5" fill="var(--fill-0, #090909)" stroke="url(#paint0_linear_914_6786)"/>
<g id="icon" clip-path="url(#clip0_914_6786)">
<path id="Vector" d="M18.9252 16.713C18.696 16.713 18.5102 16.8987 18.5102 17.128V18.7479C18.5102 19.0608 18.2556 19.3153 17.9428 19.3153H15.7666V12.8324C15.7666 12.3196 15.512 11.8786 15.0679 11.6222L11.9638 9.83H17.9428C18.2556 9.83 18.5102 10.0845 18.5102 10.3974V12.2452C18.5102 12.4744 18.696 12.6602 18.9252 12.6602C19.1544 12.6602 19.3402 12.4744 19.3402 12.2452V10.3974C19.3402 9.62688 18.7133 9 17.9428 9H11.3974C10.6269 9 10 9.62688 10 10.3974V19.1631C10 19.6759 10.2547 20.117 10.6987 20.3734L13.6705 22.0891C13.8926 22.2173 14.1309 22.2814 14.3692 22.2814C14.6075 22.2813 14.8459 22.2173 15.0679 22.0891C15.512 21.8328 15.7666 21.3917 15.7666 20.8789V20.1453H17.9427C18.7133 20.1453 19.3401 19.5185 19.3401 18.7479V17.128C19.3402 16.8987 19.1544 16.713 18.9252 16.713ZM14.9366 20.8789C14.9366 21.0902 14.8359 21.2647 14.6529 21.3703C14.47 21.4759 14.2685 21.4759 14.0855 21.3703L11.1137 19.6546C10.9307 19.5489 10.83 19.3744 10.83 19.1631V10.3974C10.83 10.3139 10.8481 10.2345 10.8807 10.1631L14.6529 12.341C14.8359 12.4466 14.9366 12.6211 14.9366 12.8324V20.8789ZM21.7345 14.8661L20.3859 16.2147C20.3049 16.2957 20.1987 16.3362 20.0925 16.3362C19.9863 16.3362 19.8801 16.2957 19.7991 16.2147C19.637 16.0526 19.637 15.7898 19.7991 15.6278L20.4392 14.9877H16.6264C16.3972 14.9877 16.2114 14.8019 16.2114 14.5727C16.2114 14.3435 16.3972 14.1577 16.6264 14.1577H20.4391L19.7991 13.5176C19.637 13.3555 19.637 13.0927 19.7991 12.9307C19.9611 12.7686 20.2239 12.7686 20.3859 12.9307L21.7345 14.2792C21.8965 14.4413 21.8965 14.7041 21.7345 14.8661Z" fill="var(--fill-0, white)"/>
</g>
</g>
<defs>
<linearGradient id="paint0_linear_914_6786" x1="15" y1="0" x2="15" y2="30" gradientUnits="userSpaceOnUse">
<stop stop-color="#94A3B8"/>
<stop offset="0.28744" stop-color="#94A3B8" stop-opacity="0.2"/>
<stop offset="0.725484" stop-color="#94A3B8" stop-opacity="0.2"/>
<stop offset="1" stop-color="#94A3B8"/>
</linearGradient>
<clipPath id="clip0_914_6786">
<rect width="12" height="14" fill="white" transform="translate(10 9)"/>
</clipPath>
</defs>
</svg>
