<svg preserveAspectRatio="none" width="100%" height="100%" overflow="visible" style="display: block;" viewBox="0 0 15.64 15.64" fill="none" xmlns="http://www.w3.org/2000/svg">
<g id="icon" clip-path="url(#clip0_914_6793)">
<path id="Vector" d="M7.74038 0.000458984C3.4659 0.000458984 -5.85937e-05 3.46574 -5.85937e-05 7.74056C-5.85937e-05 12.0154 3.46556 15.4807 7.74038 15.4807C12.0155 15.4807 15.4808 12.0154 15.4808 7.74056C15.4808 3.46574 12.0155 0.000458984 7.74038 0.000458984ZM7.74038 2.31484C9.15478 2.31484 10.3009 3.46132 10.3009 4.87504C10.3009 6.2891 9.15478 7.43524 7.74038 7.43524C6.32666 7.43524 5.18052 6.2891 5.18052 4.87504C5.18052 3.46132 6.32666 2.31484 7.74038 2.31484ZM7.73868 13.457C6.32802 13.457 5.03602 12.9432 4.03948 12.0929C3.79672 11.8858 3.65664 11.5822 3.65664 11.2636C3.65664 9.82986 4.81706 8.68236 6.25118 8.68236H9.23026C10.6647 8.68236 11.8207 9.82986 11.8207 11.2636C11.8207 11.5826 11.6813 11.8855 11.4382 12.0926C10.442 12.9432 9.14968 13.457 7.73868 13.457Z" fill="var(--fill-0, #94A3B8)"/>
</g>
<defs>
<clipPath id="clip0_914_6793">
<rect width="15.64" height="15.64" fill="white"/>
</clipPath>
</defs>
</svg>
