<svg preserveAspectRatio="none" width="100%" height="100%" overflow="visible" style="display: block;" viewBox="0 0 41.0441 11.4255" fill="none" xmlns="http://www.w3.org/2000/svg">
<g id="label">
<g id="Rectangle 2">
<g filter="url(#filter0_ii_920_6715)">
<rect width="41.0441" height="11.4255" rx="3.625" fill="url(#paint0_radial_920_6715)"/>
</g>
<rect x="0.151042" y="0.151042" width="40.742" height="11.1234" rx="3.47396" stroke="var(--stroke-0, #FE131D)" stroke-width="0.302083"/>
</g>
<path id="Vector" d="M18.4091 6.31622H20.4633L19.3898 4.5887L17.3962 7.71075H16.4762L18.8994 3.95204C18.9627 3.8908 19.0336 3.83594 19.1085 3.78873L19.1136 3.78618C19.1898 3.73897 19.2827 3.7109 19.382 3.7109H19.3898C19.4814 3.71218 19.5665 3.74025 19.6375 3.78745L19.6362 3.78618C19.7175 3.83594 19.7872 3.8908 19.8504 3.95204L22.2737 7.71075H21.3537L20.924 7.01412H18.8698L18.4091 6.31622ZM27.7912 7.01412V3.77087H27.0247V7.31778V7.32926C27.0247 7.3803 27.0363 7.42878 27.057 7.47216L27.0557 7.46961C27.0802 7.51682 27.1112 7.55637 27.1473 7.59082C27.1692 7.63292 27.2054 7.66482 27.2492 7.6814C27.2983 7.70054 27.355 7.71202 27.4144 7.71202H27.4183H30.9138L31.3435 7.0154L27.7912 7.01412ZM15.1278 6.40681H15.1471C15.5097 6.40681 15.8387 6.26264 16.0787 6.02788C16.3239 5.80205 16.4775 5.48053 16.4775 5.12329C16.4775 5.11563 16.4775 5.10925 16.4775 5.1016C16.4775 5.09139 16.4775 5.07991 16.4775 5.06715C16.4775 4.70608 16.3239 4.37946 16.0787 4.14852C15.84 3.91377 15.511 3.76959 15.1471 3.76959C15.1407 3.76959 15.1329 3.76959 15.1265 3.76959H11.7535V7.71075H12.5239V4.46749H15.0684H15.0878C15.2607 4.46749 15.4155 4.53766 15.5278 4.64994C15.6413 4.76094 15.7123 4.91532 15.7123 5.08501V5.10543V5.10415C15.711 5.27512 15.6413 5.43077 15.5291 5.54432C15.4194 5.66553 15.2594 5.74208 15.0826 5.74208C15.0774 5.74208 15.0723 5.74208 15.0684 5.74208H12.889L15.1884 7.7133H16.2916L14.7574 6.40936L15.1278 6.40681ZM7.03216 7.71075C7.02958 7.71075 7.02571 7.71075 7.02184 7.71075C6.47989 7.71075 5.98956 7.49002 5.63859 7.13533C5.26955 6.79212 5.04116 6.30729 5.04116 5.76888C5.04116 5.75867 5.04116 5.74846 5.04116 5.73826V5.73953C5.04116 5.73188 5.04116 5.72167 5.04116 5.71146C5.04116 5.17305 5.27084 4.68822 5.63859 4.34628L5.63988 4.34501C5.99215 3.98904 6.48247 3.76959 7.02442 3.76959H7.03474H9.3651H9.39736C9.93801 3.76959 10.4258 3.99032 10.7754 4.34501C11.1354 4.69077 11.3574 5.17305 11.3574 5.70763V5.74081V5.76888C11.3574 6.30474 11.1329 6.78829 10.7729 7.13406C10.4232 7.49002 9.93543 7.70947 9.39478 7.70947C9.38316 7.70947 9.37155 7.70947 9.36123 7.70947L7.03216 7.71075ZM9.30316 7.01412H9.33413C9.68381 7.01412 9.99995 6.86867 10.2219 6.63519C10.449 6.40936 10.5896 6.09805 10.5896 5.75484C10.5896 5.74974 10.5896 5.74463 10.5896 5.74081V5.74208C10.5896 5.73188 10.5896 5.71912 10.5896 5.70763C10.5896 5.3657 10.449 5.05567 10.2219 4.83239C9.99607 4.60784 9.68252 4.46877 9.33671 4.46877C9.3251 4.46877 9.31219 4.46877 9.30058 4.46877H7.09281C7.08894 4.46877 7.08377 4.46877 7.07861 4.46877C6.73151 4.46877 6.41667 4.60784 6.18828 4.83239C5.95214 5.05311 5.80505 5.3657 5.80505 5.71146V5.74336V5.74208V5.75101C5.80505 6.09933 5.95214 6.41319 6.18699 6.63647C6.4128 6.86995 6.73022 7.0154 7.08248 7.0154H7.09152L9.30316 7.01412ZM23.8672 7.71075C23.8582 7.71075 23.8466 7.71075 23.835 7.71075C23.2943 7.71075 22.8066 7.49002 22.4569 7.13533C22.0969 6.78957 21.875 6.30729 21.875 5.7727C21.875 5.76122 21.875 5.74974 21.875 5.73953C21.875 5.7306 21.875 5.72039 21.875 5.70891C21.875 5.17432 22.0982 4.69204 22.4569 4.34628C22.8066 3.99032 23.2943 3.77087 23.835 3.77087H23.8685H23.8672H26.626L26.1653 4.46749H23.8943C23.8905 4.46749 23.8853 4.46749 23.8801 4.46749C23.533 4.46749 23.2182 4.60656 22.9898 4.83111C22.7537 5.05184 22.6066 5.36443 22.6066 5.71019V5.74208V5.74081V5.74974C22.6066 6.09805 22.7537 6.41191 22.9885 6.63519C23.2143 6.86867 23.5318 7.01412 23.884 7.01412H23.8931H26.6802L26.2195 7.71075H23.8672ZM33.2183 7.01412C33.2158 7.01412 33.2119 7.01412 33.208 7.01412C32.919 7.01412 32.6545 6.91078 32.4493 6.73981L32.4506 6.74109C32.2364 6.5714 32.0764 6.34557 31.9925 6.08402L31.9899 6.07381H35.27L35.6997 5.37718H31.9899C32.0738 5.1118 32.2325 4.89108 32.4429 4.7316L32.4454 4.72904C32.6506 4.56829 32.9138 4.47132 33.199 4.47132H33.2132H35.4829L35.9436 3.7747H33.1848C33.1758 3.7747 33.1642 3.7747 33.1525 3.7747C32.6119 3.7747 32.1241 3.99542 31.7745 4.35011C31.4145 4.69587 31.1925 5.17815 31.1925 5.71274V5.74591V5.74464V5.77653C31.1925 6.31112 31.4157 6.7934 31.7745 7.13916C32.1241 7.49513 32.6119 7.71457 33.1525 7.71457H33.1861H35.5423L36.0029 7.01795L33.2183 7.01412Z" fill="var(--fill-0, #FE131D)"/>
</g>
<defs>
<filter id="filter0_ii_920_6715" x="0" y="0" width="41.0441" height="16.2588" filterUnits="userSpaceOnUse" color-interpolation-filters="sRGB">
<feFlood flood-opacity="0" result="BackgroundImageFix"/>
<feBlend mode="normal" in="SourceGraphic" in2="BackgroundImageFix" result="shape"/>
<feColorMatrix in="SourceAlpha" type="matrix" values="0 0 0 0 0 0 0 0 0 0 0 0 0 0 0 0 0 0 127 0" result="hardAlpha"/>
<feOffset dy="4.83333"/>
<feGaussianBlur stdDeviation="8.45833"/>
<feComposite in2="hardAlpha" operator="arithmetic" k2="-1" k3="1"/>
<feColorMatrix type="matrix" values="0 0 0 0 0 0 0 0 0 0 0 0 0 0 0 0 0 0 0.5 0"/>
<feBlend mode="normal" in2="shape" result="effect1_innerShadow_920_6715"/>
<feColorMatrix in="SourceAlpha" type="matrix" values="0 0 0 0 0 0 0 0 0 0 0 0 0 0 0 0 0 0 127 0" result="hardAlpha"/>
<feOffset/>
<feGaussianBlur stdDeviation="2.41667"/>
<feComposite in2="hardAlpha" operator="arithmetic" k2="-1" k3="1"/>
<feColorMatrix type="matrix" values="0 0 0 0 0.996078 0 0 0 0 0.0745098 0 0 0 0 0.113725 0 0 0 0.3 0"/>
<feBlend mode="normal" in2="effect1_innerShadow_920_6715" result="effect2_innerShadow_920_6715"/>
</filter>
<radialGradient id="paint0_radial_920_6715" cx="0" cy="0" r="1" gradientUnits="userSpaceOnUse" gradientTransform="translate(20.522 5.71273) scale(41.1811 4.7427)">
<stop stop-color="#1E1E1E" stop-opacity="0"/>
<stop offset="1" stop-color="#1E1E1E" stop-opacity="0.5"/>
</radialGradient>
</defs>
</svg>
