<svg preserveAspectRatio="none" width="100%" height="100%" overflow="visible" style="display: block;" viewBox="0 0 16 16" fill="none" xmlns="http://www.w3.org/2000/svg">
<g id="Icon">
<g id="Union" opacity="0.5">
<path fill-rule="evenodd" clip-rule="evenodd" d="M8 4C9.47276 4 10.667 5.19423 10.667 6.66699C10.6668 8.13958 9.47264 9.33398 8 9.33398C6.52736 9.33398 5.33321 8.13958 5.33301 6.66699C5.33301 5.19423 6.52724 4 8 4ZM8 5.33398C7.26362 5.33398 6.66699 5.93061 6.66699 6.66699C6.66719 7.4032 7.26374 8 8 8C8.73626 8 9.33281 7.4032 9.33301 6.66699C9.33301 5.93061 8.73638 5.33398 8 5.33398Z" fill="var(--fill-0, #D1D5DC)"/>
<path fill-rule="evenodd" clip-rule="evenodd" d="M8 0.666016C9.59117 0.666103 11.118 1.2987 12.2432 2.42383C13.3681 3.54887 13.9998 5.07504 14 6.66602C14 8.5548 12.9654 10.4014 11.8633 11.8496C10.7458 13.3179 9.47384 14.4871 8.83691 15.0371C8.82568 15.0468 8.81361 15.0565 8.80176 15.0654C8.57082 15.2391 8.28892 15.3329 8 15.333C7.71118 15.3329 7.43011 15.2389 7.19922 15.0654C7.18728 15.0565 7.17537 15.0469 7.16406 15.0371C6.52727 14.4873 5.25544 13.3182 4.1377 11.8496C3.03549 10.4014 2 8.55501 2 6.66602C2.00018 5.07497 2.63276 3.54888 3.75781 2.42383C4.88292 1.2989 6.40898 0.666102 8 0.666016ZM8 2C6.7626 2.00009 5.57526 2.49134 4.7002 3.36621C3.82519 4.24122 3.33417 5.42859 3.33398 6.66602C3.33398 8.10553 4.14521 9.65713 5.19922 11.042C6.21734 12.3797 7.38611 13.4623 8 13.9951C8.61389 13.4623 9.78364 12.3797 10.8018 11.042C11.8556 9.65725 12.667 8.10536 12.667 6.66602C12.6668 5.42859 12.1748 4.24122 11.2998 3.36621C10.4247 2.49133 9.2374 2.00009 8 2Z" fill="var(--fill-0, #D1D5DC)"/>
</g>
</g>
</svg>
