<svg preserveAspectRatio="none" width="100%" height="100%" overflow="visible" style="display: block;" viewBox="0 0 16 16" fill="none" xmlns="http://www.w3.org/2000/svg">
<g id="Icon">
<path id="Union" fill-rule="evenodd" clip-rule="evenodd" d="M7.33301 1.33301C10.6466 1.33301 13.3328 4.01945 13.333 7.33301C13.333 8.74994 12.8399 10.0506 12.0186 11.0771L14.4707 13.5293C14.731 13.7897 14.731 14.2114 14.4707 14.4717C14.2104 14.7317 13.7886 14.7319 13.5283 14.4717L11.0752 12.0195C10.0489 12.8401 8.74918 13.333 7.33301 13.333C4.01945 13.3328 1.33301 10.6466 1.33301 7.33301C1.33318 4.01956 4.01956 1.33318 7.33301 1.33301ZM7.33301 2.66699C4.75594 2.66717 2.66717 4.75594 2.66699 7.33301C2.66699 9.91023 4.75583 11.9998 7.33301 12C9.91034 12 12 9.91034 12 7.33301C11.9998 4.75583 9.91023 2.66699 7.33301 2.66699Z" fill="var(--fill-0, #6A7282)"/>
</g>
</svg>
