<svg preserveAspectRatio="none" width="100%" height="100%" overflow="visible" style="display: block;" viewBox="0 0 16 16" fill="none" xmlns="http://www.w3.org/2000/svg">
<g id="Icon">
<g id="Union">
<path d="M13.9194 10.3841C14.2382 10.3817 14.499 10.6388 14.5015 10.9576C14.5033 11.1844 14.4391 11.407 14.3167 11.5979C14.1946 11.7884 14.0188 11.9386 13.8126 12.0317L8.73203 14.3421L8.73116 14.343C8.50285 14.4464 8.25475 14.5 8.00412 14.5C7.7535 14.5 7.50539 14.4463 7.27708 14.343L7.27621 14.3421L2.18258 12.0265L2.17911 12.0248C1.97624 11.9308 1.80476 11.7804 1.68458 11.5918C1.56437 11.4032 1.5001 11.1839 1.50065 10.9602C1.50163 10.6415 1.76139 10.3834 2.0802 10.3841C2.3989 10.3852 2.65704 10.6449 2.65628 10.9637C2.65633 10.9664 2.65656 10.9692 2.65802 10.9715C2.65925 10.9734 2.66129 10.9747 2.66322 10.9758L7.75252 13.2906C7.83115 13.3262 7.91781 13.3444 8.00412 13.3444C8.06876 13.3444 8.13299 13.3341 8.19412 13.314L8.25485 13.2906L13.3355 10.981L13.3381 10.9802C13.3405 10.979 13.3427 10.9772 13.3441 10.975C13.3457 10.9726 13.3468 10.9691 13.3468 10.9663C13.3444 10.6475 13.6006 10.3867 13.9194 10.3841Z" fill="var(--fill-0, #39E6C9)"/>
<path d="M13.9194 7.42218C14.2382 7.41974 14.499 7.67679 14.5015 7.99566C14.5033 8.22244 14.4391 8.445 14.3167 8.63595C14.1946 8.82644 14.0189 8.9766 13.8126 9.06974L8.73203 11.3801L8.73116 11.381C8.50285 11.4844 8.25475 11.538 8.00412 11.538C7.75351 11.538 7.50538 11.4844 7.27708 11.381L7.27621 11.3801L2.18258 9.06454L2.17911 9.0628C1.97625 8.96883 1.80475 8.8184 1.68458 8.62987C1.56437 8.44122 1.5001 8.22196 1.50065 7.99826C1.5016 7.67948 1.76138 7.42139 2.0802 7.42218C2.39892 7.42322 2.65707 7.68296 2.65628 8.00174C2.65633 8.00445 2.65656 8.00725 2.65802 8.00954C2.65925 8.01143 2.66131 8.01272 2.66322 8.01388L7.75252 10.3286C7.83114 10.3642 7.91782 10.3824 8.00412 10.3824C8.06876 10.3824 8.13299 10.3722 8.19412 10.352L8.25485 10.3286L13.3355 8.01909L13.3381 8.01822C13.3405 8.01707 13.3427 8.01521 13.3441 8.01301C13.3457 8.0106 13.3468 8.00719 13.3468 8.00434C13.3444 7.68554 13.6005 7.42474 13.9194 7.42218Z" fill="var(--fill-0, #39E6C9)"/>
<path fill-rule="evenodd" clip-rule="evenodd" d="M8.00065 1.5C8.25266 1.50002 8.50184 1.55515 8.73116 1.65964L13.8126 3.97177C14.0201 4.06331 14.1972 4.21388 14.3211 4.40383C14.4447 4.59375 14.5111 4.81574 14.5111 5.04238C14.511 5.26902 14.4448 5.49104 14.3211 5.68093C14.1972 5.87081 14.0209 6.02148 13.8135 6.11299L13.8126 6.11212L8.73724 8.41905C8.50787 8.52358 8.25879 8.57866 8.00672 8.57868C7.75455 8.57867 7.50479 8.52452 7.27534 8.41991L2.2008 6.10605C1.99342 6.01461 1.81627 5.8655 1.69239 5.67572C1.56856 5.48579 1.50246 5.26303 1.50239 5.03631C1.50241 4.80966 1.56869 4.58766 1.69239 4.39776C1.81509 4.20955 1.98975 4.06092 2.19472 3.96917L7.27014 1.65877C7.49955 1.55417 7.74851 1.50004 8.00065 1.5ZM8.00065 2.65563C7.91381 2.65567 7.82806 2.67425 7.74905 2.71029L2.67277 5.01982L2.66669 5.02329C2.66407 5.02445 2.66132 5.02609 2.65975 5.0285C2.65842 5.03076 2.65804 5.03366 2.65802 5.03631C2.65805 5.03888 2.65843 5.04192 2.65975 5.04411L2.66669 5.05019L2.67277 5.05279L7.75512 7.36839L7.81498 7.39269C7.87658 7.41316 7.94154 7.42391 8.00672 7.42392C8.09359 7.42389 8.18015 7.40445 8.25919 7.36839L13.3415 5.05886L13.3468 5.05626C13.3493 5.05513 13.3521 5.05253 13.3537 5.05019C13.3551 5.04794 13.3562 5.04502 13.3563 5.04238C13.3563 5.03974 13.3551 5.03683 13.3537 5.03457C13.3522 5.03225 13.3493 5.02971 13.3468 5.0285L13.3407 5.02589L8.25312 2.71029C8.17408 2.67424 8.08753 2.65566 8.00065 2.65563Z" fill="var(--fill-0, #39E6C9)"/>
</g>
</g>
</svg>
