<svg preserveAspectRatio="none" width="100%" height="100%" overflow="visible" style="display: block;" viewBox="0 0 14 14" fill="none" xmlns="http://www.w3.org/2000/svg">
<g id="Icon">
<path id="Vector" d="M11.9187 11.915C12.2369 11.915 12.5421 11.7911 12.7672 11.5705C12.9922 11.3498 13.1187 11.0506 13.1187 10.7386V4.85622C13.1187 4.5442 12.9922 4.24496 12.7672 4.02433C12.5421 3.80369 12.2369 3.67975 11.9187 3.67975H7.17865C6.97796 3.68167 6.77998 3.63422 6.60283 3.54173C6.42569 3.44924 6.27503 3.31467 6.16465 3.15033L5.67865 2.44445C5.56939 2.28179 5.42064 2.14826 5.24575 2.05586C5.07087 1.96346 4.87532 1.91507 4.67665 1.91504H2.31865C2.00039 1.91504 1.69517 2.03899 1.47012 2.25962C1.24508 2.48025 1.11865 2.77949 1.11865 3.09151V10.7386C1.11865 11.0506 1.24508 11.3498 1.47012 11.5705C1.69517 11.7911 2.00039 11.915 2.31865 11.915H11.9187Z" stroke="var(--stroke-0, #D1D5DC)" stroke-width="1.3" stroke-linecap="round" stroke-linejoin="round"/>
</g>
</svg>
