<svg preserveAspectRatio="none" width="100%" height="100%" overflow="visible" style="display: block;" viewBox="0 0 43.664 30.9098" fill="none" xmlns="http://www.w3.org/2000/svg">
<g id="item">
<g id="bottom" filter="url(#filter0_f_920_6706)">
<path fill-rule="evenodd" clip-rule="evenodd" d="M42.3735 18.7644C42.3735 24.7594 33.1772 29.6193 21.832 29.6193C10.4876 29.6193 1.29048 24.7594 1.29048 18.7644C1.29048 12.7693 10.4876 7.90948 21.832 7.90948C33.1772 7.90948 42.3735 12.7693 42.3735 18.7644Z" fill="url(#paint0_linear_920_6706)" fill-opacity="0.5"/>
</g>
<foreignObject x="0.188959" y="8.87141" width="43.2875" height="22.0428"><div xmlns="http://www.w3.org/1999/xhtml" style="backdrop-filter:blur(0.55px);clip-path:url(#bgblur_0_920_6706_clip_path);height:100%;width:100%"></div></foreignObject><g id="front" filter="url(#filter1_i_920_6706)" data-figma-bg-blur-radius="1.1027">
<path fill-rule="evenodd" clip-rule="evenodd" d="M42.3514 9.97411C42.3631 10.1277 42.3729 10.2823 42.3729 10.4377C42.3729 16.5149 33.1766 21.4417 21.8323 21.4417C10.4879 21.4417 1.29166 16.5149 1.29166 10.4377V18.8074C1.29166 24.8847 10.4879 29.8115 21.8323 29.8115C33.1766 29.8115 42.3729 24.8847 42.3729 18.8074L42.3738 9.97411H42.3514Z" fill="url(#paint1_linear_920_6706)" fill-opacity="0.4"/>
</g>
<g id="top">
<g filter="url(#filter2_i_920_6706)">
<path fill-rule="evenodd" clip-rule="evenodd" d="M42.3735 10.8549C42.3735 16.85 33.1772 21.7098 21.832 21.7098C10.4876 21.7098 1.29048 16.85 1.29048 10.8549C1.29048 4.85983 10.4876 0 21.832 0C33.1772 0 42.3735 4.85983 42.3735 10.8549Z" fill="url(#paint2_linear_920_6706)" fill-opacity="0.2"/>
</g>
<path d="M21.8325 0.162109C27.4839 0.162179 32.5923 1.37262 36.2817 3.32227C39.9784 5.27575 42.2112 7.94694 42.2114 10.8545C42.2114 13.7621 39.9783 16.4332 36.2817 18.3867C32.5923 20.3364 27.4839 21.5478 21.8325 21.5479C16.1814 21.5479 11.0729 20.3364 7.38325 18.3867C3.68629 16.4331 1.45259 13.7622 1.45259 10.8545C1.4528 7.94694 3.68646 5.27575 7.38325 3.32227C11.0728 1.37271 16.1815 0.162109 21.8325 0.162109Z" stroke="url(#paint3_linear_920_6706)" stroke-opacity="0.5" stroke-width="0.324323"/>
</g>
<g id="dot">
<path id="Vector" d="M36.1293 24.1643C36.1293 24.5478 35.8175 24.8559 35.4342 24.8559C35.0508 24.8559 34.7391 24.5478 34.7391 24.1643C34.7391 23.7809 35.0508 23.4691 35.4342 23.4691C35.8175 23.4691 36.1293 23.7809 36.1293 24.1643Z" fill="url(#paint4_radial_920_6706)"/>
<path id="Vector_2" d="M33.8717 25.132C33.8717 25.5155 33.5599 25.8236 33.1765 25.8236C32.7931 25.8236 32.4814 25.5155 32.4814 25.132C32.4814 24.7487 32.7931 24.4369 33.1765 24.4369C33.5599 24.4369 33.8717 24.7487 33.8717 25.132Z" fill="url(#paint5_radial_920_6706)"/>
<path id="Vector_3" d="M31.2906 25.7776C31.2906 26.1611 30.9788 26.4692 30.5955 26.4692C30.2121 26.4692 29.9004 26.1611 29.9004 25.7776C29.9004 25.3942 30.2121 25.0825 30.5955 25.0825C30.9788 25.0825 31.2906 25.3942 31.2906 25.7776Z" fill="url(#paint6_radial_920_6706)"/>
</g>
</g>
<defs>
<filter id="filter0_f_920_6706" x="0" y="6.619" width="43.664" height="24.2908" filterUnits="userSpaceOnUse" color-interpolation-filters="sRGB">
<feFlood flood-opacity="0" result="BackgroundImageFix"/>
<feBlend mode="normal" in="SourceGraphic" in2="BackgroundImageFix" result="shape"/>
<feGaussianBlur stdDeviation="0.64524" result="effect1_foregroundBlur_920_6706"/>
</filter>
<filter id="filter1_i_920_6706" x="0.188959" y="8.87141" width="43.2875" height="22.0428" filterUnits="userSpaceOnUse" color-interpolation-filters="sRGB">
<feFlood flood-opacity="0" result="BackgroundImageFix"/>
<feBlend mode="normal" in="SourceGraphic" in2="BackgroundImageFix" result="shape"/>
<feColorMatrix in="SourceAlpha" type="matrix" values="0 0 0 0 0 0 0 0 0 0 0 0 0 0 0 0 0 0 127 0" result="hardAlpha"/>
<feOffset dy="-0.97297"/>
<feGaussianBlur stdDeviation="2.27026"/>
<feComposite in2="hardAlpha" operator="arithmetic" k2="-1" k3="1"/>
<feColorMatrix type="matrix" values="0 0 0 0 1 0 0 0 0 1 0 0 0 0 1 0 0 0 0.1 0"/>
<feBlend mode="normal" in2="shape" result="effect1_innerShadow_920_6706"/>
</filter>
<clipPath id="bgblur_0_920_6706_clip_path" transform="translate(-0.188959 -8.87141)"><path fill-rule="evenodd" clip-rule="evenodd" d="M42.3514 9.97411C42.3631 10.1277 42.3729 10.2823 42.3729 10.4377C42.3729 16.5149 33.1766 21.4417 21.8323 21.4417C10.4879 21.4417 1.29166 16.5149 1.29166 10.4377V18.8074C1.29166 24.8847 10.4879 29.8115 21.8323 29.8115C33.1766 29.8115 42.3729 24.8847 42.3729 18.8074L42.3738 9.97411H42.3514Z"/>
</clipPath><filter id="filter2_i_920_6706" x="1.29048" y="-1.29729" width="41.083" height="23.0071" filterUnits="userSpaceOnUse" color-interpolation-filters="sRGB">
<feFlood flood-opacity="0" result="BackgroundImageFix"/>
<feBlend mode="normal" in="SourceGraphic" in2="BackgroundImageFix" result="shape"/>
<feColorMatrix in="SourceAlpha" type="matrix" values="0 0 0 0 0 0 0 0 0 0 0 0 0 0 0 0 0 0 127 0" result="hardAlpha"/>
<feOffset dy="-1.29729"/>
<feGaussianBlur stdDeviation="2.27026"/>
<feComposite in2="hardAlpha" operator="arithmetic" k2="-1" k3="1"/>
<feColorMatrix type="matrix" values="0 0 0 0 1 0 0 0 0 1 0 0 0 0 1 0 0 0 0.2 0"/>
<feBlend mode="normal" in2="shape" result="effect1_innerShadow_920_6706"/>
</filter>
<linearGradient id="paint0_linear_920_6706" x1="1.29048" y1="7.90948" x2="22.472" y2="37.0919" gradientUnits="userSpaceOnUse">
<stop stop-color="#737373" stop-opacity="0.70196"/>
<stop offset="0.37" stop-color="#5E5E5E" stop-opacity="0.43"/>
<stop offset="1" stop-color="#F3F3F3" stop-opacity="0.14902"/>
</linearGradient>
<linearGradient id="paint1_linear_920_6706" x1="42.3738" y1="18.6845" x2="1.29166" y2="18.6845" gradientUnits="userSpaceOnUse">
<stop stop-color="white"/>
<stop offset="0.25" stop-color="#898989"/>
<stop offset="0.5" stop-color="#E7E7E7"/>
<stop offset="1" stop-color="#737373"/>
</linearGradient>
<linearGradient id="paint2_linear_920_6706" x1="21.832" y1="0" x2="21.832" y2="21.7098" gradientUnits="userSpaceOnUse">
<stop stop-color="#737373"/>
<stop offset="1" stop-color="#EEEEEE"/>
</linearGradient>
<linearGradient id="paint3_linear_920_6706" x1="21.832" y1="4.42111" x2="21.832" y2="33.696" gradientUnits="userSpaceOnUse">
<stop stop-color="white" stop-opacity="0"/>
<stop offset="1" stop-color="white"/>
</linearGradient>
<radialGradient id="paint4_radial_920_6706" cx="0" cy="0" r="1" gradientUnits="userSpaceOnUse" gradientTransform="translate(35.4342 24.1625) rotate(90) scale(0.693376 0.695126)">
<stop stop-color="white"/>
<stop offset="1" stop-color="white" stop-opacity="0"/>
</radialGradient>
<radialGradient id="paint5_radial_920_6706" cx="0" cy="0" r="1" gradientUnits="userSpaceOnUse" gradientTransform="translate(33.1765 25.1303) rotate(90) scale(0.693375 0.695125)">
<stop stop-color="white"/>
<stop offset="1" stop-color="white" stop-opacity="0"/>
</radialGradient>
<radialGradient id="paint6_radial_920_6706" cx="0" cy="0" r="1" gradientUnits="userSpaceOnUse" gradientTransform="translate(30.5955 25.7758) rotate(90) scale(0.693375 0.695125)">
<stop stop-color="white"/>
<stop offset="1" stop-color="white" stop-opacity="0"/>
</radialGradient>
</defs>
</svg>
