<svg preserveAspectRatio="none" width="100%" height="100%" overflow="visible" style="display: block;" viewBox="0 0 16 16" fill="none" xmlns="http://www.w3.org/2000/svg">
<g id="Icon" clip-path="url(#clip0_48_1079)">
<g id="Union">
<path d="M14.6563 10.6836C15.0152 10.6808 15.3087 10.9702 15.3115 11.3291C15.3135 11.5844 15.2413 11.8349 15.1035 12.0498C14.966 12.2642 14.7683 12.4333 14.5361 12.5381L8.81738 15.1387L8.81641 15.1396C8.5594 15.256 8.28018 15.3164 7.99805 15.3164C7.71595 15.3164 7.43668 15.256 7.17969 15.1396L7.17871 15.1387L1.44531 12.5322L1.44141 12.5303C1.21306 12.4245 1.02004 12.2552 0.884768 12.043C0.749458 11.8306 0.677113 11.5838 0.677736 11.332C0.67881 10.9732 0.971211 10.6827 1.33008 10.6836C1.68885 10.6847 1.97941 10.9771 1.97852 11.3359C1.97857 11.339 1.97883 11.3421 1.98047 11.3447C1.98185 11.3469 1.98417 11.3483 1.98633 11.3496L7.71485 13.9551C7.80336 13.9951 7.9009 14.0156 7.99805 14.0156C8.07083 14.0156 8.14309 14.0041 8.21192 13.9814L8.28028 13.9551L13.999 11.3555L14.002 11.3545C14.0047 11.3532 14.0071 11.3511 14.0088 11.3486C14.0105 11.3459 14.0117 11.3421 14.0117 11.3389C14.009 10.98 14.2974 10.6865 14.6563 10.6836Z" fill="var(--fill-0, #39E6C9)"/>
<path d="M14.6563 7.34961C15.0152 7.34684 15.3087 7.63618 15.3115 7.99512C15.3135 8.25039 15.2413 8.50088 15.1035 8.71582C14.966 8.93025 14.7683 9.09927 14.5361 9.2041L8.81738 11.8047L8.81641 11.8057C8.5594 11.922 8.28018 11.9824 7.99805 11.9824C7.71595 11.9824 7.43668 11.922 7.17969 11.8057L7.17871 11.8047L1.44531 9.19824L1.44141 9.19629C1.21306 9.09051 1.02004 8.9212 0.884768 8.70898C0.749458 8.49664 0.677113 8.24984 0.677736 7.99805C0.67881 7.63922 0.971211 7.34872 1.33008 7.34961C1.68885 7.35075 1.97941 7.64312 1.97852 8.00195C1.97857 8.00501 1.97883 8.00816 1.98047 8.01074C1.98185 8.01288 1.98417 8.01431 1.98633 8.01562L7.71485 10.6211C7.80336 10.6612 7.9009 10.6816 7.99805 10.6816C8.07083 10.6816 8.14309 10.6701 8.21192 10.6475L8.28028 10.6211L13.999 8.02148L14.002 8.02051C14.0047 8.01922 14.0071 8.01713 14.0088 8.01465C14.0105 8.01193 14.0117 8.0081 14.0117 8.00488C14.009 7.64605 14.2974 7.35248 14.6563 7.34961Z" fill="var(--fill-0, #39E6C9)"/>
<path fill-rule="evenodd" clip-rule="evenodd" d="M7.99414 0.683594C8.27778 0.683629 8.5583 0.74568 8.81641 0.863281L14.5361 3.46582C14.7696 3.56885 14.969 3.73835 15.1084 3.95215C15.2476 4.16592 15.3223 4.41579 15.3223 4.6709C15.3222 4.92603 15.2477 5.1759 15.1084 5.38965C14.969 5.60339 14.7706 5.77297 14.5371 5.87598L14.5361 5.875L8.82324 8.47168C8.56508 8.58934 8.28469 8.65133 8.00098 8.65137C7.71714 8.65135 7.43599 8.5904 7.17774 8.47266L1.46582 5.86816C1.2324 5.76524 1.03299 5.59741 0.893557 5.38379C0.754167 5.16999 0.679761 4.91928 0.67969 4.66406C0.679721 4.40892 0.754288 4.15909 0.893557 3.94531C1.03167 3.73347 1.22826 3.56617 1.45899 3.46289L7.17188 0.862305C7.43009 0.744581 7.71036 0.683637 7.99414 0.683594ZM7.99414 1.98438C7.89642 1.98442 7.79986 2.00535 7.71094 2.0459L1.99707 4.64551L1.99024 4.64941C1.98728 4.65072 1.98419 4.65257 1.98242 4.65527C1.98089 4.65784 1.9805 4.66106 1.98047 4.66406C1.9805 4.66698 1.98092 4.67036 1.98242 4.67285L1.99024 4.67969L1.99707 4.68262L7.71778 7.28906L7.78516 7.31641C7.85448 7.33945 7.92762 7.35155 8.00098 7.35156C8.09874 7.35153 8.1962 7.32964 8.28516 7.28906L14.0059 4.68945L14.0117 4.68652C14.0146 4.68523 14.0178 4.68233 14.0195 4.67969C14.0211 4.67714 14.0224 4.6739 14.0225 4.6709C14.0225 4.66792 14.0211 4.66466 14.0195 4.66211C14.0178 4.65951 14.0146 4.65664 14.0117 4.65527L14.0049 4.65234L8.27832 2.0459C8.18937 2.00532 8.09191 1.98441 7.99414 1.98438Z" fill="var(--fill-0, #39E6C9)"/>
</g>
</g>
<defs>
<clipPath id="clip0_48_1079">
<rect width="16" height="16" fill="white"/>
</clipPath>
</defs>
</svg>
