<svg preserveAspectRatio="none" width="100%" height="100%" overflow="visible" style="display: block;" viewBox="0 0 768.942 99.3173" fill="none" xmlns="http://www.w3.org/2000/svg">
<g id="graph">
<path id="yellow" d="M768.555 89.5072L755.004 90.7025L741.453 88.5112L727.902 90.7025L714.352 88.9096L702.494 89.9057L680.474 89.5072L659.301 90.7025L642.362 89.5072L637.281 89.9057L629.658 90.7025L614.413 89.5072L606.791 89.9057H590.699L576.301 90.7025H562.75H547.506L534.802 91.3002L524.638 91.6986L506.006 89.9057L489.067 88.9096L450.955 88.5112L427.897 92.2932L395.057 86.3198L382.353 88.9096L357.792 89.5072L334.925 90.7025L318.833 91.6986H264.63L189.253 92.2962H157.916L137.59 91.6986H129.12H125.733L120.651 90.7025H116.416H109.641L94.396 91.6986L87.6205 90.7025L79.9981 89.9057L65.6002 89.5072L46.9677 87.9135L34.2637 88.7104H25.7944C24.4393 88.7104 16.1958 89.5072 12.2434 89.9057L2.92714 90.7025L0.386341 89.5072V99.3173H768.555V89.5072Z" fill="url(#paint0_linear_926_6908)"/>
<path id="yellow_2" d="M768.555 89.5072L755.517 90.6574C755.176 90.6874 754.834 90.675 754.497 90.6205L742.111 88.6175C741.675 88.5471 741.231 88.5471 740.796 88.6175L728.5 90.6059C728.104 90.67 727.7 90.6758 727.302 90.6231L714.793 88.968C714.5 88.9292 714.203 88.9221 713.908 88.9469L702.494 89.9057L680.474 89.5072L659.301 90.7025L642.668 89.5288C642.464 89.5145 642.26 89.5153 642.056 89.5312L637.281 89.9057L630.033 90.6633C629.784 90.6894 629.532 90.6927 629.282 90.6731L614.413 89.5072L606.791 89.9057H590.699L576.301 90.7025H562.75H547.506L534.802 91.3002L524.638 91.6986L506.006 89.9057L489.067 88.9096L451.312 88.5149C451.075 88.5124 450.837 88.5305 450.603 88.569L428.6 92.1778C428.135 92.2542 427.66 92.25 427.196 92.1656L395.839 86.462C395.323 86.3681 394.793 86.3737 394.279 86.4785L382.711 88.8367C382.473 88.8852 382.231 88.9126 381.988 88.9185L357.792 89.5072L334.925 90.7025L318.833 91.6986H264.63L189.253 92.2962H157.916L137.59 91.6986H129.12H126.133C125.866 91.6986 125.601 91.6728 125.34 91.6217L121.043 90.7795C120.782 90.7283 120.517 90.7025 120.251 90.7025H116.416H109.641L94.8318 91.6701C94.5421 91.6891 94.2512 91.6773 93.9639 91.6351L87.6205 90.7025L79.9981 89.9057L65.6002 89.5072L47.272 87.9396C47.0694 87.9222 46.8658 87.9199 46.6629 87.9326L34.2637 88.7104C32.0052 88.7104 27.1494 88.7104 25.7944 88.7104C24.4393 88.7104 16.1958 89.5072 12.2434 89.9057L4.03026 90.6082C3.30767 90.67 2.58156 90.54 1.92532 90.2312L0.386341 89.5072" stroke="var(--stroke-0, #FFCF5F)" stroke-width="0.7725" stroke-linecap="round" stroke-linejoin="round"/>
<line id="blue-dot" x1="0.395863" y1="77.8236" x2="768.655" y2="77.8236" stroke="var(--stroke-0, #2B66F6)" stroke-width="0.5" stroke-dasharray="6 2"/>
<line id="yellow-dot" x1="0.395863" y1="0.250047" x2="768.655" y2="0.25" stroke="var(--stroke-0, #FFD21E)" stroke-width="0.5" stroke-dasharray="6 2"/>
</g>
<defs>
<linearGradient id="paint0_linear_926_6908" x1="384.471" y1="99.3173" x2="384.471" y2="86.3198" gradientUnits="userSpaceOnUse">
<stop stop-color="#FFCF5F" stop-opacity="0"/>
<stop offset="1" stop-color="#FFCF5F" stop-opacity="0.2"/>
</linearGradient>
</defs>
</svg>
