<svg preserveAspectRatio="none" width="100%" height="100%" overflow="visible" style="display: block;" viewBox="0 0 6.38467 6.38467" fill="none" xmlns="http://www.w3.org/2000/svg">
<path id="icon" d="M5.73624 0.111242C5.88462 -0.0371322 6.12491 -0.0370289 6.27335 0.111242C6.42178 0.259667 6.42178 0.499926 6.27335 0.648351L3.72941 3.1923L6.27335 5.73624C6.42178 5.88467 6.42178 6.12493 6.27335 6.27335C6.12493 6.42178 5.88467 6.42178 5.73624 6.27335L3.1923 3.72941L0.648351 6.27335C0.499926 6.42178 0.259667 6.42178 0.111242 6.27335C-0.0370289 6.12491 -0.0371322 5.88462 0.111242 5.73624L2.65519 3.1923L0.111242 0.648351C-0.0370289 0.499913 -0.0371322 0.259616 0.111242 0.111242C0.259616 -0.0371322 0.499913 -0.0370289 0.648351 0.111242L3.1923 2.65519L5.73624 0.111242Z" fill="var(--fill-0, white)"/>
</svg>
