<svg preserveAspectRatio="none" width="100%" height="100%" overflow="visible" style="display: block;" viewBox="0 0 69.9994 98.5686" fill="none" xmlns="http://www.w3.org/2000/svg">
<g id="Union" style="mix-blend-mode:multiply">
<path d="M34.8069 0.00106513C36.1273 -0.0158243 37.4636 0.168004 38.6467 0.562589C38.7311 0.590734 38.815 0.619205 38.8977 0.649503C39.1462 0.74044 39.3868 0.841768 39.6184 0.952237C39.7749 1.02685 39.9311 1.10377 40.0862 1.18271C41.1733 1.73583 42.2302 2.3826 43.3127 2.94345L46.7971 4.76181C50.2755 6.5899 53.7384 8.44823 57.1848 10.336C59.8894 11.7604 62.5867 13.2033 65.2717 14.6642C66.2567 15.2053 67.3431 15.6882 68.2717 16.3165C68.3446 16.3659 68.4189 16.4178 68.4924 16.4727C68.8104 16.7103 69.1235 17.0003 69.3684 17.3243C69.5202 17.525 69.6469 17.7379 69.7278 17.963C69.7844 18.1205 69.8299 18.2972 69.8665 18.4884C69.925 18.7943 69.9594 19.1375 69.9788 19.4991C70.0077 20.0406 70.0024 20.6235 69.9856 21.1847C69.9716 21.6526 69.9505 22.1056 69.9368 22.5069C69.9299 22.7075 69.9244 22.8953 69.9231 23.0655C69.9184 23.7543 69.9874 24.4533 69.9163 25.1388C69.8717 25.5689 69.7722 25.992 69.5745 26.379C69.4889 26.5464 69.3902 26.702 69.2795 26.8468C68.505 27.8602 67.1704 28.3578 66.0627 28.919C64.8635 29.7873 63.3763 30.4438 62.0872 31.1886C63.2942 31.9038 64.5182 32.5905 65.7581 33.2462C66.8409 33.8292 68.1724 34.3521 69.0715 35.2022C69.4519 35.5619 69.6851 36.0049 69.8118 36.5099C70.0963 37.647 69.9178 39.0566 69.9241 40.2227C69.9296 41.2149 70.0238 42.2473 69.9221 43.2345C69.8721 43.7187 69.8067 44.2828 69.5481 44.7022C68.701 46.0742 64.9457 47.7795 63.4485 48.5929C62.9952 48.8398 62.4759 49.0702 62.0764 49.3975C62.1437 49.6151 65.8696 51.5855 66.4397 51.8956C67.4764 52.4607 68.8849 53.055 69.5002 54.1163C69.6705 54.3804 69.7947 54.6145 69.8479 54.9278C69.9917 55.7702 70.0047 61.3575 69.8342 62.2716C69.7028 62.9727 69.0471 63.6398 68.4749 64.0167C68.2225 64.1831 67.9305 64.3408 67.6399 64.4268C65.7753 65.3753 64.0361 66.7252 62.1223 67.5392C63.808 68.5891 65.6634 69.406 67.3928 70.3966C67.965 70.724 68.5893 71.0275 69.0833 71.4698C69.4504 71.8004 69.6644 72.0984 69.7786 72.5821C69.9802 73.4365 69.9763 78.8008 69.8372 79.7647C69.7838 80.1304 69.6844 80.4622 69.5403 80.7872L69.3811 81.1114L69.2268 81.3868C69.0696 81.6463 68.8957 81.8643 68.6438 82.0782C67.7989 82.7938 63.5924 84.9762 62.5481 85.3116C61.6883 85.9642 56.3612 88.7707 55.3694 89.3116C54.4631 89.806 51.7202 91.2353 51.3792 91.4278C50.8038 91.753 50.1929 92.0068 49.6145 92.3233C48.5825 92.8886 47.5809 93.5022 46.5364 94.0479C45.7188 94.4763 44.8704 94.8376 44.0481 95.255C43.4361 95.5653 42.838 95.9216 42.2112 96.2022C40.6271 97.1843 38.3032 98.7915 36.3313 98.5401C34.727 98.5628 33.0975 98.6753 31.5393 98.2149C30.2114 97.8224 29.0977 96.9385 27.8723 96.3185C25.4672 95.1026 23.1319 93.7832 20.7532 92.5196C19.4701 91.8379 18.146 91.2326 16.8713 90.5352C14.7454 89.3718 12.6505 88.1138 10.4895 87.0177C8.84916 86.4718 7.29059 85.341 5.77564 84.5294C4.64863 83.925 2.49719 83.027 1.58716 82.2999C0.948531 81.7894 0.410582 81.3055 0.276613 80.4591C0.0741615 78.6097 -0.268445 73.8898 0.366456 72.2413C0.504556 71.8835 0.681377 71.5855 0.972902 71.3331C1.63255 70.7625 2.51246 70.4552 3.27661 70.0558C4.36953 69.4849 5.48834 68.8584 6.62036 68.2481C7.00438 68.0411 7.3646 67.7974 7.73071 67.5606C6.18322 66.6076 4.54973 65.833 3.0188 64.8487C2.25714 64.3516 1.45136 64.0941 0.782472 63.4337C0.130059 62.7887 0.0605664 62.0956 0.0549329 61.2208C0.0449685 59.6878 -0.172499 55.3991 0.333253 54.2003C0.53345 53.7268 0.990568 53.3165 1.39868 53.0186C2.5679 52.1665 4.14036 51.5433 5.43189 50.835C6.03443 50.5051 7.51549 49.8658 7.93286 49.4444C7.17006 48.848 6.20107 48.3838 5.37036 47.8702C4.84618 47.6108 4.31509 47.3576 3.80396 47.0724C2.83153 46.6405 1.00369 45.5951 0.449464 44.7227C0.238792 44.3909 0.162388 43.9762 0.11548 43.5919C-0.035579 42.3541 -0.0727943 37.5618 0.225831 36.46C0.336067 36.0538 0.504823 35.6361 0.802003 35.3292C1.80297 34.2964 6.27897 32.1884 7.89771 31.2354L7.31275 30.7306C7.15713 30.6696 7.00091 30.6028 6.844 30.5323C5.64495 29.998 3.91414 29.0454 2.95532 28.4708L2.95337 28.4698C2.40915 28.2195 1.86647 27.9364 1.39771 27.5763C1.37449 27.5584 1.35121 27.5408 1.32837 27.5225C1.28798 27.4903 1.24837 27.4574 1.20923 27.4239C1.18448 27.4028 1.16021 27.3811 1.13599 27.3595C1.11019 27.3364 1.08303 27.3148 1.05786 27.2911L1.01001 27.2433C0.987244 27.2211 0.965793 27.1976 0.943605 27.1749C0.896423 27.1265 0.850303 27.0774 0.805909 27.0265C0.767644 26.9826 0.729642 26.9385 0.693605 26.8927C0.669609 26.8621 0.647222 26.8304 0.624269 26.7989C0.598003 26.7629 0.571961 26.7268 0.54712 26.6895C0.51967 26.6484 0.493646 26.6063 0.468019 26.5636C0.451468 26.536 0.435928 26.5078 0.420167 26.4796C0.393684 26.4321 0.367182 26.3845 0.343019 26.335C0.319794 26.2876 0.298568 26.2389 0.277589 26.1895C0.266205 26.1628 0.252157 26.1368 0.241456 26.1095C0.113224 25.782 0.0536803 25.4292 0.032472 25.0792C-0.0382189 23.9094 0.0576225 22.7043 0.063722 21.5294C0.0684838 20.6218 -0.0144077 19.682 0.0617688 18.7794C0.0931214 18.4082 0.152892 18.0272 0.301027 17.6827C0.440362 17.3587 0.696367 17.0703 0.99048 16.8175C1.10632 16.7178 1.22899 16.6249 1.35181 16.5362C1.54063 16.4001 1.73107 16.2752 1.90747 16.1651C3.67045 15.0648 5.53348 14.2154 7.35376 13.2296L20.5247 6.20028C22.3908 5.20999 24.2793 4.21354 26.1243 3.18759C27.5806 2.37778 29.5191 1.20231 31.0627 0.64169C31.2229 0.583532 31.3867 0.528978 31.554 0.478604C31.8878 0.378034 32.235 0.293863 32.5911 0.224698L33.1321 0.131925C33.6786 0.0520269 34.2413 0.00828233 34.8069 0.00106513Z" fill="var(--fill-0, #FDD01F)"/>
</g>
</svg>
