<svg preserveAspectRatio="none" width="100%" height="100%" overflow="visible" style="display: block;" viewBox="0 0 69.9995 98.5687" fill="none" xmlns="http://www.w3.org/2000/svg">
<g id="symbol">
<path id="Vector" d="M3.82201 28.8551C2.45855 28.2605 0.82914 27.6098 0.241639 26.1093C0.113317 25.7817 0.0532615 25.4288 0.0320699 25.0787C-0.038621 23.9089 0.0571703 22.7043 0.0632698 21.5293C0.0680398 20.6216 -0.0145386 19.6816 0.0617043 18.7788C0.0930616 18.4075 0.15226 18.0268 0.300445 17.6822C0.579064 17.0344 1.32468 16.5291 1.90718 16.1654C3.6703 15.065 5.53321 14.215 7.35365 13.2291L20.5248 6.20022C22.3909 5.20992 24.2785 4.21352 26.1235 3.18757C27.5798 2.37775 29.5187 1.20236 31.0625 0.64168C33.6219 -0.287779 37.1455 -0.227177 39.6181 0.952281C40.8716 1.54987 42.0751 2.30213 43.3121 2.94304C47.9641 5.35388 52.5888 7.81821 57.1844 10.3356C59.8893 11.7601 62.5856 13.2029 65.2709 14.664C66.2562 15.2053 67.3423 15.6876 68.2713 16.3162C68.8547 16.7115 69.4857 17.2898 69.7274 17.9626C70.1801 19.2224 69.933 21.7029 69.9229 23.0655C69.9182 23.7544 69.987 24.453 69.9158 25.1385C69.8713 25.5688 69.7719 25.9915 69.5741 26.3785C68.8899 27.7186 67.3283 28.2778 66.0622 28.9193C64.5562 29.1738 63.3574 30.2046 61.9717 30.7985L61.9866 30.7672C60.5174 31.4355 58.5151 31.9922 56.8928 33.2358C55.8003 33.7151 54.7681 34.3535 53.7125 34.9121C52.6544 35.4727 51.4815 35.9913 50.4852 36.6497C47.8789 38.0387 45.2851 39.5343 42.6217 40.8098C41.304 41.5886 39.9317 42.4294 38.4842 42.943C37.3926 43.3303 36.2384 43.4847 35.0834 43.4909C31.5277 43.51 30.1687 42.1786 27.1971 40.7559C24.7398 39.3521 22.185 38.0387 19.674 36.7331C17.6811 35.4876 15.2516 34.3395 13.1415 33.2403C12.6144 32.8092 10.2852 31.6713 9.59465 31.4143C9.17762 31.1806 8.80493 30.8956 8.35779 30.7141C7.98479 30.8237 7.69202 30.7923 7.3126 30.7307C6.13486 30.2694 4.90747 29.5074 3.82201 28.8551Z" fill="var(--fill-0, #C3C3C3)"/>
<path id="Vector_2" d="M3.82201 28.8551C2.45855 28.2605 0.82914 27.6098 0.241639 26.1093C0.113317 25.7817 0.0532615 25.4288 0.0320699 25.0787C-0.038621 23.9089 0.0571703 22.7043 0.0632698 21.5293C0.0680398 20.6216 -0.0145386 19.6816 0.0617043 18.7788C0.0930616 18.4075 0.15226 18.0268 0.300445 17.6822C0.579064 17.0345 1.32468 16.5291 1.90718 16.1654C3.6703 15.065 5.53321 14.215 7.35365 13.2291L20.5248 6.20022C22.3909 5.20992 24.2785 4.21352 26.1235 3.18757C27.5798 2.37775 29.5187 1.20236 31.0625 0.64168C33.6219 -0.287779 37.1455 -0.227177 39.6181 0.952281C40.8716 1.54987 42.0751 2.30213 43.3121 2.94304C47.9641 5.35388 52.5888 7.81821 57.1844 10.3356C59.8893 11.7601 62.5856 13.2029 65.2709 14.664C66.2562 15.2053 67.3423 15.6876 68.2713 16.3162C68.7052 16.6098 68.2713 16.8982 67.9429 17.1073C65.836 16.3701 63.7677 19.2335 61.8075 20.2473L56.4517 23.0508C54.6469 24.0008 52.8671 25.187 50.9935 25.9787L50.8379 25.9916C49.8479 25.6113 48.9831 24.9795 48.0564 24.4701C46.1335 23.4074 44.1927 22.3784 42.2338 21.3837C40.8739 20.6849 39.493 19.895 38.0205 19.4649C36.3158 18.9668 33.4639 18.9763 31.7472 19.4494C29.6137 20.0373 27.2966 21.5323 25.3374 22.5989L18.9731 26.0016C18.1177 25.9422 16.0888 24.5107 15.2278 24.0507C12.5881 22.6407 9.86177 21.2562 7.21125 19.8643C6.81181 19.6545 3.89593 17.9173 2.59009 17.2751C0.138965 16.4188 -0.0395892 22.4021 0.856273 25.687C0.985065 26.1594 1.24969 26.5627 1.60322 26.8977C2.43133 27.6823 3.79581 28.0846 4.77641 28.692C4.44704 28.7904 4.16717 28.8603 3.82201 28.8551Z" fill="var(--fill-0, #8A8A8A)"/>
<path id="Vector_3" d="M3.82201 28.8551C2.45855 28.2605 0.82914 27.6098 0.241639 26.1093C0.113317 25.7817 0.0532615 25.4288 0.0320699 25.0787C-0.038621 23.9089 0.0571703 22.7043 0.0632698 21.5293C0.0680398 20.6216 -0.0145386 19.6816 0.0617043 18.7788C0.0930616 18.4075 0.15226 18.0268 0.300445 17.6822C0.579064 17.0345 1.32468 16.5291 1.90718 16.1654C3.6703 15.065 5.53321 14.215 7.35365 13.2291L20.5248 6.20022C22.3909 5.20992 24.2785 4.21352 26.1235 3.18757C27.5798 2.37775 29.5187 1.20236 31.0625 0.64168C33.6219 -0.287779 37.1455 -0.227177 39.6181 0.952281C40.8716 1.54987 42.0751 2.30213 43.3121 2.94304C47.9641 5.35388 52.5888 7.81821 57.1844 10.3356C59.8893 11.7601 62.5856 13.2029 65.2709 14.664C66.2562 15.2053 67.3423 15.6876 68.2713 16.3162C68.8547 16.7115 69.4857 17.2898 69.7274 17.9626C70.1801 19.2224 69.933 21.7029 69.9229 23.0655C69.9182 23.7544 69.987 24.453 69.9158 25.1385C69.8713 25.5688 69.7719 25.9915 69.5741 26.3785C68.8899 27.7186 67.3283 28.2778 66.0622 28.9193C64.5562 29.1738 63.3574 30.2046 61.9717 30.7985L61.9866 30.7672C61.6746 30.9091 61.2664 31.041 61.0161 31.276C61.1045 31.631 61.4071 31.7235 61.6362 31.9895C61.2382 31.7851 60.8332 31.5947 60.4218 31.4184C61.741 30.621 63.0759 29.869 64.4271 29.1272C65.7127 28.4215 67.5457 27.7073 68.545 26.6633C68.7874 26.4107 69.0103 26.1211 69.0971 25.7761C69.3864 24.62 69.1964 21.4034 69.1902 20.0426C69.2011 19.5803 69.2433 19.1075 69.1323 18.6541C68.9548 17.9281 68.5787 17.4867 67.9429 17.1073C67.0568 16.5783 66.4562 16.0908 65.6024 16.7461C65.5601 16.7785 65.5197 16.813 65.4809 16.8493C64.5273 17.7417 63.4631 18.3579 62.2919 17.7799C60.9504 17.1179 59.6523 16.384 58.3097 15.6965C54.2207 13.6038 50.2217 11.3593 46.1664 9.2027C45.3992 8.79451 44.5993 8.45036 43.8306 8.04522C41.964 7.0618 39.5485 5.36741 37.5466 4.87703C35.0349 4.26193 33.0576 4.52483 30.7193 5.526C29.4681 6.06181 28.3146 6.75972 27.1245 7.41236L22.0491 10.1356C21.3467 10.5211 20.6731 10.9628 19.9642 11.3352C19.1484 11.7638 18.2819 12.0961 17.4639 12.525C16.4909 13.0352 15.5738 13.6414 14.6072 14.161C13.7773 14.607 12.9149 14.9942 12.0809 15.4348C10.6848 16.1724 8.94249 16.8655 7.43662 17.7116C6.46921 18.2551 5.36402 17.9899 4.59321 17.1917C4.26574 16.8526 3.8496 16.6158 3.19095 16.578C3.06231 16.5707 2.93876 16.5891 2.81177 16.6062C1.97325 17.1177 1.04598 17.6347 0.817489 18.6768C0.740308 19.0288 0.763453 19.4135 0.781517 19.7712C0.809903 21.1206 0.570226 24.6382 0.856273 25.687C0.985065 26.1594 1.24969 26.5627 1.60322 26.8977C2.43133 27.6823 3.79581 28.0846 4.77641 28.692C4.44704 28.7904 4.16717 28.8603 3.82201 28.8551Z" fill="var(--fill-0, #C3C3C3)"/>
<path id="Vector_4" d="M0.78166 19.771C0.878859 20.3935 1.30652 20.784 1.79776 21.1449C2.38777 21.5783 3.15731 22.0233 3.83927 22.2748C10.8725 25.8989 17.8046 29.7215 24.8276 33.3682C26.9677 34.4794 29.7184 36.323 31.9281 36.9703C33.884 37.5433 36.4981 37.4976 38.4359 36.8654C40.1554 36.3041 42.7414 34.6499 44.4243 33.7346L55.3727 27.9094C56.1758 27.5811 56.9461 27.1231 57.7124 26.7173L61.6786 24.6172C63.7516 23.514 66.0882 22.4774 68.0252 21.1683C68.5029 20.8454 68.847 20.5034 69.1903 20.0424C69.1966 21.4031 69.3866 24.6198 69.0972 25.7759C69.0104 26.1209 68.7876 26.4105 68.5452 26.663C67.5458 27.7071 65.7128 28.4212 64.4273 29.127C63.076 29.8688 61.7412 30.6208 60.422 31.4182C59.5798 31.7486 57.5826 32.7069 56.8929 33.2356C55.8005 33.7149 54.7683 34.3533 53.7126 34.9119C52.6546 35.4725 51.4816 35.9911 50.4854 36.6495C47.879 38.0385 45.2852 39.5341 42.6218 40.8096C41.3042 41.5884 39.9318 42.4292 38.4844 42.9428C37.3927 43.3301 36.2385 43.4845 35.0835 43.4907C31.5278 43.5098 30.1689 42.1784 27.1973 40.7557C24.7399 39.3519 22.1852 38.0385 19.6741 36.7329C17.6812 35.4874 15.2518 34.3393 13.1417 33.2401C12.6146 32.809 10.2854 31.6711 9.59479 31.4141C9.17776 31.1804 8.80507 30.8954 8.35793 30.7138C6.97379 29.8926 5.65641 29.1168 4.77655 28.6918C3.79595 28.0844 2.43148 27.682 1.60336 26.8975C1.24983 26.5625 0.985208 26.1591 0.856416 25.6868C0.570368 24.638 0.810045 21.1204 0.78166 19.771Z" fill="url(#paint0_linear_8217_24134)"/>
<path id="Vector_5" d="M0.78166 38.0268C0.878859 38.6493 1.30652 39.0398 1.79776 39.4007C2.38777 39.8341 3.15731 40.279 3.83927 40.5306C10.8725 44.1547 17.8046 47.9773 24.8276 51.624C26.9677 52.7352 29.7184 54.5788 31.9281 55.2261C33.884 55.7991 36.4981 55.7534 38.4359 55.1211C40.1554 54.5598 42.7414 52.9057 44.4243 51.9904L55.3727 46.1651C56.1758 45.8369 56.9461 45.3789 57.7124 44.9731L61.6786 42.873C63.7516 41.7698 66.0882 40.7332 68.0252 39.4241C68.5029 39.1011 68.847 38.7592 69.1903 38.2982C69.1966 39.6589 69.3866 42.8756 69.0972 44.0317C69.0104 44.3767 68.7876 44.6662 68.5452 44.9188C67.5458 45.9628 65.7128 46.677 64.4273 47.3828C63.076 48.1245 61.7412 48.8766 60.422 49.674C59.5798 50.0044 57.5826 50.9627 56.8929 51.4914C55.8005 51.9706 54.7683 52.609 53.7126 53.1677C52.6546 53.7283 51.4816 54.2469 50.4854 54.9052C47.879 56.2943 45.2852 57.7899 42.6218 59.0654C41.3042 59.8441 39.9318 60.685 38.4844 61.1986C37.3927 61.5858 36.2385 61.7403 35.0835 61.7465C31.5278 61.7655 30.1689 60.4341 27.1973 59.0115C24.7399 57.6077 22.1852 56.2943 19.6741 54.9887C17.6812 53.7431 15.2518 52.5951 13.1417 51.4959C12.6146 51.0648 10.2854 49.9269 9.59479 49.6699C9.17776 49.4362 8.80507 49.1512 8.35793 48.9696C6.97379 48.1484 5.65641 47.3726 4.77655 46.9476C3.79595 46.3402 2.43148 45.9378 1.60336 45.1533C1.24983 44.8183 0.985208 44.4149 0.856416 43.9426C0.570368 42.8937 0.810045 39.3762 0.78166 38.0268Z" fill="url(#paint1_linear_8217_24134)"/>
<path id="Vector_6" d="M27.7439 30.723C27.9823 30.4664 28.1823 30.3881 28.5104 30.2795C29.2227 30.0439 29.9286 29.4344 30.6239 29.0876C31.1911 28.8046 31.7796 28.476 32.3847 28.2866C33.1106 28.0595 33.8206 28.0076 34.5784 27.989C36.6115 27.9391 37.8541 28.3403 39.6917 29.2394C40.1562 29.4667 40.5636 29.7846 41.0187 30.0151C41.3112 30.1631 41.6529 30.2489 41.9274 30.4254C42.0525 30.5056 42.1463 30.6067 42.2198 30.734C40.756 31.3798 39.3117 32.4576 37.8494 32.9601C37.0729 33.2266 36.2221 33.3524 35.4065 33.4103C32.1313 33.6428 30.5131 32.0547 27.7439 30.723Z" fill="var(--fill-0, #8A8A8A)"/>
<path id="Vector_7" d="M0.826864 79.7054C0.717572 75.2281 -0.406313 71.1253 5.77363 73.5585C6.45667 73.0013 7.45004 72.6253 8.23264 72.2111C9.0656 71.7709 9.92281 71.3752 10.7603 70.942C11.5225 70.5487 12.3468 70.0036 13.1972 69.8519C16.7522 71.8131 20.4093 73.6101 23.9847 75.5338L28.4652 77.9892C29.6635 78.6406 30.9078 79.4742 32.2538 79.7752C33.9855 80.1623 36.1954 80.1912 37.9111 79.7041C40.1327 79.0722 43.6703 76.7693 45.8442 75.6284L52.4535 72.115C53.9549 71.3299 55.5329 70.6175 56.9655 69.7135C57.986 70.3047 63.7226 73.148 64.166 73.6383C64.6696 72.7718 64.9784 71.8608 65.7104 71.1445C66.2445 71.1226 66.7903 71.1946 67.3267 71.2032C68.1251 71.6489 68.879 72.1455 69.1237 73.0885C69.2645 73.6281 69.2136 74.1763 69.1925 74.726C69.1941 76.0295 69.363 79.0597 69.1104 80.1388C68.9845 80.68 68.7523 81.114 68.3613 81.5112C62.6556 85.4004 48.025 92.1004 39.6569 97.4057C38.2842 97.7055 36.0203 98.4092 35.0353 98.3082C30.9115 98.4694 26.8281 95.2944 20.7396 92.0348C13.6887 88.26 5.88529 83.9635 1.83391 81.8167C1.19504 81.3061 0.960738 80.5523 0.826864 79.7054Z" fill="var(--fill-0, #474747)"/>
<path id="Vector_8" d="M56.9656 69.7135C57.9861 70.3047 63.7227 73.148 64.166 73.6383C63.4818 74.2881 58.5866 76.6575 57.3378 77.3269L42.1651 85.4422C41.1055 86.0014 40.0858 86.6355 39.0192 87.1798C38.3787 87.5067 37.6742 87.8515 36.9813 88.0454C35.9859 88.3246 33.4507 88.2245 32.4897 87.9C31.1144 87.4355 29.9014 86.5323 28.6163 85.8755C23.7401 83.3833 18.9586 80.7207 14.1477 78.1088C11.9482 76.9148 9.705 75.7629 7.48692 74.6001C6.99748 74.3436 6.41413 74.2224 5.94737 73.9456C5.82029 73.8705 5.81294 73.6961 5.77369 73.5585C5.9031 73.453 5.85728 73.4741 5.98052 73.4193C6.7582 73.0745 7.48059 72.6092 8.2327 72.2112C9.06566 71.7709 9.92287 71.3752 10.7604 70.942C11.5226 70.5487 12.3468 70.0036 13.1972 69.8519C16.7523 71.8131 20.4094 73.6101 23.9848 75.5338L28.4653 77.9892C29.6636 78.6406 30.9079 79.4742 32.2538 79.7752C33.9856 80.1623 36.1955 80.1913 37.9111 79.7041C40.1327 79.0722 43.6704 76.7693 45.8443 75.6284L52.4536 72.115C53.955 71.3299 55.533 70.6175 56.9656 69.7135Z" fill="var(--fill-0, #474747)"/>
<path id="Vector_9" d="M65.7103 71.1446C66.2444 71.1227 66.7902 71.1947 67.3267 71.2033C68.1251 71.649 68.8789 72.1455 69.1237 73.0886C69.2644 73.6282 69.2136 74.1763 69.1925 74.7261C68.9282 75.11 68.6467 75.4142 68.265 75.684C66.9107 76.6427 65.4054 77.3035 63.954 78.0894L54.851 82.9494L45.5791 87.9352C44.1629 88.7172 42.7342 89.4781 41.2946 90.2163C40.2624 90.7551 39.2067 91.372 38.0971 91.7333C36.4549 92.2682 34.4937 92.2651 32.8083 91.9538C32.0881 91.824 31.3871 91.6035 30.7221 91.2978C29.8607 90.8974 29.0537 90.3789 28.2178 89.9285L24.2063 87.8078L13.8163 82.2479C11.4093 80.9475 9.0118 79.6134 6.59056 78.3419C5.17581 77.5998 3.65196 76.9469 2.30133 76.0977C1.69397 75.7153 1.2466 75.3313 0.834728 74.7378C0.709768 74.131 0.681069 73.5852 0.890952 72.9877C1.20437 72.0947 1.93036 71.5833 2.74166 71.179L2.82831 71.1954C3.06384 71.2369 3.28381 71.2603 3.5227 71.2705C3.95584 71.2893 4.49986 71.4206 4.79975 71.7616C5.23054 72.2519 5.3957 73.0128 5.77355 73.5586C5.8128 73.6962 5.82016 73.8706 5.94723 73.9457C6.41399 74.2225 6.99735 74.3437 7.48679 74.6002C9.70487 75.763 11.9481 76.9148 14.1476 78.1089C18.9585 80.7207 23.74 83.3834 28.6162 85.8755C29.9013 86.5324 31.1143 87.4356 32.4896 87.9001C33.4506 88.2246 35.9858 88.3247 36.9812 88.0455C37.674 87.8516 38.3786 87.5067 39.0191 87.1799C40.0857 86.6356 41.1054 86.0014 42.165 85.4423L57.3377 77.3269C58.5865 76.6576 63.4817 74.2882 64.1659 73.6383C64.6695 72.7719 64.9784 71.8609 65.7103 71.1446Z" fill="var(--fill-0, #7B7B7B)"/>
<path id="Vector_10" d="M56.8929 33.2358C57.5826 32.7071 59.5798 31.7488 60.422 31.4184C60.8333 31.5946 61.2384 31.7851 61.6364 31.9895L61.7177 32.0389C63.2395 32.9397 64.9098 33.6786 66.4737 34.5187C67.0493 34.8279 67.6686 35.0985 68.1784 35.5127C68.6187 35.8696 68.9933 36.326 69.1473 36.8795C69.2974 37.4183 69.2357 38.0175 69.2013 38.5699C69.1762 38.5946 69.1504 38.618 69.127 38.644C69.0144 38.7697 68.9158 38.8949 68.7899 39.0087C65.5277 41.9435 60.1611 43.685 56.3205 45.7178L49.3891 49.4345C48.6478 49.8294 47.883 50.1813 47.1471 50.5864L42.1909 53.2584C41.0313 53.8816 39.8685 54.5799 38.6384 55.0562C37.2786 55.5824 35.7639 55.6857 34.3188 55.6137C33.1966 55.5574 32.0777 55.358 31.0415 54.9131C29.2998 54.1655 27.6069 53.1434 25.9313 52.2536L15.5704 46.6999L7.19483 42.2732C5.48856 41.3922 3.6642 40.5673 2.02838 39.5686C1.56568 39.2862 1.18376 38.9006 0.823507 38.5007C0.76697 37.8823 0.702613 37.3001 0.909055 36.6976C1.27674 35.6249 2.31826 35.1719 3.25311 34.6953C3.51156 34.4449 4.0021 34.2572 4.32271 34.0839C6.0569 33.1469 7.87703 32.3675 9.59481 31.4143C10.2854 31.6713 12.6146 32.8092 13.1417 33.2403C15.2518 34.3395 17.6812 35.4876 19.6741 36.7331C22.1852 38.0387 24.7399 39.3521 27.1973 40.7559C30.1689 42.1785 31.5278 43.5099 35.0835 43.4909C36.2385 43.4847 37.3927 43.3302 38.4844 42.943C39.9318 42.4294 41.3042 41.5885 42.6218 40.8098C45.2852 39.5343 47.8791 38.0387 50.4854 36.6496C51.4816 35.9913 52.6546 35.4727 53.7126 34.9121C54.7683 34.3535 55.8005 33.715 56.8929 33.2358Z" fill="url(#paint2_linear_8217_24134)"/>
<path id="Vector_11" d="M19.674 36.7331C22.1851 38.0387 24.7398 39.3521 27.1972 40.7559C30.1688 42.1786 31.5277 43.51 35.0834 43.4909C36.2384 43.4847 37.3926 43.3303 38.4843 42.9431C39.9317 42.4294 41.3041 41.5886 42.6217 40.8098C44.4461 41.6223 46.2055 42.7077 47.9775 43.6369C48.6539 43.9917 49.4218 44.4854 50.1678 44.6424C49.3905 44.9192 48.5554 45.5237 47.8203 45.9199L41.5699 49.3016C40.1585 50.0695 38.6008 51.1025 37.0454 51.5256C35.5948 51.9197 33.8229 51.7649 32.4022 51.3191C30.7138 50.7897 29.0792 49.6989 27.5259 48.8567C24.966 47.4687 22.4011 46.0991 19.8644 44.6686C18.3054 43.9753 16.8136 43.0586 15.3162 42.2403C14.3122 41.6917 13.269 41.2207 12.2715 40.664C12.3787 40.6067 12.3259 40.6287 12.4508 40.5895C13.1851 40.359 13.7737 39.9349 14.448 39.5837C16.2239 38.6586 17.9477 37.756 19.674 36.7331Z" fill="var(--fill-0, #979797)"/>
<path id="Vector_12" d="M19.674 36.7331C22.1851 38.0387 24.7398 39.3521 27.1972 40.7559C26.9286 41.0408 20.4914 44.4359 19.8644 44.6686C18.3054 43.9753 16.8136 43.0586 15.3162 42.2403C14.3122 41.6917 13.269 41.2207 12.2715 40.664C12.3787 40.6067 12.3259 40.6287 12.4508 40.5895C13.1851 40.359 13.7737 39.9349 14.448 39.5837C16.2239 38.6586 17.9477 37.756 19.674 36.7331Z" fill="var(--fill-0, #6D6D6D)"/>
<path id="Vector_13" d="M9.59477 31.4143C10.2853 31.6713 12.6145 32.8092 13.1417 33.2403C15.2518 34.3395 17.6812 35.4876 19.6741 36.7331C17.9478 37.7559 16.224 38.6586 14.448 39.5836C13.7738 39.9348 13.1852 40.359 12.4509 40.5895C12.326 40.6287 12.3788 40.6066 12.2716 40.6639C11.7267 40.4612 11.1438 40.0653 10.6207 39.7932C9.35432 39.1343 6.99727 38.089 5.98891 37.2972C5.91353 37.0837 5.73945 36.859 5.64405 36.6536C5.35203 36.0102 3.53509 34.9189 3.25308 34.6953C3.51153 34.4449 4.00206 34.2572 4.32268 34.0839C6.05687 33.1469 7.877 32.3675 9.59477 31.4143Z" fill="var(--fill-0, #7B7B7B)"/>
<path id="Vector_14" d="M9.59477 31.4143C10.2853 31.6713 12.6145 32.8092 13.1417 33.2403C10.9998 34.003 7.0185 36.2722 5.98891 37.2972C4.03494 35.6666 3.63882 35.744 2.60441 34.9239C4.19537 33.3825 7.67777 32.478 9.59477 31.4143Z" fill="var(--fill-0, #979797)"/>
<path id="Vector_15" d="M50.1728 36.7902C50.5984 37.0254 51.4229 37.409 51.81 37.6124C52.8954 38.1831 54.0066 38.7157 55.0826 39.3028C55.6479 39.6111 56.1828 40.0316 56.7607 40.3052C58.5746 41.1645 55.099 42.0275 53.7485 42.7666C52.5732 43.4092 51.3963 44.1103 50.1678 44.6423C49.4218 44.4853 48.6539 43.9916 47.9775 43.6368C46.2056 42.7076 44.4461 41.6222 42.6217 40.8097C45.2852 39.5342 47.5665 38.1793 50.1728 36.7902Z" fill="var(--fill-0, #6D6D6D)"/>
<g id="Vector_16">
<path d="M66.738 52.919C67.7389 53.4336 68.7343 53.9786 69.1269 55.114C69.2387 55.4362 69.245 55.7693 69.2559 56.1064C69.2364 56.2846 69.2059 56.4668 69.2012 56.6459C69.2106 58.0324 69.4053 61.2518 69.0737 62.3903C68.9869 62.6883 68.8274 62.8877 68.6124 63.1113C68.0603 63.6869 67.301 64.1013 66.6308 64.5275C65.4962 65.1132 64.3686 65.713 63.248 66.3268C62.4332 66.7835 61.6324 67.2933 60.8004 67.7172C59.4843 68.2997 58.2371 69.0395 56.9656 69.7136C55.533 70.6175 53.955 71.3299 52.4536 72.115L45.8443 75.6284C43.6704 76.7694 40.1327 79.0723 37.9111 79.7041C36.1954 80.1913 33.9856 80.1624 32.2538 79.7753C30.9079 79.4742 29.6636 78.6406 28.4653 77.9892L23.9848 75.5338C20.4093 73.6102 16.7523 71.8132 13.1972 69.852C12.3468 70.0037 11.5225 70.5487 10.7604 70.9421C9.92285 71.3753 9.06565 71.7709 8.23268 72.2112C7.48058 72.6092 6.75819 73.0745 5.98051 73.4194C5.85727 73.4741 5.90309 73.453 5.77367 73.5586C5.39582 73.0127 5.23067 72.2519 4.79988 71.7616C4.49999 71.4206 3.95597 71.2892 3.52283 71.2705C3.37027 71.264 3.27978 71.1876 2.80712 71.1251C5.12296 69.9432 7.28079 68.7595 9.06502 67.6565C7.9296 67.0293 5.26947 65.5479 4.13223 64.8888C3.33336 64.2773 2.26267 64.0372 1.55256 63.292C1.22475 62.9424 0.993907 62.5139 0.88271 62.0486C0.603466 60.9132 0.752984 58.041 0.806393 56.7648L0.774171 56.5325C0.758532 55.7545 0.751263 55.1492 1.12693 54.4439C1.59463 53.8668 2.07531 53.5164 2.7109 53.145C3.70831 53.4077 4.69329 53.4899 5.28924 54.4759C5.47832 54.7887 5.65825 55.193 5.75663 55.5457L5.8281 55.5496C6.09123 55.8358 10.8522 58.2896 11.388 58.4992C12.6243 59.1787 13.8964 59.7871 15.133 60.4643C16.1073 60.9976 17.0909 61.6701 18.1136 62.0948L18.2513 62.2144C19.6091 62.9346 21.0015 63.5891 22.3443 64.3375C23.1427 64.7277 23.9132 65.1961 24.6982 65.6152C26.0657 66.3456 27.4423 67.0556 28.8041 67.7977C29.9062 68.3975 31.0364 69.1302 32.2347 69.5204C33.7909 70.0264 35.6887 70.0858 37.2722 69.6674C38.7337 69.2811 40.1249 68.3334 41.4566 67.6351C44.895 65.8318 48.2622 63.9097 51.731 62.1683L51.8686 62.0557C52.8594 61.7155 53.8447 61.0195 54.7698 60.5136C55.9514 59.8685 57.172 59.2804 58.3669 58.6579C58.8353 58.4429 59.292 58.1246 59.7502 57.8791C61.0616 57.1714 62.3847 56.4864 63.7195 55.8233C63.9002 55.8248 64.0972 55.7107 64.2646 55.6426C64.6516 54.0279 65.4571 53.7244 66.738 52.919Z" fill="url(#paint3_linear_8217_24134)"/>
<path d="M66.738 52.919C67.7389 53.4336 68.7343 53.9786 69.1269 55.114C69.2387 55.4362 69.245 55.7693 69.2559 56.1064C69.2364 56.2846 69.2059 56.4668 69.2012 56.6459C69.2106 58.0324 69.4053 61.2518 69.0737 62.3903C68.9869 62.6883 68.8274 62.8877 68.6124 63.1113C68.0603 63.6869 67.301 64.1013 66.6308 64.5275C65.4962 65.1132 64.3686 65.713 63.248 66.3268C62.4332 66.7835 61.6324 67.2933 60.8004 67.7172C59.4843 68.2997 58.2371 69.0395 56.9656 69.7136C55.533 70.6175 53.955 71.3299 52.4536 72.115L45.8443 75.6284C43.6704 76.7694 40.1327 79.0723 37.9111 79.7041C36.1954 80.1913 33.9856 80.1624 32.2538 79.7753C30.9079 79.4742 29.6636 78.6406 28.4653 77.9892L23.9848 75.5338C20.4093 73.6102 16.7523 71.8132 13.1972 69.852C12.3468 70.0037 11.5225 70.5487 10.7604 70.9421C9.92285 71.3753 9.06565 71.7709 8.23268 72.2112C7.48058 72.6092 6.75819 73.0745 5.98051 73.4194C5.85727 73.4741 5.90309 73.453 5.77367 73.5586C5.39582 73.0127 5.23067 72.2519 4.79988 71.7616C4.49999 71.4206 3.95597 71.2892 3.52283 71.2705C3.37027 71.264 3.27978 71.1876 2.80712 71.1251C5.12296 69.9432 7.28079 68.7595 9.06502 67.6565C7.9296 67.0293 5.26947 65.5479 4.13223 64.8888C3.33336 64.2773 2.26267 64.0372 1.55256 63.292C1.22475 62.9424 0.993907 62.5139 0.88271 62.0486C0.603466 60.9132 0.752984 58.041 0.806393 56.7648L0.774171 56.5325C0.758532 55.7545 0.751263 55.1492 1.12693 54.4439C1.59463 53.8668 2.07531 53.5164 2.7109 53.145C3.70831 53.4077 4.69329 53.4899 5.28924 54.4759C5.47832 54.7887 5.65825 55.193 5.75663 55.5457L5.8281 55.5496C6.09123 55.8358 10.8522 58.2896 11.388 58.4992C12.6243 59.1787 13.8964 59.7871 15.133 60.4643C16.1073 60.9976 17.0909 61.6701 18.1136 62.0948L18.2513 62.2144C19.6091 62.9346 21.0015 63.5891 22.3443 64.3375C23.1427 64.7277 23.9132 65.1961 24.6982 65.6152C26.0657 66.3456 27.4423 67.0556 28.8041 67.7977C29.9062 68.3975 31.0364 69.1302 32.2347 69.5204C33.7909 70.0264 35.6887 70.0858 37.2722 69.6674C38.7337 69.2811 40.1249 68.3334 41.4566 67.6351C44.895 65.8318 48.2622 63.9097 51.731 62.1683L51.8686 62.0557C52.8594 61.7155 53.8447 61.0195 54.7698 60.5136C55.9514 59.8685 57.172 59.2804 58.3669 58.6579C58.8353 58.4429 59.292 58.1246 59.7502 57.8791C61.0616 57.1714 62.3847 56.4864 63.7195 55.8233C63.9002 55.8248 64.0972 55.7107 64.2646 55.6426C64.6516 54.0279 65.4571 53.7244 66.738 52.919Z" fill="url(#paint4_linear_8217_24134)"/>
</g>
<g id="Vector_17">
<path d="M66.7379 52.919C67.7389 53.4336 68.7343 53.9786 69.1269 55.114C69.2387 55.4362 69.245 55.7693 69.2559 56.1064C69.2364 56.2846 69.2059 56.4668 69.2012 56.6459C68.7852 57.1902 68.3496 57.5483 67.7694 57.9073C66.3165 58.8057 64.7767 59.558 63.2597 60.3408C60.7785 61.6224 58.2809 62.8845 55.8223 64.2084C51.6591 66.4496 47.5232 68.7369 43.3208 70.9053C41.8663 71.6552 40.4572 72.4911 38.9621 73.1621C38.3044 73.4585 37.6069 73.6579 36.8914 73.7525C35.1617 73.9824 33.1833 73.9402 31.5244 73.3529C29.6476 72.6882 27.9513 71.5622 26.1913 70.6418L13.6322 63.9598L5.12642 59.4407C3.87877 58.7737 2.56934 58.2842 1.44799 57.3935C1.21105 57.2089 0.995773 56.9978 0.806378 56.7648L0.774157 56.5325C0.758517 55.7545 0.751248 55.1492 1.12691 54.4439C1.59461 53.8668 2.07529 53.5164 2.71088 53.145C3.7083 53.4077 4.69328 53.4899 5.28922 54.4759C5.4783 54.7887 5.65824 55.193 5.75661 55.5457L5.82808 55.5496C6.09122 55.8358 10.8522 58.2896 11.388 58.4992C12.6243 59.1787 13.8964 59.7871 15.133 60.4643C16.1073 60.9976 17.0909 61.6701 18.1136 62.0948L18.2513 62.2144C19.609 62.9346 21.0015 63.5891 22.3443 64.3375C23.1427 64.7277 23.9132 65.1961 24.6982 65.6152C26.0657 66.3456 27.4423 67.0556 28.8041 67.7977C29.9061 68.3975 31.0364 69.1302 32.2347 69.5204C33.7908 70.0264 35.6887 70.0858 37.2722 69.6674C38.7337 69.2811 40.1249 68.3334 41.4566 67.6351C44.8949 65.8318 48.2621 63.9097 51.731 62.1683L51.8686 62.0557C52.8594 61.7155 53.8447 61.0195 54.7698 60.5136C55.9513 59.8685 57.172 59.2804 58.3669 58.6579C58.8353 58.4429 59.292 58.1246 59.7502 57.8791C61.0616 57.1714 62.3847 56.4864 63.7195 55.8233C64.4082 55.02 65.8733 53.4627 66.7379 52.919Z" fill="url(#paint5_linear_8217_24134)"/>
<path d="M66.7379 52.919C67.7389 53.4336 68.7343 53.9786 69.1269 55.114C69.2387 55.4362 69.245 55.7693 69.2559 56.1064C69.2364 56.2846 69.2059 56.4668 69.2012 56.6459C68.7852 57.1902 68.3496 57.5483 67.7694 57.9073C66.3165 58.8057 64.7767 59.558 63.2597 60.3408C60.7785 61.6224 58.2809 62.8845 55.8223 64.2084C51.6591 66.4496 47.5232 68.7369 43.3208 70.9053C41.8663 71.6552 40.4572 72.4911 38.9621 73.1621C38.3044 73.4585 37.6069 73.6579 36.8914 73.7525C35.1617 73.9824 33.1833 73.9402 31.5244 73.3529C29.6476 72.6882 27.9513 71.5622 26.1913 70.6418L13.6322 63.9598L5.12642 59.4407C3.87877 58.7737 2.56934 58.2842 1.44799 57.3935C1.21105 57.2089 0.995773 56.9978 0.806378 56.7648L0.774157 56.5325C0.758517 55.7545 0.751248 55.1492 1.12691 54.4439C1.59461 53.8668 2.07529 53.5164 2.71088 53.145C3.7083 53.4077 4.69328 53.4899 5.28922 54.4759C5.4783 54.7887 5.65824 55.193 5.75661 55.5457L5.82808 55.5496C6.09122 55.8358 10.8522 58.2896 11.388 58.4992C12.6243 59.1787 13.8964 59.7871 15.133 60.4643C16.1073 60.9976 17.0909 61.6701 18.1136 62.0948L18.2513 62.2144C19.609 62.9346 21.0015 63.5891 22.3443 64.3375C23.1427 64.7277 23.9132 65.1961 24.6982 65.6152C26.0657 66.3456 27.4423 67.0556 28.8041 67.7977C29.9061 68.3975 31.0364 69.1302 32.2347 69.5204C33.7908 70.0264 35.6887 70.0858 37.2722 69.6674C38.7337 69.2811 40.1249 68.3334 41.4566 67.6351C44.8949 65.8318 48.2621 63.9097 51.731 62.1683L51.8686 62.0557C52.8594 61.7155 53.8447 61.0195 54.7698 60.5136C55.9513 59.8685 57.172 59.2804 58.3669 58.6579C58.8353 58.4429 59.292 58.1246 59.7502 57.8791C61.0616 57.1714 62.3847 56.4864 63.7195 55.8233C64.4082 55.02 65.8733 53.4627 66.7379 52.919Z" fill="var(--fill-1, #A9A9A9)"/>
</g>
<path id="Vector_18" d="M5.75651 55.5457L5.82798 55.5496C14.2315 59.9077 24.1781 65.1831 32.2346 69.5204C33.7907 70.0264 35.6886 70.0858 37.2721 69.6674C46.125 65.1025 54.783 60.5923 63.7194 55.8233C63.8916 55.7314 64.7927 54.0648 64.9601 53.9967C65.1578 54.6228 64.3778 57.0948 64.3778 57.6781C59.6973 60.4062 46.9827 67.1758 41.6363 70.1476C38.976 71.6263 38.1265 72.3279 34.979 72.3138C34.1869 72.3099 33.13 72.2409 32.3611 72.0282C30.9512 71.6372 29.616 70.7638 28.3325 70.0811L22.4276 66.9344C19.4104 65.355 16.4869 63.6881 13.4846 62.0979C11.7899 61.2009 6.92424 58.9058 5.76496 57.7688C5.84417 57.0056 5.83901 56.3097 5.75651 55.5457Z" fill="var(--fill-0, #979797)"/>
<path id="Vector_19" d="M51.5901 54.3188C51.888 54.9428 55.2146 56.6342 55.9528 56.9971C56.6104 57.32 57.7779 57.6899 58.2643 58.2443C58.373 58.3679 58.3605 58.4969 58.3667 58.658C57.1719 59.2804 55.9512 59.8685 54.7696 60.5136C53.8446 61.0196 52.8593 61.7155 51.8685 62.0557L51.7309 62.1683C48.262 63.9098 44.8948 65.8319 41.4565 67.6351C40.1248 68.3334 38.7336 69.2812 37.2721 69.6675C35.6886 70.0858 33.7907 70.0264 32.2346 69.5205C31.0363 69.1302 29.906 68.3975 28.804 67.7978C27.4422 67.0557 26.0656 66.3456 24.698 65.6152C23.9131 65.1961 23.1426 64.7277 22.3441 64.3375C23.216 63.9395 28.987 60.756 29.1856 60.2775L28.8628 60.0859L28.9699 60.0366C29.771 60.3314 30.474 60.8616 31.285 61.1408C32.5166 61.5646 33.743 61.7398 35.0427 61.7437C38.9924 61.7546 40.9662 59.9021 44.3208 58.256C46.6848 56.886 49.1441 55.5379 51.5901 54.3188Z" fill="var(--fill-0, #6D6D6D)"/>
<path id="Vector_20" d="M51.5903 54.3188C51.8882 54.9428 55.2148 56.6342 55.9529 56.9971C56.6106 57.32 57.7781 57.6899 58.2645 58.2443C58.3732 58.3679 58.3607 58.4969 58.3669 58.658C57.172 59.2804 55.9514 59.8685 54.7698 60.5136C53.8447 61.0196 52.8594 61.7155 51.8687 62.0557C51.2298 61.6068 50.0623 61.1619 49.3398 60.7983C48.2536 60.2524 47.205 59.612 46.1016 59.1037C45.6105 58.8777 44.974 58.737 44.5196 58.4703C44.4297 58.4171 44.3789 58.3397 44.321 58.256C46.6849 56.886 49.1443 55.5379 51.5903 54.3188Z" fill="var(--fill-0, #525252)"/>
<path id="Vector_21" d="M18.5988 54.4329C21.0319 55.5871 23.481 56.8938 25.8075 58.2497C26.7364 58.6892 28.1534 59.4336 28.9702 60.0365L28.863 60.0858L29.1858 60.2774C28.9872 60.756 23.2162 63.9394 22.3444 64.3374C21.0017 63.5891 19.6092 62.9346 18.2514 62.2143L18.1137 62.0947C17.0911 61.6701 16.1074 60.9976 15.1331 60.4643C13.8965 59.7871 12.6244 59.1787 11.3881 58.4992C11.9768 58.1879 12.5205 57.793 13.115 57.4834C13.7884 57.1331 14.5017 56.8648 15.1803 56.5255C15.8804 56.1743 16.5366 55.7419 17.2105 55.3455C17.6827 55.0671 18.2065 54.8192 18.5988 54.4329Z" fill="var(--fill-0, #525252)"/>
<path id="Vector_22" d="M25.8072 58.2498C27.0254 58.8261 28.2527 59.5271 29.409 60.1521C29.2103 60.6307 23.2159 63.9394 22.3441 64.3375C21.0014 63.5891 19.6089 62.9346 18.2511 62.2144L18.1134 62.0948C19.5004 61.574 20.8765 60.7443 22.1894 60.0491C23.383 59.4173 24.5956 58.8448 25.8072 58.2498Z" fill="var(--fill-0, #7B7B7B)"/>
<path id="Vector_23" d="M44.3423 58.1873C43.1279 58.7619 41.9714 59.4373 40.8113 60.1131C41.0099 60.5917 46.9337 63.877 47.8055 64.275C49.1482 63.5266 50.5407 62.8721 51.8984 62.1519L52.0361 62.0323C50.6492 61.5115 49.2731 60.6818 47.9602 59.9866C46.7666 59.3548 45.5539 58.7824 44.3423 58.1873Z" fill="var(--fill-0, #7B7B7B)"/>
<path id="Vector_24" d="M9.46196 49.5713C10.7515 49.9404 11.9351 50.8905 13.1218 51.5122C14.9306 52.4427 16.8821 53.3397 18.5987 54.4329C18.2064 54.8192 17.6826 55.0671 17.2104 55.3454C16.5364 55.7419 15.8803 56.1743 15.1802 56.5254C14.5016 56.8648 13.7883 57.133 13.1149 57.4834C12.5204 57.793 11.9766 58.1879 11.388 58.4992C10.8522 58.2896 6.09124 55.8357 5.8281 55.5495L5.75663 55.5456C5.65825 55.193 5.47832 54.7887 5.28924 54.4759C4.69329 53.4898 3.70832 53.4077 2.7109 53.145C3.21512 52.8204 3.84391 52.5851 4.37925 52.302C5.52876 51.6928 6.66286 51.0422 7.82418 50.4573C8.21126 50.2626 9.10045 49.9725 9.39079 49.723C9.43318 49.687 9.43826 49.6221 9.46196 49.5713Z" fill="var(--fill-0, #6D6D6D)"/>
<path id="Vector_25" d="M9.46196 49.5713C10.7515 49.9404 11.9351 50.8905 13.1218 51.5122C12.9106 51.7155 12.7021 51.8969 12.4531 52.0517C11.4787 52.6601 10.3625 53.1332 9.3377 53.6556C8.19859 54.2366 7.07309 54.888 5.90888 55.4119L5.8281 55.5495L5.75663 55.5456C5.65825 55.193 5.47832 54.7887 5.28924 54.4759C4.69329 53.4898 3.70832 53.4077 2.7109 53.145C3.21512 52.8204 3.84391 52.5851 4.37925 52.302C5.52876 51.6928 6.66286 51.0422 7.82418 50.4573C8.21126 50.2626 9.10045 49.9725 9.39079 49.723C9.43318 49.687 9.43826 49.6221 9.46196 49.5713Z" fill="var(--fill-0, #7B7B7B)"/>
<path id="Vector_26" d="M56.7988 51.5647C57.9703 50.8648 59.205 50.2157 60.4476 49.6535C62.2015 50.2243 64.9893 51.9885 66.7378 52.919C65.8731 53.4627 64.254 55.2566 63.7194 55.8233C62.3845 56.4864 61.0614 57.1714 59.75 57.8791C59.2918 58.1247 58.8351 58.4429 58.3667 58.658C58.3605 58.4969 58.373 58.3679 58.2643 58.2443C57.7779 57.6899 56.6104 57.32 55.9527 56.9971C55.2146 56.6342 51.888 54.9428 51.5901 54.3188C51.985 54.0177 52.5363 53.7839 52.9773 53.5478C54.2418 52.8682 55.5289 52.2348 56.7988 51.5647Z" fill="var(--fill-0, #6D6D6D)"/>
<path id="Vector_27" d="M56.7991 51.5647C57.9705 50.8648 59.2052 50.2157 60.4478 49.6535C62.2018 50.2243 64.9895 51.9885 66.738 52.919C65.8734 53.4627 64.8401 54.6808 63.7196 55.8233C63.8514 55.3926 62.7415 54.7243 62.0204 54.3063C60.3305 53.328 58.5273 52.4804 56.7991 51.5647Z" fill="var(--fill-0, #7B7B7B)"/>
<path id="Vector_28" d="M62.1342 68.3535C63.8201 69.4037 64.2341 69.3632 65.9638 70.3539C66.2489 70.5172 66.5209 70.661 67.3267 71.2033C67.1723 71.2009 67.0172 71.1931 66.8617 71.1839C66.1211 71.14 65.3909 71.4194 65.0108 72.0566C64.7081 72.5642 64.4733 73.1096 64.1659 73.6384C63.7225 73.1481 57.986 70.3048 56.9655 69.7137C58.237 69.0396 59.4842 68.2998 60.8003 67.7173C60.9005 67.6731 61.5492 67.9887 62.1342 68.3535Z" fill="var(--fill-0, #525252)"/>
<path id="Union" d="M31.0628 0.641662C33.622 -0.287539 37.146 -0.226999 39.6184 0.952209C40.8717 1.54975 42.0759 2.30261 43.3128 2.94342C47.9645 5.35414 52.5894 7.81879 57.1849 10.336C59.8895 11.7604 62.5867 13.2032 65.2718 14.6641C66.2568 15.2053 67.343 15.688 68.2718 16.3165C68.855 16.7118 69.4863 17.2904 69.7278 17.963C70.1803 19.2229 69.9333 21.703 69.9231 23.0655C69.9185 23.7543 69.9875 24.4533 69.9163 25.1388C69.8717 25.5689 69.7722 25.992 69.5745 26.379C68.8903 27.7186 67.3286 28.2777 66.0628 28.919C64.8635 29.7874 63.3765 30.4437 62.0872 31.1886C63.2943 31.9038 64.5182 32.5904 65.7581 33.2462C66.841 33.8292 68.1725 34.352 69.0716 35.2022C69.4519 35.5619 69.6852 36.0048 69.8118 36.5099C70.0963 37.647 69.9179 39.0566 69.9241 40.2227C69.9296 41.2149 70.0238 42.2473 69.9222 43.2345C69.8721 43.7187 69.8068 44.2828 69.5481 44.7022C68.7012 46.0742 64.9458 47.7795 63.4485 48.5929C62.9952 48.8399 62.476 49.0701 62.0765 49.3976C62.1438 49.6152 65.8708 51.5861 66.4397 51.8956C67.4765 52.4608 68.885 53.0549 69.5003 54.1163C69.6706 54.3804 69.7948 54.6145 69.8479 54.9278C69.9918 55.7702 70.0047 61.3576 69.8343 62.2716C69.7029 62.9727 69.0471 63.6398 68.4749 64.0167C68.2225 64.1832 67.9306 64.3408 67.6399 64.4269C65.7753 65.3753 64.0363 66.7252 62.1224 67.5392C63.8082 68.5892 65.6633 69.4059 67.3929 70.3966C67.9651 70.7241 68.5893 71.0274 69.0833 71.4698C69.4505 71.8004 69.6645 72.0983 69.7786 72.5821C69.9802 73.4365 69.9764 78.8008 69.8372 79.7648C69.7838 80.1304 69.6845 80.4622 69.5403 80.7872L69.3812 81.1114L69.2269 81.3868C69.0697 81.6464 68.8958 81.8643 68.6438 82.0782C67.7995 82.7936 63.5925 84.9762 62.5481 85.3116C61.6891 85.9639 56.3601 88.7712 55.3689 89.3119C54.4625 89.8062 51.7202 91.2353 51.3792 91.4279C50.8038 91.7531 50.1931 92.0068 49.6145 92.3234C48.5824 92.8887 47.581 93.5022 46.5364 94.048C45.7187 94.4764 44.8705 94.8376 44.0481 95.255C43.4361 95.5653 42.8381 95.9216 42.2112 96.2023C40.6271 97.1843 38.3034 98.7915 36.3313 98.5402C34.7269 98.5628 33.0977 98.6753 31.5393 98.215C30.2113 97.8225 29.0979 96.9386 27.8723 96.3185C25.4671 95.1026 23.132 93.7833 20.7532 92.5197C19.47 91.8378 18.1461 91.2327 16.8714 90.5353C14.7453 89.3718 12.6507 88.1139 10.4895 87.0177C8.84905 86.4719 7.29074 85.3411 5.77566 84.5294C4.64875 83.925 2.4973 83.0271 1.58718 82.2999C0.94844 81.7894 0.410624 81.3057 0.276637 80.4591C0.0741822 78.6097 -0.268487 73.8897 0.36648 72.2413C0.504614 71.8834 0.681274 71.5856 0.972926 71.3331C1.63266 70.7624 2.51242 70.4553 3.27664 70.0558C4.36966 69.4848 5.48827 68.8584 6.62039 68.2482C7.0045 68.0411 7.36453 67.7974 7.73074 67.5607C6.18316 66.6075 4.54985 65.8331 3.01882 64.8487C2.25708 64.3515 1.45147 64.0942 0.782496 63.4337C0.129882 62.7886 0.0605909 62.0958 0.0549567 61.2208C0.0449946 59.6878 -0.172546 55.399 0.333277 54.2003C0.533515 53.7267 0.990529 53.3165 1.39871 53.0187C2.56802 52.1665 4.14033 51.5434 5.43191 50.8351C6.03455 50.505 7.51578 49.8658 7.93289 49.4444C7.17005 48.8479 6.20119 48.3838 5.37039 47.8702C4.8461 47.6107 4.31522 47.3576 3.80398 47.0724C2.83164 46.6406 1.00378 45.5952 0.449488 44.7227C0.238724 44.3909 0.162421 43.9763 0.115504 43.5919C-0.0355656 42.3542 -0.0728025 37.5617 0.225855 36.46C0.336114 36.0537 0.504729 35.6361 0.802027 35.3292C1.80306 34.2963 6.27925 32.1883 7.89773 31.2354L7.31277 30.7306C6.14463 30.273 4.04857 29.126 2.95535 28.4708C1.83097 27.9539 0.708608 27.2996 0.242457 26.1095C0.114206 25.782 0.0537164 25.4292 0.0324958 25.0792C-0.0381902 23.9095 0.057639 22.7042 0.0637458 21.5294C0.0685066 20.6218 -0.0134019 19.682 0.0627692 18.7794C0.094117 18.4082 0.152966 18.0271 0.301051 17.6827C0.579706 17.035 1.32506 16.5287 1.9075 16.1651C3.67049 15.0648 5.53448 14.2154 7.35476 13.2296L20.5257 6.20026C22.3916 5.21008 24.2795 4.2134 26.1243 3.18756C27.5805 2.37781 29.5193 1.2023 31.0628 0.641662ZM38.0403 1.28424C36.0879 0.731673 33.4932 0.767179 31.5569 1.36529C30.2777 1.76055 29.0482 2.59783 27.8763 3.23639L22.2796 6.25983C15.8017 9.7195 9.22665 13.0291 2.81277 16.6065C1.97434 17.118 1.04722 17.6349 0.818629 18.6768C0.741457 19.0288 0.764433 19.4139 0.782496 19.7716C0.810831 21.1212 0.5707 24.6388 0.856715 25.6876C0.985539 26.1595 1.25052 26.5627 1.60379 26.8975C2.43194 27.6818 3.79718 28.0851 4.77761 28.6925C5.81588 29.2877 6.91388 29.7964 7.92898 30.4327L8.35867 30.7139L8.52273 30.7862C8.89915 30.9656 9.23024 31.2097 9.595 31.4141C7.87744 32.3672 6.0575 33.1472 4.32351 34.0841C4.00298 34.2573 3.5117 34.4451 3.2532 34.6954C2.31847 35.1719 1.27714 35.6249 0.909449 36.6974C0.703007 37.2999 0.766975 37.8826 0.823512 38.5011C0.815159 39.6953 0.591267 42.7463 0.864527 43.7686C0.98605 44.2229 1.24736 44.6046 1.58035 44.9308C2.58728 45.9167 3.98151 46.3914 5.1575 47.127C5.76116 47.3975 6.40799 47.7702 6.95047 48.1485C7.82452 48.5598 8.60876 49.1281 9.46219 49.5714C9.43861 49.6221 9.43302 49.6868 9.3909 49.7228C9.10052 49.9721 8.2117 50.2624 7.82449 50.4571C6.66343 51.0419 5.5294 51.6928 4.38015 52.3019C3.84492 52.5849 3.21538 52.8202 2.71121 53.1446C2.07572 53.516 1.59485 53.8665 1.12722 54.4435C0.754603 55.1431 0.699417 55.9895 0.80691 56.7647C0.753496 58.041 0.603848 60.9135 0.883082 62.0489C0.994333 62.514 1.22534 62.9427 1.553 63.2921C2.26115 64.0349 3.31334 64.2988 4.13308 64.8888L4.80984 65.2423C5.48474 65.5999 6.15374 65.9707 6.81472 66.3536C7.54518 66.7836 8.30398 67.3339 9.10672 67.6153C8.9684 67.7333 8.82374 67.885 8.67019 67.9796C8.17571 68.2837 7.64501 68.5898 7.11355 68.8204C5.93885 69.5947 3.96069 70.5069 2.74246 71.1788C1.9313 71.583 1.20538 72.0947 0.891871 72.9874C0.682031 73.5847 0.710336 74.1307 0.83523 74.7374C0.848433 76.1286 0.580274 79.1201 0.876246 80.3009C1.02865 80.9086 1.37629 81.3949 1.84695 81.797C3.82285 82.9636 5.91337 83.9908 7.93289 85.087C8.54937 85.4216 9.2229 85.7205 9.81082 86.0997C11.835 86.963 13.7349 88.1751 15.6731 89.215L27.2044 95.3263C28.599 96.0527 29.9912 97.0172 31.4534 97.5841C32.4239 97.9601 33.5305 98.154 34.5696 98.1798C37.051 98.1078 38.3762 97.7031 40.5677 96.5734C42.1456 95.6124 43.8172 94.8069 45.4476 93.9406C47.767 92.7097 52.8305 89.8749 55.2317 88.8029H55.2337C56.4212 88.0089 60.2353 86.0339 61.1302 85.6173C63.4228 84.2224 65.9071 83.1301 68.1692 81.6945C68.234 81.6343 68.3009 81.5741 68.3626 81.5109C68.7532 81.1138 68.9858 80.6796 69.1116 80.1388C69.3641 79.0595 69.1952 76.0293 69.1937 74.7257C69.2148 74.1763 69.2648 73.6282 69.1243 73.089C68.8796 72.1461 68.1256 71.6489 67.3274 71.2032C65.7043 70.2267 63.9465 69.4588 62.2796 68.5558C61.7895 68.29 61.2412 68.0576 60.8011 67.7169C61.6327 67.2932 62.4339 66.7838 63.2483 66.3273C64.3687 65.7135 65.4968 65.113 66.6312 64.5274C67.3012 64.1014 68.0616 63.6869 68.6136 63.1114C68.8283 62.888 68.9877 62.6883 69.0745 62.3907C69.406 61.2522 69.2118 58.0321 69.2024 56.6456C69.2048 56.5563 69.2133 56.4661 69.2239 56.3761L69.2571 56.1065C69.2462 55.7696 69.2389 55.4364 69.1272 55.1144C68.7348 53.9792 67.7393 53.4335 66.7386 52.919C64.9903 51.9886 62.2025 50.2245 60.4485 49.6534C61.942 48.63 63.5902 47.7764 65.179 46.9093C66.2627 46.3173 67.6089 45.7918 68.4798 44.9102C68.7665 44.6201 69.0347 44.2589 69.1419 43.8595C69.4022 42.8834 69.1994 39.7981 69.2024 38.5704C69.2368 38.0182 69.2977 37.4186 69.1478 36.88C68.9938 36.3267 68.619 35.8696 68.179 35.5128C67.6694 35.0988 67.0501 34.8276 66.4749 34.5186C64.9111 33.6787 63.2396 32.9398 61.7181 32.0391C61.2901 31.8227 60.8631 31.608 60.4222 31.419C61.7412 30.6218 63.0769 29.8687 64.428 29.127C65.7135 28.4214 67.547 27.707 68.5462 26.6632C68.7883 26.4108 69.0112 26.1211 69.0979 25.7764C69.3872 24.6204 69.197 21.404 69.1907 20.043C69.2017 19.5809 69.244 19.1076 69.1331 18.6544C68.9557 17.9286 68.579 17.4869 67.9437 17.1075C67.2049 16.4664 65.4207 15.6834 64.4915 15.1885L55.8929 10.6348L43.2864 3.87995C41.5984 2.99277 39.8792 1.80501 38.0403 1.28424Z" fill="var(--fill-0, white)" fill-opacity="0.4"/>
<g id="circle">
<ellipse id="Ellipse 3321" cx="61.6557" cy="27.9597" rx="0.551331" ry="1.09741" fill="var(--fill-0, #5B5B5B)"/>
<ellipse id="Ellipse 3322" cx="59.5191" cy="29.0261" rx="0.551331" ry="1.09741" fill="var(--fill-0, #5B5B5B)"/>
<ellipse id="Ellipse 3323" cx="57.2574" cy="30.3611" rx="0.551331" ry="1.09741" fill="var(--fill-0, #5B5B5B)"/>
<ellipse id="Ellipse 3324" cx="54.5356" cy="31.7966" rx="0.551331" ry="1.09741" fill="var(--fill-0, #5B5B5B)"/>
<ellipse id="Ellipse 3325" cx="51.1535" cy="33.4309" rx="0.551331" ry="1.09741" fill="var(--fill-0, #5B5B5B)"/>
<ellipse id="Ellipse 3326" cx="49.0929" cy="34.5886" rx="0.551331" ry="1.09741" fill="var(--fill-0, #5B5B5B)"/>
<ellipse id="Ellipse 3327" cx="46.9352" cy="35.8079" rx="0.551331" ry="1.09741" fill="var(--fill-0, #5B5B5B)"/>
<ellipse id="Ellipse 3328" cx="44.7876" cy="36.843" rx="0.551331" ry="1.09741" fill="var(--fill-0, #5B5B5B)"/>
</g>
<g id="circle_2">
<ellipse id="Ellipse 3321_2" cx="61.6557" cy="46.1047" rx="0.551331" ry="1.09741" fill="var(--fill-0, #434343)"/>
<ellipse id="Ellipse 3322_2" cx="59.5191" cy="47.1711" rx="0.551331" ry="1.09741" fill="var(--fill-0, #434343)"/>
<ellipse id="Ellipse 3323_2" cx="57.2574" cy="48.5061" rx="0.551331" ry="1.09741" fill="var(--fill-0, #434343)"/>
<ellipse id="Ellipse 3324_2" cx="54.5356" cy="49.9417" rx="0.551331" ry="1.09741" fill="var(--fill-0, #434343)"/>
<ellipse id="Ellipse 3325_2" cx="51.1535" cy="51.5759" rx="0.551331" ry="1.09741" fill="var(--fill-0, #434343)"/>
<ellipse id="Ellipse 3326_2" cx="49.0929" cy="52.7336" rx="0.551331" ry="1.09741" fill="var(--fill-0, #434343)"/>
<ellipse id="Ellipse 3327_2" cx="46.9352" cy="53.9529" rx="0.551331" ry="1.09741" fill="var(--fill-0, #434343)"/>
<ellipse id="Ellipse 3328_2" cx="44.7876" cy="54.988" rx="0.551331" ry="1.09741" fill="var(--fill-0, #434343)"/>
</g>
<g id="circle_3">
<ellipse id="Ellipse 3321_3" cx="61.6557" cy="64.1736" rx="0.551331" ry="1.09741" fill="var(--fill-0, #2B2B2B)"/>
<ellipse id="Ellipse 3322_3" cx="59.5191" cy="65.24" rx="0.551331" ry="1.09741" fill="var(--fill-0, #2B2B2B)"/>
<ellipse id="Ellipse 3323_3" cx="57.2574" cy="66.575" rx="0.551331" ry="1.09741" fill="var(--fill-0, #2B2B2B)"/>
<ellipse id="Ellipse 3324_3" cx="54.5356" cy="68.0105" rx="0.551331" ry="1.09741" fill="var(--fill-0, #2B2B2B)"/>
<ellipse id="Ellipse 3325_3" cx="51.1535" cy="69.6448" rx="0.551331" ry="1.09741" fill="var(--fill-0, #2B2B2B)"/>
<ellipse id="Ellipse 3326_3" cx="49.0929" cy="70.8025" rx="0.551331" ry="1.09741" fill="var(--fill-0, #2B2B2B)"/>
<ellipse id="Ellipse 3327_3" cx="46.9352" cy="72.0217" rx="0.551331" ry="1.09741" fill="var(--fill-0, #2B2B2B)"/>
<ellipse id="Ellipse 3328_3" cx="44.7876" cy="73.0569" rx="0.551331" ry="1.09741" fill="var(--fill-0, #2B2B2B)"/>
</g>
<g id="circle_4">
<ellipse id="Ellipse 3321_4" cx="61.6557" cy="82.4459" rx="0.551331" ry="1.09741" fill="var(--fill-0, #161616)"/>
<ellipse id="Ellipse 3322_4" cx="59.5191" cy="83.5123" rx="0.551331" ry="1.09741" fill="var(--fill-0, #161616)"/>
<ellipse id="Ellipse 3323_4" cx="57.2574" cy="84.8473" rx="0.551331" ry="1.09741" fill="var(--fill-0, #161616)"/>
<ellipse id="Ellipse 3324_4" cx="54.5356" cy="86.2828" rx="0.551331" ry="1.09741" fill="var(--fill-0, #161616)"/>
<ellipse id="Ellipse 3325_4" cx="51.1535" cy="87.9171" rx="0.551331" ry="1.09741" fill="var(--fill-0, #161616)"/>
<ellipse id="Ellipse 3326_4" cx="49.0929" cy="89.0748" rx="0.551331" ry="1.09741" fill="var(--fill-0, #161616)"/>
<ellipse id="Ellipse 3327_4" cx="46.9352" cy="90.294" rx="0.551331" ry="1.09741" fill="var(--fill-0, #161616)"/>
<ellipse id="Ellipse 3328_4" cx="44.7876" cy="91.3292" rx="0.551331" ry="1.09741" fill="var(--fill-0, #161616)"/>
</g>
<path id="Vector_29" d="M9.10593 67.6155C10.5194 68.2098 11.8785 69.0723 13.1971 69.8519C12.3467 70.0036 11.5224 70.5487 10.7602 70.942C9.92271 71.3752 9.0655 71.7709 8.23254 72.2112C7.48043 72.6092 6.75804 73.0745 5.98036 73.4193C5.85712 73.474 5.90295 73.4529 5.77353 73.5585C5.39568 73.0127 5.23052 72.2518 4.79973 71.7615C4.49984 71.4206 3.95582 71.2892 3.52268 71.2704C3.26009 71.2593 2.99976 71.2279 2.74164 71.1789C3.75377 70.6194 7.19895 68.8164 9.10593 67.6155Z" fill="var(--fill-0, #525252)"/>
</g>
<defs>
<linearGradient id="paint0_linear_8217_24134" x1="33.9895" y1="16.0151" x2="37.6766" y2="43.0793" gradientUnits="userSpaceOnUse">
<stop stop-color="#A0A0A0"/>
<stop offset="1" stop-color="#C7C7C7"/>
</linearGradient>
<linearGradient id="paint1_linear_8217_24134" x1="34.9859" y1="38.0268" x2="34.9859" y2="61.7467" gradientUnits="userSpaceOnUse">
<stop stop-color="#929294"/>
<stop offset="0.5" stop-color="#9E9FA0"/>
<stop offset="1" stop-color="#A4A6A6"/>
</linearGradient>
<linearGradient id="paint2_linear_8217_24134" x1="35.0055" y1="31.4143" x2="35.0055" y2="55.6341" gradientUnits="userSpaceOnUse">
<stop stop-color="#929292"/>
<stop offset="0.622017" stop-color="#BBBBBB"/>
<stop offset="1" stop-color="#D8D8D8"/>
</linearGradient>
<linearGradient id="paint3_linear_8217_24134" x1="34.3891" y1="53.6963" x2="37.0502" y2="79.7456" gradientUnits="userSpaceOnUse">
<stop stop-color="#AAAAAA"/>
<stop offset="1" stop-color="#BFBFBF"/>
</linearGradient>
<linearGradient id="paint4_linear_8217_24134" x1="34.9924" y1="52.919" x2="34.9924" y2="80.0677" gradientUnits="userSpaceOnUse">
<stop stop-color="#767676"/>
<stop offset="0.5" stop-color="#888888"/>
<stop offset="1" stop-color="#8E8E8E"/>
</linearGradient>
<linearGradient id="paint5_linear_8217_24134" x1="34.7503" y1="51.746" x2="35.9272" y2="73.6618" gradientUnits="userSpaceOnUse">
<stop stop-color="#CACACA"/>
<stop offset="1" stop-color="#D7D7D7"/>
</linearGradient>
</defs>
</svg>
