<svg preserveAspectRatio="none" width="100%" height="100%" overflow="visible" style="display: block;" viewBox="0 0 42 16" fill="none" xmlns="http://www.w3.org/2000/svg">
<g id="toggle">
<rect id="Toggle background" width="42" height="16" rx="8" fill="var(--fill-0, #17181B)"/>
<rect id="Toggle switch" x="21.5978" y="2" width="18" height="12" rx="6" fill="var(--fill-0, #00D3F2)"/>
<path id="Vector" d="M10.5994 4V5.73077H11.2917V4H10.5994ZM8.00325 5.07091L7.51647 5.55769L8.73883 6.79087L9.23642 6.29327L8.00325 5.07091ZM13.8879 5.07091L12.6547 6.29327L13.1523 6.79087L14.3746 5.55769L13.8879 5.07091ZM10.9456 6.07692C9.61097 6.07692 8.52248 7.16541 8.52248 8.5C8.52248 9.83459 9.61097 10.9231 10.9456 10.9231C12.2801 10.9231 13.3686 9.83459 13.3686 8.5C13.3686 7.16541 12.2801 6.07692 10.9456 6.07692ZM10.9456 6.76923C11.9056 6.76923 12.6763 7.53996 12.6763 8.5C12.6763 9.46004 11.9056 10.2308 10.9456 10.2308C9.98552 10.2308 9.21479 9.46004 9.21479 8.5C9.21479 7.53996 9.98552 6.76923 10.9456 6.76923ZM6.44556 8.15385V8.84615H8.17633V8.15385H6.44556ZM13.7148 8.15385V8.84615H15.4456V8.15385H13.7148ZM8.73883 10.2091L7.51647 11.4423L8.00325 11.9291L9.23642 10.7067L8.73883 10.2091ZM13.1523 10.2091L12.6547 10.7067L13.8879 11.9291L14.3746 11.4423L13.1523 10.2091ZM10.5994 11.2692V13H11.2917V11.2692H10.5994Z" fill="var(--fill-0, #7D7F91)"/>
<path id="Vector_2" d="M31.1032 4L30.4418 4.02496C28.3076 4.1014 26.5978 5.85335 26.5978 8.00624C26.5978 10.2075 28.3903 12 30.5915 12C32.7444 12 34.4964 10.2902 34.5728 8.15601L34.5978 7.50702L34.0112 7.78159C33.6992 7.9298 33.3528 8.00624 32.9878 8.00624C31.6602 8.00624 30.5915 6.9376 30.5915 5.60998C30.5915 5.24493 30.6805 4.91108 30.8287 4.59906L31.1032 4ZM29.9426 4.94852C29.8926 5.17005 29.7928 5.37285 29.7928 5.60998C29.7928 7.36973 31.228 8.80499 32.9878 8.80499C33.2296 8.80499 33.4355 8.70671 33.6617 8.65523C33.3575 10.103 32.1329 11.2012 30.5915 11.2012C28.8224 11.2012 27.3965 9.77535 27.3965 8.00624C27.3965 6.46802 28.4979 5.25585 29.9426 4.94852Z" fill="var(--fill-0, #17181B)"/>
</g>
</svg>
